{
.appVersion = "1357";
DisplayStrings = (
"o/imacron o/space oio/space"
);
classes = (
{
code = "M Q R a j t u";
name = salt1;
}
);
copyright = "Copyright 2020 The Spartan Project Authors (https://github.com/bghryct/Spartan-MB)";
customParameters = (
{
name = fsType;
value = (
);
},
{
name = glyphOrder;
value = (
.notdef,
NULL,
CR,
space,
A,
Aacute,
Abreve,
Acircumflex,
Adieresis,
Agrave,
Amacron,
Aogonek,
Aring,
Atilde,
AE,
B,
C,
Cacute,
Ccaron,
Ccedilla,
Cdotaccent,
D,
Eth,
Dcaron,
Dcroat,
E,
Eacute,
Ecaron,
Ecircumflex,
Edieresis,
Edotaccent,
Egrave,
Emacron,
Eogonek,
F,
G,
Gbreve,
Gcommaaccent,
Gdotaccent,
H,
Hbar,
I,
Iacute,
Icircumflex,
Idieresis,
Idotaccent,
Igrave,
Imacron,
Iogonek,
J,
K,
Kcommaaccent,
L,
Lacute,
Lcaron,
Lcommaaccent,
Lslash,
M,
N,
Nacute,
Ncaron,
Ncommaaccent,
Eng,
Ntilde,
O,
Oacute,
Ocircumflex,
Odieresis,
Ograve,
Ohungarumlaut,
Omacron,
Oslash,
Otilde,
OE,
P,
Thorn,
Q,
R,
Racute,
Rcaron,
Rcommaaccent,
S,
Sacute,
Scaron,
Scedilla,
Scommaaccent,
Germandbls,
T,
Tbar,
Tcaron,
Tcedilla,
Tcommaaccent,
U,
Uacute,
Ucircumflex,
Udieresis,
Ugrave,
Uhungarumlaut,
Umacron,
Uogonek,
Uring,
V,
W,
Wacute,
Wcircumflex,
Wdieresis,
Wgrave,
X,
Y,
Yacute,
Ycircumflex,
Ydieresis,
Ygrave,
Z,
Zacute,
Zcaron,
Zdotaccent,
M.alt,
a,
aacute,
abreve,
acircumflex,
adieresis,
agrave,
amacron,
aogonek,
aring,
atilde,
ae,
b,
c,
cacute,
ccaron,
ccedilla,
cdotaccent,
d,
eth,
dcaron,
dcroat,
e,
eacute,
ecaron,
ecircumflex,
edieresis,
edotaccent,
egrave,
emacron,
eogonek,
f,
g,
gbreve,
gcommaaccent,
gdotaccent,
h,
hbar,
i,
idotless,
iacute,
icircumflex,
idieresis,
idotaccent,
igrave,
imacron,
iogonek,
j,
k,
kcommaaccent,
l,
lacute,
lcaron,
lcommaaccent,
lslash,
m,
n,
nacute,
ncaron,
ncommaaccent,
eng,
ntilde,
o,
oacute,
ocircumflex,
odieresis,
ograve,
ohungarumlaut,
omacron,
oslash,
otilde,
oe,
p,
thorn,
q,
r,
racute,
rcaron,
rcommaaccent,
s,
sacute,
scaron,
scedilla,
scommaaccent,
germandbls,
t,
tbar,
tcaron,
tcedilla,
tcommaaccent,
u,
uacute,
ucircumflex,
udieresis,

glyphs = (
{
color = 5;
glyphname = A;
lastChange = "2020-02-27 21:30:50 +0000";
layers = (
{
anchors = (
{
name = bottom;
position = "{835, 0}";
},
{
name = ogonek;
position = "{1711, 0}";
},
{
name = top;
position = "{835, 1650}";
}
);
hints = (
{
horizontal = 1;
place = "{1650, -20}";
target = down;
type = TopGhost;
},
{
horizontal = 1;
place = "{274, 386}";
type = Stem;
},
{
horizontal = 1;
place = "{0, 21}";
target = up;
type = BottomGhost;
}
);
layerId = "e62399bb-6e96-4ffb-a9ce-09aa31d52a36";
paths = (
{
closed = 1;
nodes = (
"433 0 LINE",
"532 274 LINE",
"1138 274 LINE",
"1237 0 LINE",
"1711 0 LINE",
"1039 1650 LINE",
"631 1650 LINE",
"-41 0 LINE"
);
},
{
closed = 1;
nodes = (
"835 1052 LINE",
"988 660 LINE",
"682 660 LINE"
);
}
);
width = 1670;
},
{
anchors = (
{
name = bottom;
position = "{829, 0}";
},
{
name = ogonek;
position = "{1578, 0}";
},
{
name = top;
position = "{829, 1650}";
}
);
hints = (
{
horizontal = 1;
place = "{1650, -20}";
target = down;
type = TopGhost;
},
{
horizontal = 1;
place = "{480, 180}";
type = Stem;
},
{
horizontal = 1;
place = "{0, 21}";
target = up;
type = BottomGhost;
}
);
layerId = "b7c3c141-dc0f-46db-926d-e180a8f83e45";
paths = (
{
closed = 1;
nodes = (
"301 0 LINE",
"484 480 LINE",
"1175 480 LINE",
"1358 0 LINE",
"1578 0 LINE",
"924 1650 LINE",
"735 1650 LINE",
"81 0 LINE"
);
},
{
closed = 1;
nodes = (
"829 1378 LINE",
"1105 660 LINE",
"554 660 LINE"
);
}
);
width = 1659;
},
{
anchors = (
{
name = bottom;
position = "{826, 0}";
},
{
name = ogonek;
position = "{1494, 0}";
},
{
name = top;
position = "{826, 1650}";
}
);
hints = (
{
horizontal = 1;
place = "{1650, -20}";
target = down;
type = TopGhost;
},
{
horizontal = 1;
place = "{610, 50}";
type = Stem;
},
{
horizontal = 1;
place = "{0, 21}";
target = up;
type = BottomGhost;
}
);
layerId = "ac360476-f880-49b3-af70-f23fb533da3d";
paths = (
{
closed = 1;
nodes = (
"218 0 LINE",
"454 610 LINE",
"1198 610 LINE",
"1434 0 LINE",
"1494 0 LINE",
"852 1650 LINE",
"800 1650 LINE",
"158 0 LINE"
);
},
{
closed = 1;
nodes = (
"826 1582 LINE",
"1179 660 LINE",
"473 660 LINE"
);
}
);
width = 1652;
}
);
leftKerningGroup = _A;
rightKerningGroup = _A1;
unicode = 0041;
},
{
color = 5;
glyphname = AE;
lastChange = "2020-02-27 21:30:50 +0000";
layers = (
{
hints = (
{
horizontal = 1;
place = "{274, 386}";
type = Stem;
},
{
horizontal = 1;
place = "{0, 21}";
target = up;
type = BottomGhost;
},
{
horizontal = 1;
place = "{1264, 386}";
type = Stem;
},
{
horizontal = 1;
place = "{634, 386}";
type = Stem;
},
{
horizontal = 1;
place = "{0, 386}";
type = Stem;
},
{
place = "{835, 440}";
type = Stem;
}
);
layerId = "e62399bb-6e96-4ffb-a9ce-09aa31d52a36";
paths = (
{
closed = 1;
nodes = (
"835 1052 LINE",
"835 660 LINE",
"682 660 LINE"
);
},
{
closed = 1;
nodes = (
"631 1650 LINE",
"-41 0 LINE",
"433 0 LINE",
"532 274 LINE",
"835 274 LINE",
"835 0 LINE",
"1811 0 LINE",
"1811 386 LINE",
"1275 386 LINE",
"1275 634 LINE",
"1787 634 LINE",
"1787 1020 LINE",
"1275 1020 LINE",
"1275 1264 LINE",
"1811 1264 LINE",
"1811 1650 LINE"
);
}
);
width = 1979;
},
{
hints = (
{
horizontal = 1;
place = "{481, 180}";
type = Stem;
},
{
horizontal = 1;
place = "{0, 21}";
target = up;
type = BottomGhost;
},
{
horizontal = 1;
place = "{1471, 180}";
type = Stem;
},
{
horizontal = 1;
place = "{737, 180}";
type = Stem;
},
{
horizontal = 1;
place = "{0, 180}";
type = Stem;
},
{
place = "{829, 204}";
type = Stem;
}
);
layerId = "b7c3c141-dc0f-46db-926d-e180a8f83e45";
paths = (
{
closed = 1;
nodes = (
"829 1378 LINE",
"829 661 LINE",
"554 661 LINE"
);
},
{
closed = 1;
nodes = (
"735 1651 LINE",
"81 0 LINE",
"301 0 LINE",
"484 481 LINE",
"829 481 LINE",
"829 0 LINE",
"1687 0 LINE",
"1687 180 LINE",
"1033 180 LINE",
"1033 737 LINE",
"1663 737 LINE",
"1663 917 LINE",
"1033 917 LINE",
"1033 1471 LINE",
"1687 1471 LINE",
"1687 1651 LINE"
);
}
);
width = 1860;
},
{
hints = (
{
horizontal = 1;
place = "{610, 50}";
type = Stem;
},
{
horizontal = 1;
place = "{0, 21}";
target = up;
type = BottomGhost;
},
{
horizontal = 1;
place = "{1600, 50}";
type = Stem;
},
{
horizontal = 1;
place = "{802, 50}";
type = Stem;
},
{
horizontal = 1;
place = "{0, 50}";
type = Stem;
},
{
place = "{826, 56}";
type = Stem;
}
);
layerId = "ac360476-f880-49b3-af70-f23fb533da3d";
paths = (
{
closed = 1;
nodes = (
"826 1582 LINE",
"826 660 LINE",
"473 660 LINE"
);
},
{
closed = 1;
nodes = (
"800 1650 LINE",
"158 0 LINE",
"218 0 LINE",
"454 610 LINE",
"826 610 LINE",
"826 0 LINE",
"1610 0 LINE",
"1610 50 LINE",
"882 50 LINE",
"882 802 LINE",
"1586 802 LINE",
"1586 852 LINE",
"882 852 LINE",
"882 1600 LINE",
"1610 1600 LINE",
"1610 1650 LINE"
);
}
);
width = 1787;
}
);
leftMetricsKey = A;
rightMetricsKey = E;
unicode = 00C6;
},
{
color = 5;
glyphname = B;
lastChange = "2020-02-27 21:30:50 +0000";
layers = (
{
anchors = (
{
name = bottom;
position = "{671, 0}";
},
{
name = top;
position = "{671, 1650}";
}
);
hints = (
{
horizontal = 1;
place = "{0, 338}";
type = Stem;
},
{
horizontal = 1;
place = "{654, 378}";
type = Stem;
},
{
horizontal = 1;
place = "{1312, 338}";
type = Stem;
},
{
place = "{98, 440}";
type = Stem;
},
{
place = "{738, 108}";
type = Stem;
},
{
place = "{1164, 146}";
type = Stem;
}
);
layerId = "e62399bb-6e96-4ffb-a9ce-09aa31d52a36";
paths = (
{
closed = 1;
nodes = (
"764 0 LINE SMOOTH",
"1096 0 OFFCURVE",
"1310 180 OFFCURVE",
"1310 478 CURVE SMOOTH",
"1310 701 OFFCURVE",
"1191 841 OFFCURVE",
"968 880 CURVE",
"1098 953 OFFCURVE",
"1164 1073 OFFCURVE",
"1164 1236 CURVE SMOOTH",
"1164 1516 OFFCURVE",
"971 1650 OFFCURVE",
"656 1650 CURVE SMOOTH",
"98 1650 LINE",
"98 0 LINE"
);
},
{
closed = 1;
nodes = (
"538 1312 LINE",
"548 1312 LINE SMOOTH",
"679 1312 OFFCURVE",
"738 1269 OFFCURVE",
"738 1176 CURVE SMOOTH",
"738 1082 OFFCURVE",
"672 1032 OFFCURVE",
"548 1032 CURVE SMOOTH",
"538 1032 LINE"
);
},
{
closed = 1;
nodes = (
"538 654 LINE",
"606 654 LINE SMOOTH",
"764 654 OFFCURVE",
"846 598 OFFCURVE",
"846 492 CURVE SMOOTH",
"846 386 OFFCURVE",
"771 338 OFFCURVE",
"606 338 CURVE SMOOTH",
"538 338 LINE"
);
}
);
width = 1342;
},
{
anchors = (
{
name = bottom;
position = "{653, 0}";
},
{
name = top;
position = "{653, 1650}";
}
);
hints = (
{
horizontal = 1;
place = "{0, 162}";
type = Stem;
},
{
horizontal = 1;
place = "{752, 179}";
type = Stem;
},
{
horizontal = 1;
place = "{1490, 160}";
type = Stem;
},
{
place = "{180, 204}";
type = Stem;
},
{
place = "{879, 132}";
type = Stem;
},
{
place = "{1075, 147}";
type = Stem;
}
);
layerId = "b7c3c141-dc0f-46db-926d-e180a8f83e45";
paths = (
{
closed = 1;
nodes = (
"699 0 LINE SMOOTH",
"1024 0 OFFCURVE",
"1222 167 OFFCURVE",
"1222 448 CURVE SMOOTH",
"1222 681 OFFCURVE",
"1086 829 OFFCURVE",
"845 864 CURVE",
"996 931 OFFCURVE",
"1075 1058 OFFCURVE",
"1075 1234 CURVE SMOOTH",
"1075 1505 OFFCURVE",
"887 1650 OFFCURVE",
"567 1650 CURVE SMOOTH",
"180 1650 LINE",
"180 0 LINE"
);
},
{
closed = 1;
nodes = (
"384 1490 LINE",
"526 1490 LINE SMOOTH",
"755 1490 OFFCURVE",
"879 1392 OFFCURVE",
"879 1211 CURVE SMOOTH",
"879 1031 OFFCURVE",
"753 931 OFFCURVE",
"526 931 CURVE SMOOTH",
"384 931 LINE"
);
},
{
closed = 1;
nodes = (
"384 752 LINE",
"638 752 LINE SMOOTH",
"874 752 OFFCURVE",
"1011 643 OFFCURVE",
"1011 454 CURVE SMOOTH",
"1011 266 OFFCURVE",
"878 162 OFFCURVE",
"638 162 CURVE SMOOTH",
"384 162 LINE"
);
}
);
width = 1305;
},
{
anchors = (
{
name = bottom;
position = "{641, 0}";
},
{
name = top;
position = "{641, 1650}";
}
);
hints = (
{
horizontal = 1;
place = "{0, 52}";
type = Stem;
},
{
horizontal = 1;
place = "{814, 53}";
type = Stem;
},
{
horizontal = 1;
place = "{1601, 49}";
type = Stem;
},
{
place = "{232, 56}";
type = Stem;
},
{
place = "{968, 52}";
type = Stem;
},
{
place = "{1114, 52}";
type = Stem;
}
);
layerId = "ac360476-f880-49b3-af70-f23fb533da3d";
paths = (
{
closed = 1;
nodes = (
"658 0 LINE SMOOTH",
"978 0 OFFCURVE",
"1166 159 OFFCURVE",
"1166 430 CURVE SMOOTH",
"1166 668 OFFCURVE",
"1021 822 OFFCURVE",
"768 854 CURVE",
"932 917 OFFCURVE",
"1020 1049 OFFCURVE",
"1020 1232 CURVE SMOOTH",
"1020 1498 OFFCURVE",
"835 1650 OFFCURVE",
"512 1650 CURVE SMOOTH",
"232 1650 LINE",
"232 0 LINE"
);
},
{
closed = 1;
nodes = (
"288 1601 LINE",
"512 1601 LINE SMOOTH",
"803 1601 OFFCURVE",
"968 1468 OFFCURVE",
"968 1232 CURVE SMOOTH",
"968 998 OFFCURVE",
"805 867 OFFCURVE",
"512 867 CURVE SMOOTH",
"288 867 LINE"
);
},
{
closed = 1;
nodes = (
"288 814 LINE",
"658 814 LINE SMOOTH",
"944 814 OFFCURVE",
"1114 671 OFFCURVE",
"1114 430 CURVE SMOOTH",
"1114 191 OFFCURVE",
"946 52 OFFCURVE",
"658 52 CURVE SMOOTH",
"288 52 LINE"
);
}
);
width = 1282;
}
);
unicode = 0042;
},
{
color = 5;
glyphname = C;
lastChange = "2020-02-27 21:30:50 +0000";
layers = (
{
anchors = (
{
name = bottom;
position = "{831, 0}";
},
{
name = cedilla;
position = "{871, 0}";
},
{
name = top;
position = "{831, 1650}";
}
);
hints = (
{
horizontal = 1;
place = "{-32, 432}";
type = Stem;
},
{
horizontal = 1;
place = "{1248, 432}";
type = Stem;
},
{
place = "{56, 476}";
type = Stem;
}
);
layerId = "e62399bb-6e96-4ffb-a9ce-09aa31d52a36";
paths = (
{
closed = 1;
nodes = (
"56 351 OFFCURVE",
"435 -32 OFFCURVE",
"951 -32 CURVE SMOOTH",
"1151 -32 OFFCURVE",
"1347 30 OFFCURVE",
"1472 114 CURVE",
"1262 474 LINE",
"1190 428 OFFCURVE",
"1084 400 OFFCURVE",
"980 400 CURVE SMOOTH",
"694 400 OFFCURVE",
"532 581 OFFCURVE",
"532 825 CURVE SMOOTH",
"532 1067 OFFCURVE",
"694 1248 OFFCURVE",
"980 1248 CURVE SMOOTH",
"1084 1248 OFFCURVE",
"1190 1220 OFFCURVE",
"1262 1174 CURVE",
"1472 1534 LINE",
"1347 1618 OFFCURVE",
"1151 1680 OFFCURVE",
"951 1680 CURVE SMOOTH",
"435 1680 OFFCURVE",
"56 1297 OFFCURVE",
"56 824 CURVE SMOOTH"
);
}
);
width = 1476;
},
{
anchors = (
{
name = bottom;
position = "{827, 0}";
},
{
name = cedilla;
position = "{922, 0}";
},
{
name = top;
position = "{902, 1650}";
}
);
hints = (
{
horizontal = 1;
place = "{-32, 201}";
type = Stem;
},
{
horizontal = 1;
place = "{1479, 201}";
type = Stem;
},
{
place = "{113, 222}";
type = Stem;
}
);
layerId = "b7c3c141-dc0f-46db-926d-e180a8f83e45";
paths = (
{
closed = 1;
nodes = (
"113 342 OFFCURVE",
"480 -32 OFFCURVE",
"983 -32 CURVE SMOOTH",
"1188 -32 OFFCURVE",
"1376 31 OFFCURVE",
"1512 134 CURVE",
"1410 300 LINE",
"1302 215 OFFCURVE",
"1154 169 OFFCURVE",
"996 169 CURVE SMOOTH",
"598 169 OFFCURVE",
"335 455 OFFCURVE",
"335 824 CURVE SMOOTH",
"335 1193 OFFCURVE",
"598 1479 OFFCURVE",
"996 1479 CURVE SMOOTH",
"1154 1479 OFFCURVE",
"1302 1433 OFFCURVE",
"1410 1348 CURVE",
"1512 1514 LINE",
"1376 1617 OFFCURVE",
"1188 1680 OFFCURVE",
"983 1680 CURVE SMOOTH",
"480 1680 OFFCURVE",
"113 1306 OFFCURVE",
"113 824 CURVE SMOOTH"
);
}
);
width = 1584;
},
{
anchors = (
{
name = bottom;
position = "{961, 0}";
},
{
name = cedilla;
position = "{1001, 0}";
},
{
name = top;
position = "{961, 1650}";
}
);
hints = (
{
horizontal = 1;
place = "{-32, 56}";
type = Stem;
},
{
horizontal = 1;
place = "{1624, 56}";
type = Stem;
},
{
place = "{148, 62}";
type = Stem;
}
);
layerId = "ac360476-f880-49b3-af70-f23fb533da3d";
paths = (
{
closed = 1;
nodes = (
"148 337 OFFCURVE",
"507 -32 OFFCURVE",
"1001 -32 CURVE SMOOTH",
"1210 -32 OFFCURVE",
"1392 31 OFFCURVE",
"1536 146 CURVE",
"1502 190 LINE",
"1370 82 OFFCURVE",
"1196 24 OFFCURVE",
"1005 24 CURVE SMOOTH",
"536 24 OFFCURVE",
"210 376 OFFCURVE",
"210 824 CURVE SMOOTH",
"210 1272 OFFCURVE",
"536 1624 OFFCURVE",
"1005 1624 CURVE SMOOTH",
"1196 1624 OFFCURVE",
"1370 1566 OFFCURVE",
"1502 1458 CURVE",
"1536 1502 LINE",
"1392 1617 OFFCURVE",
"1210 1680 OFFCURVE",
"1001 1680 CURVE SMOOTH",
"507 1680 OFFCURVE",
"148 1311 OFFCURVE",
"148 824 CURVE SMOOTH"
);
}
);
width = 1652;
}
);
unicode = 0043;
},
{
color = 5;
glyphname = D;
lastChange = "2020-02-27 21:30:47 +0000";
layers = (
{
anchors = (
{
name = bottom;
position = "{797, 0}";
},
{
name = center;
position = "{797, 825}";
},
{
name = top;
position = "{797, 1650}";
}
);
hints = (
{
horizontal = 1;
place = "{0, 394}";
type = Stem;
},
{
horizontal = 1;
place = "{1256, 394}";
type = Stem;
},
{
place = "{1060, 476}";
type = Stem;
},
{
place = "{196, 440}";
type = Stem;
}
);
layerId = "e62399bb-6e96-4ffb-a9ce-09aa31d52a36";
paths = (
{
closed = 1;
nodes = (
"704 0 LINE SMOOTH",
"1174 0 OFFCURVE",
"1536 360 OFFCURVE",
"1536 825 CURVE SMOOTH",
"1536 1290 OFFCURVE",
"1172 1650 OFFCURVE",
"704 1650 CURVE SMOOTH",
"196 1650 LINE",
"196 0 LINE"
);
},
{
closed = 1;
nodes = (
"636 1256 LINE",
"652 1256 LINE SMOOTH",
"891 1256 OFFCURVE",
"1060 1078 OFFCURVE",
"1060 825 CURVE SMOOTH",
"1060 572 OFFCURVE",
"891 394 OFFCURVE",
"652 394 CURVE SMOOTH",
"636 394 LINE"
);
}
);
width = 1594;
},
{
anchors = (
{
name = bottom;
position = "{815, 0}";
},
{
name = center;
position = "{815, 825}";
},
{
name = top;
position = "{815, 1650}";
}
);
hints = (
{
horizontal = 1;
place = "{0, 183}";
type = Stem;
},
{
horizontal = 1;
place = "{1467, 183}";
type = Stem;
},
{
place = "{1267, 217}";
type = Stem;
},
{
place = "{256, 204}";
type = Stem;
}
);
layerId = "b7c3c141-dc0f-46db-926d-e180a8f83e45";
paths = (
{
closed = 1;
nodes = (
"652 0 LINE SMOOTH",
"1122 0 OFFCURVE",
"1484 360 OFFCURVE",
"1484 825 CURVE SMOOTH",
"1484 1290 OFFCURVE",
"1121 1650 OFFCURVE",
"652 1650 CURVE SMOOTH",
"256 1650 LINE",
"256 0 LINE"
);
},
{
closed = 1;
nodes = (
"460 1467 LINE",
"632 1467 LINE SMOOTH",
"992 1467 OFFCURVE",
"1267 1190 OFFCURVE",
"1267 825 CURVE SMOOTH",
"1267 460 OFFCURVE",
"992 183 OFFCURVE",
"632 183 CURVE SMOOTH",
"460 183 LINE"
);
}
);
width = 1630;
},
{
anchors = (
{
name = bottom;
position = "{827, 0}";
},
{
name = center;
position = "{827, 825}";
},
{
name = top;
position = "{827, 1650}";
}
);
hints = (
{
horizontal = 1;
place = "{0, 50}";
type = Stem;
},
{
horizontal = 1;
place = "{1600, 50}";
type = Stem;
},
{
place = "{1397, 54}";
type = Stem;
},
{
place = "{293, 56}";
type = Stem;
}
);
layerId = "ac360476-f880-49b3-af70-f23fb533da3d";
paths = (
{
closed = 1;
nodes = (
"619 0 LINE SMOOTH",
"1089 0 OFFCURVE",
"1451 359 OFFCURVE",
"1451 825 CURVE SMOOTH",
"1451 1291 OFFCURVE",
"1089 1650 OFFCURVE",
"619 1650 CURVE SMOOTH",
"293 1650 LINE",
"293 0 LINE"
);
},
{
closed = 1;
nodes = (
"349 1600 LINE",
"619 1600 LINE SMOOTH",
"1055 1600 OFFCURVE",
"1397 1260 OFFCURVE",
"1397 825 CURVE SMOOTH",
"1397 390 OFFCURVE",
"1055 50 OFFCURVE",
"619 50 CURVE SMOOTH",
"349 50 LINE"
);
}
);
width = 1653;
}
);
rightKerningGroup = _A1;
unicode = 0044;
},
{
color = 5;
glyphname = Eth;
lastChange = "2020-02-27 21:30:47 +0000";
layers = (
{
components = (
{
alignment = -1;
name = D;
transform = "{1, 0, 0, 1, 51, 0}";
}
);
hints = (
{
horizontal = 1;
place = "{646, 358}";
type = Stem;
}
);
layerId = "e62399bb-6e96-4ffb-a9ce-09aa31d52a36";
paths = (
{
closed = 1;
nodes = (
"83 1004 LINE",
"83 646 LINE",
"841 646 LINE",
"841 1004 LINE"
);
}
);
width = 1645;
},
{
components = (
{
alignment = -1;
name = D;
transform = "{1, 0, 0, 1, 37.479, 0}";
}
);
hints = (
{
horizontal = 1;
place = "{742, 166}";
type = Stem;
}
);
layerId = "b7c3c141-dc0f-46db-926d-e180a8f83e45";
paths = (
{
closed = 1;
nodes = (
"129 908 LINE",
"129 742 LINE",
"887 742 LINE",
"887 908 LINE"
);
}
);
width = 1668;
},
{
components = (
{
alignment = -1;
name = D;
transform = "{1, 0, 0, 1, 29, 0}";
}
);
hints = (
{
horizontal = 1;
place = "{802, 46}";
type = Stem;
}
);
layerId = "ac360476-f880-49b3-af70-f23fb533da3d";
paths = (
{
closed = 1;
nodes = (
"158 848 LINE",
"158 802 LINE",
"916 802 LINE",
"916 848 LINE"
);
}
);
width = 1682;
}
);
rightKerningGroup = _A1;
unicode = 00D0;
},
{
color = 5;
glyphname = E;
lastChange = "2020-02-27 21:30:47 +0000";
layers = (
{
anchors = (
{
name = bottom;
position = "{670, 0}";
},
{
name = ogonek;
position = "{1172, 0}";
},
{
name = top;
position = "{670, 1650}";
}
);
hints = (
{
horizontal = 1;
place = "{1264, 386}";
type = Stem;
},
{
horizontal = 1;
place = "{634, 386}";
type = Stem;
},
{
horizontal = 1;
place = "{0, 386}";
type = Stem;
},
{
place = "{196, 440}";
type = Stem;
}
);
layerId = "e62399bb-6e96-4ffb-a9ce-09aa31d52a36";
paths = (
{
closed = 1;
nodes = (
"1172 0 LINE",
"1172 386 LINE",
"636 386 LINE",
"636 634 LINE",
"1148 634 LINE",
"1148 1020 LINE",
"636 1020 LINE",
"636 1264 LINE",
"1172 1264 LINE",
"1172 1650 LINE",
"196 1650 LINE",
"196 0 LINE"
);
}
);
width = 1340;
},
{
anchors = (
{
name = bottom;
position = "{692, 0}";
},
{
name = ogonek;
position = "{1114, 0}";
},
{
name = top;
position = "{692, 1650}";
}
);
hints = (
{
horizontal = 1;
place = "{1470, 180}";
type = Stem;
},
{
horizontal = 1;
place = "{737, 180}";
type = Stem;
},
{
horizontal = 1;
place = "{0, 180}";
type = Stem;
},
{
place = "{256, 204}";
type = Stem;
}
);
layerId = "b7c3c141-dc0f-46db-926d-e180a8f83e45";
paths = (
{
closed = 1;
nodes = (
"1114 0 LINE",
"1114 180 LINE",
"460 180 LINE",
"460 737 LINE",
"1090 737 LINE",
"1090 917 LINE",
"460 917 LINE",
"460 1470 LINE",
"1114 1470 LINE",
"1114 1650 LINE",
"256 1650 LINE",
"256 0 LINE"
);
}
);
width = 1287;
},
{
anchors = (
{
name = bottom;
position = "{706, 0}";
},
{
name = ogonek;
position = "{1077, 0}";
},
{
name = top;
position = "{706, 1650}";
}
);
hints = (
{
horizontal = 1;
place = "{1600, 50}";
type = Stem;
},
{
horizontal = 1;
place = "{802, 50}";
type = Stem;
},
{
horizontal = 1;
place = "{0, 50}";
type = Stem;
},
{
place = "{293, 56}";
type = Stem;
}
);
layerId = "ac360476-f880-49b3-af70-f23fb533da3d";
paths = (
{
closed = 1;
nodes = (
"1077 0 LINE",
"1077 50 LINE",
"349 50 LINE",
"349 802 LINE",
"1053 802 LINE",
"1053 852 LINE",
"349 852 LINE",
"349 1600 LINE",
"1077 1600 LINE",
"1077 1650 LINE",
"293 1650 LINE",
"293 0 LINE"
);
}
);
width = 1254;
}
);
rightKerningGroup = _E;
unicode = 0045;
},
{
color = 5;
glyphname = F;
lastChange = "2020-02-27 21:30:41 +0000";
layers = (
{
anchors = (
{
name = bottom;
position = "{630, 0}";
},
{
name = top;
position = "{630, 1650}";
}
);
hints = (
{
horizontal = 1;
place = "{1264, 386}";
type = Stem;
},
{
place = "{196, 440}";
type = Stem;
},
{
horizontal = 1;
place = "{634, 386}";
type = Stem;
},
{
horizontal = 1;
place = "{0, 21}";
target = up;
type = BottomGhost;
}
);
layerId = "e62399bb-6e96-4ffb-a9ce-09aa31d52a36";
paths = (
{
closed = 1;
nodes = (
"196 1650 LINE",
"196 0 LINE",
"636 0 LINE",
"636 634 LINE",
"1140 634 LINE",
"1140 1020 LINE",
"636 1020 LINE",
"636 1264 LINE",
"1184 1264 LINE",
"1184 1650 LINE"
);
}
);
width = 1260;
},
{
anchors = (
{
name = bottom;
position = "{624, 0}";
},
{
name = top;
position = "{624, 1650}";
}
);
hints = (
{
horizontal = 1;
place = "{1470, 180}";
type = Stem;
},
{
place = "{256, 204}";
type = Stem;
},
{
horizontal = 1;
place = "{736, 180}";
type = Stem;
},
{
horizontal = 1;
place = "{0, 21}";
target = up;
type = BottomGhost;
}
);
layerId = "b7c3c141-dc0f-46db-926d-e180a8f83e45";
paths = (
{
closed = 1;
nodes = (
"256 1650 LINE",
"256 0 LINE",
"460 0 LINE",
"460 736 LINE",
"1073 736 LINE",
"1073 916 LINE",
"460 916 LINE",
"460 1470 LINE",
"1119 1470 LINE",
"1119 1650 LINE"
);
}
);
width = 1247;
},
{
anchors = (
{
name = bottom;
position = "{620, 0}";
},
{
name = top;
position = "{620, 1650}";
}
);
hints = (
{
horizontal = 1;
place = "{1600, 50}";
type = Stem;
},
{
place = "{293, 56}";
type = Stem;
},
{
horizontal = 1;
place = "{802, 50}";
type = Stem;
},
{
horizontal = 1;
place = "{0, 21}";
target = up;
type = BottomGhost;
}
);
layerId = "ac360476-f880-49b3-af70-f23fb533da3d";
paths = (
{
closed = 1;
nodes = (
"293 1650 LINE",
"293 0 LINE",
"349 0 LINE",
"349 802 LINE",
"1031 802 LINE",
"1031 852 LINE",
"349 852 LINE",
"349 1600 LINE",
"1077 1600 LINE",
"1077 1650 LINE"
);
}
);
width = 1239;
}
);
rightKerningGroup = _A1;
unicode = 0046;
},
{
color = 5;
glyphname = G;
lastChange = "2020-02-27 21:30:41 +0000";
layers = (
{
anchors = (
{
name = bottom;
position = "{842, 0}";
},
{
name = top;
position = "{842, 1650}";
}
);
hints = (
{
horizontal = 1;
place = "{-32, 406}";
type = Stem;
},
{
horizontal = 1;
place = "{614, 338}";
type = Stem;
},
{
horizontal = 1;
place = "{1282, 398}";
type = Stem;
},
{
place = "{64, 476}";
type = Stem;
},
{
place = "{1183, 448}";
type = Stem;
}
);
layerId = "e62399bb-6e96-4ffb-a9ce-09aa31d52a36";
paths = (
{
closed = 1;
nodes = (
"1279 -32 OFFCURVE",
"1631 225 OFFCURVE",
"1631 699 CURVE SMOOTH",
"1631 952 LINE",
"869 952 LINE",
"869 614 LINE",
"1183 614 LINE",
"1183 612 LINE SMOOTH",
"1183 481 OFFCURVE",
"1057 374 OFFCURVE",
"902 374 CURVE SMOOTH",
"682 374 OFFCURVE",
"540 581 OFFCURVE",
"540 825 CURVE SMOOTH",
"540 1067 OFFCURVE",
"672 1282 OFFCURVE",
"932 1282 CURVE SMOOTH",
"1054 1282 OFFCURVE",
"1173 1234 OFFCURVE",
"1239 1158 CURVE",
"1499 1421 LINE",
"1327 1582 OFFCURVE",
"1143 1680 OFFCURVE",
"898 1680 CURVE SMOOTH",
"413 1680 OFFCURVE",
"64 1297 OFFCURVE",
"64 824 CURVE SMOOTH",
"64 351 OFFCURVE",
"409 -32 OFFCURVE",
"888 -32 CURVE SMOOTH"
);
}
);
width = 1697;
},
{
anchors = (
{
name = bottom;
position = "{950, 0}";
},
{
name = top;
position = "{950, 1650}";
}
);
hints = (
{
horizontal = 1;
place = "{-32, 187}";
type = Stem;
},
{
horizontal = 1;
place = "{680, 162}";
type = Stem;
},
{
horizontal = 1;
place = "{1496, 184}";
type = Stem;
},
{
place = "{151, 219}";
type = Stem;
},
{
place = "{1510, 208}";
type = Stem;
}
);
layerId = "b7c3c141-dc0f-46db-926d-e180a8f83e45";
paths = (
{
closed = 1;
nodes = (
"1332 -32 OFFCURVE",
"1718 198 OFFCURVE",
"1718 689 CURVE SMOOTH",
"1718 842 LINE",
"955 842 LINE",
"955 680 LINE",
"1510 680 LINE",
"1510 633 LINE SMOOTH",
"1510 343 OFFCURVE",
"1243 155 OFFCURVE",
"972 155 CURVE SMOOTH",
"627 155 OFFCURVE",
"370 456 OFFCURVE",
"370 824 CURVE SMOOTH",
"370 1171 OFFCURVE",
"594 1496 OFFCURVE",
"986 1496 CURVE SMOOTH",
"1183 1496 OFFCURVE",
"1355 1413 OFFCURVE",
"1461 1288 CURVE",
"1590 1407 LINE",
"1442 1570 OFFCURVE",
"1241 1680 OFFCURVE",
"976 1680 CURVE SMOOTH",
"464 1680 OFFCURVE",
"151 1269 OFFCURVE",
"151 823 CURVE SMOOTH",
"151 350 OFFCURVE",
"501 -32 OFFCURVE",
"969 -32 CURVE SMOOTH"
);
}
);
width = 1857;
},
{
anchors = (
{
name = bottom;
position = "{1000, 0}";
},
{
name = top;
position = "{1000, 1650}";
}
);
hints = (
{
horizontal = 1;
place = "{-32, 50}";
type = Stem;
},
{
horizontal = 1;
place = "{722, 52}";
type = Stem;
},
{
horizontal = 1;
place = "{1630, 50}";
type = Stem;
},
{
place = "{205, 58}";
type = Stem;
},
{
place = "{1715, 58}";
type = Stem;
}
);
layerId = "ac360476-f880-49b3-af70-f23fb533da3d";
paths = (
{
closed = 1;
nodes = (
"1365 -32 OFFCURVE",
"1773 181 OFFCURVE",
"1773 684 CURVE SMOOTH",
"1773 774 LINE",
"1009 774 LINE",
"1009 722 LINE",
"1715 722 LINE",
"1715 646 LINE SMOOTH",
"1715 257 OFFCURVE",
"1359 18 OFFCURVE",
"1015 18 CURVE SMOOTH",
"593 18 OFFCURVE",
"263 378 OFFCURVE",
"263 824 CURVE SMOOTH",
"263 1236 OFFCURVE",
"545 1630 OFFCURVE",
"1019 1630 CURVE SMOOTH",
"1263 1630 OFFCURVE",
"1469 1526 OFFCURVE",
"1600 1369 CURVE",
"1647 1398 LINE",
"1514 1562 OFFCURVE",
"1302 1680 OFFCURVE",
"1024 1680 CURVE SMOOTH",
"496 1680 OFFCURVE",
"205 1252 OFFCURVE",
"205 823 CURVE SMOOTH",
"205 350 OFFCURVE",
"559 -32 OFFCURVE",
"1020 -32 CURVE SMOOTH"
);
}
);
width = 1958;
}
);
rightKerningGroup = _A1;
unicode = 0047;
},
{
color = 5;
glyphname = H;
lastChange = "2020-02-27 21:29:52 +0000";
layers = (
{
anchors = (
{
name = bottom;
position = "{848, 0}";
},
{
name = center;
position = "{848, 825}";
},
{
name = top;
position = "{848, 1650}";
}
);
hints = (
{
horizontal = 1;
place = "{634, 386}";
type = Stem;
},
{
place = "{196, 440}";
type = Stem;
},
{
place = "{1060, 440}";
type = Stem;
},
{
horizontal = 1;
place = "{1650, -20}";
target = down;
type = TopGhost;
},
{
horizontal = 1;
place = "{0, 21}";
target = up;
type = BottomGhost;
}
);
layerId = "e62399bb-6e96-4ffb-a9ce-09aa31d52a36";
paths = (
{
closed = 1;
nodes = (
"636 0 LINE",
"636 634 LINE",
"1060 634 LINE",
"1060 0 LINE",
"1500 0 LINE",
"1500 1650 LINE",
"1060 1650 LINE",
"1060 1020 LINE",
"636 1020 LINE",
"636 1650 LINE",
"196 1650 LINE",
"196 0 LINE"
);
}
);
width = 1696;
},
{
anchors = (
{
name = bottom;
position = "{867, 0}";
},
{
name = center;
position = "{867, 825}";
},
{
name = top;
position = "{867, 1650}";
}
);
hints = (
{
horizontal = 1;
place = "{737, 180}";
type = Stem;
},
{
place = "{256, 204}";
type = Stem;
},
{
place = "{1274, 204}";
type = Stem;
},
{
horizontal = 1;
place = "{1650, -20}";
target = down;
type = TopGhost;
},
{
horizontal = 1;
place = "{0, 21}";
target = up;
type = BottomGhost;
}
);
layerId = "b7c3c141-dc0f-46db-926d-e180a8f83e45";
paths = (
{
closed = 1;
nodes = (
"460 0 LINE",
"460 737 LINE",
"1274 737 LINE",
"1274 0 LINE",
"1478 0 LINE",
"1478 1650 LINE",
"1274 1650 LINE",
"1274 917 LINE",
"460 917 LINE",
"460 1650 LINE",
"256 1650 LINE",
"256 0 LINE"
);
}
);
width = 1734;
},
{
anchors = (
{
name = bottom;
position = "{879, 0}";
},
{
name = center;
position = "{879, 825}";
},
{
name = top;
position = "{879, 1650}";
}
);
hints = (
{
horizontal = 1;
place = "{802, 50}";
type = Stem;
},
{
place = "{293, 56}";
type = Stem;
},
{
place = "{1409, 56}";
type = Stem;
},
{
horizontal = 1;
place = "{1650, -20}";
target = down;
type = TopGhost;
},
{
horizontal = 1;
place = "{0, 21}";
target = up;
type = BottomGhost;
}
);
layerId = "ac360476-f880-49b3-af70-f23fb533da3d";
paths = (
{
closed = 1;
nodes = (
"349 0 LINE",
"349 802 LINE",
"1409 802 LINE",
"1409 0 LINE",
"1465 0 LINE",
"1465 1650 LINE",
"1409 1650 LINE",
"1409 852 LINE",
"349 852 LINE",
"349 1650 LINE",
"293 1650 LINE",
"293 0 LINE"
);
}
);
width = 1758;
}
);
rightKerningGroup = _A1;
unicode = 0048;
},
{
color = 5;
glyphname = Hbar;
lastChange = "2020-02-27 21:29:52 +0000";
layers = (
{
hints = (
{
horizontal = 1;
place = "{580, 294}";
type = Stem;
},
{
horizontal = 1;
place = "{1064, 294}";
type = Stem;
},
{
place = "{196, 440}";
type = Stem;
},
{
place = "{1060, 440}";
type = Stem;
},
{
horizontal = 1;
place = "{0, 21}";
target = up;
type = BottomGhost;
},
{
horizontal = 1;
place = "{1650, -20}";
target = down;
type = TopGhost;
}
);
layerId = "e62399bb-6e96-4ffb-a9ce-09aa31d52a36";
paths = (
{
closed = 1;
nodes = (
"636 0 LINE",
"636 580 LINE",
"1060 580 LINE",
"1060 0 LINE",
"1500 0 LINE",
"1500 1650 LINE",
"1060 1650 LINE",
"1060 874 LINE",
"636 874 LINE",
"636 1650 LINE",
"196 1650 LINE",
"196 0 LINE"
);
},
{
closed = 1;
nodes = (
"1630 1064 LINE",
"1630 1358 LINE",
"66 1358 LINE",
"66 1064 LINE"
);
}
);
width = 1696;
},
{
hints = (
{
horizontal = 1;
place = "{698, 144}";
type = Stem;
},
{
horizontal = 1;
place = "{1068, 144}";
type = Stem;
},
{
place = "{256, 204}";
type = Stem;
},
{
place = "{1274, 204}";
type = Stem;
},
{
horizontal = 1;
place = "{0, 21}";
target = up;
type = BottomGhost;
},
{
horizontal = 1;
place = "{1650, -20}";
target = down;
type = TopGhost;
}
);
layerId = "b7c3c141-dc0f-46db-926d-e180a8f83e45";
paths = (
{
closed = 1;
nodes = (
"460 0 LINE",
"460 698 LINE",
"1274 698 LINE",
"1274 0 LINE",
"1478 0 LINE",
"1478 1650 LINE",
"1274 1650 LINE",
"1274 842 LINE",
"460 842 LINE",
"460 1650 LINE",
"256 1650 LINE",
"256 0 LINE"
);
},
{
closed = 1;
nodes = (
"1611 1068 LINE",
"1611 1212 LINE",
"123 1212 LINE",
"123 1068 LINE"
);
}
);
width = 1733;
},
{
hints = (
{
horizontal = 1;
place = "{772, 50}";
type = Stem;
},
{
horizontal = 1;
place = "{1070, 50}";
type = Stem;
},
{
place = "{293, 56}";
type = Stem;
},
{
place = "{1409, 56}";
type = Stem;
},
{
horizontal = 1;
place = "{0, 21}";
target = up;
type = BottomGhost;
},
{
horizontal = 1;
place = "{1650, -20}";
target = down;
type = TopGhost;
}
);
layerId = "ac360476-f880-49b3-af70-f23fb533da3d";
paths = (
{
closed = 1;
nodes = (
"349 0 LINE",
"349 772 LINE",
"1409 772 LINE",
"1409 0 LINE",
"1465 0 LINE",
"1465 1650 LINE",
"1409 1650 LINE",
"1409 822 LINE",
"349 822 LINE",
"349 1650 LINE",
"293 1650 LINE",
"293 0 LINE"
);
},
{
closed = 1;
nodes = (
"1600 1070 LINE",
"1600 1120 LINE",
"158 1120 LINE",
"158 1070 LINE"
);
}
);
width = 1758;
}
);
unicode = 0126;
},
{
color = 5;
glyphname = I;
lastChange = "2020-02-27 21:29:52 +0000";
layers = (
{
anchors = (
{
name = bottom;
position = "{416, 0}";
},
{
name = ogonek;
position = "{636, 0}";
},
{
name = top;
position = "{416, 1650}";
}
);
hints = (
{
place = "{196, 440}";
type = Stem;
},
{
horizontal = 1;
place = "{0, 21}";
target = up;
type = BottomGhost;
},
{
horizontal = 1;
place = "{1650, -20}";
target = down;
type = TopGhost;
}
);
layerId = "e62399bb-6e96-4ffb-a9ce-09aa31d52a36";
paths = (
{
closed = 1;
nodes = (
"636 0 LINE",
"636 1650 LINE",
"196 1650 LINE",
"196 0 LINE"
);
}
);
width = 832;
},
{
anchors = (
{
name = bottom;
position = "{357, 0}";
},
{
name = ogonek;
position = "{459, 0}";
},
{
name = top;
position = "{357, 1650}";
}
);
hints = (
{
place = "{255, 204}";
type = Stem;
},
{
horizontal = 1;
place = "{0, 21}";
target = up;
type = BottomGhost;
},
{
horizontal = 1;
place = "{1650, -20}";
target = down;
type = TopGhost;
}
);
layerId = "b7c3c141-dc0f-46db-926d-e180a8f83e45";
paths = (
{
closed = 1;
nodes = (
"459 0 LINE",
"459 1650 LINE",
"255 1650 LINE",
"255 0 LINE"
);
}
);
width = 714;
},
{
anchors = (
{
name = bottom;
position = "{321, 0}";
},
{
name = ogonek;
position = "{349, 0}";
},
{
name = top;
position = "{321, 1650}";
}
);
hints = (
{
place = "{293, 56}";
type = Stem;
},
{
horizontal = 1;
place = "{0, 21}";
target = up;
type = BottomGhost;
},
{
horizontal = 1;
place = "{1650, -20}";
target = down;
type = TopGhost;
}
);
layerId = "ac360476-f880-49b3-af70-f23fb533da3d";
paths = (
{
closed = 1;
nodes = (
"349 0 LINE",
"349 1650 LINE",
"293 1650 LINE",
"293 0 LINE"
);
}
);
width = 642;
}
);
leftKerningGroup = _I;
rightKerningGroup = _A1;
unicode = 0049;
},
{
color = 5;
glyphname = J;
lastChange = "2020-02-27 21:29:52 +0000";
layers = (
{
anchors = (
{
name = bottom;
position = "{422, -32}";
},
{
name = top;
position = "{699, 1650}";
}
);
layerId = "e62399bb-6e96-4ffb-a9ce-09aa31d52a36";
paths = (
{
closed = 1;
nodes = (
"722 -32 OFFCURVE",
"908 148 OFFCURVE",
"908 464 CURVE SMOOTH",
"908 1650 LINE",
"468 1650 LINE",
"468 574 LINE SMOOTH",
"468 462 OFFCURVE",
"417 390 OFFCURVE",
"338 390 CURVE SMOOTH",
"293 390 OFFCURVE",
"230 413 OFFCURVE",
"170 472 CURVE",
"-70 208 LINE",
"71 41 OFFCURVE",
"218 -32 OFFCURVE",
"415 -32 CURVE SMOOTH"
);
}
);
width = 1085;
},
{
anchors = (
{
name = bottom;
position = "{515, -12}";
},
{
name = top;
position = "{668, 1650}";
}
);
layerId = "b7c3c141-dc0f-46db-926d-e180a8f83e45";
paths = (
{
closed = 1;
nodes = (
"817 -32 OFFCURVE",
"1001 151 OFFCURVE",
"1001 464 CURVE SMOOTH",
"1001 1650 LINE",
"797 1650 LINE",
"797 521 LINE SMOOTH",
"797 295 OFFCURVE",
"681 163 OFFCURVE",
"482 163 CURVE SMOOTH",
"380 163 OFFCURVE",
"288 201 OFFCURVE",
"207 285 CURVE",
"94 154 LINE",
"214 25 OFFCURVE",
"342 -32 OFFCURVE",
"508 -32 CURVE SMOOTH"
);
}
);
width = 1239;
},
{
anchors = (
{
name = bottom;
position = "{573, 0}";
},
{
name = top;
position = "{648, 1650}";
}
);
layerId = "ac360476-f880-49b3-af70-f23fb533da3d";
paths = (
{
closed = 1;
nodes = (
"876 -32 OFFCURVE",
"1059 153 OFFCURVE",
"1059 464 CURVE SMOOTH",
"1059 1650 LINE",
"1003 1650 LINE",
"1003 488 LINE SMOOTH",
"1003 190 OFFCURVE",
"847 20 OFFCURVE",
"573 20 CURVE SMOOTH",
"435 20 OFFCURVE",
"324 68 OFFCURVE",
"231 167 CURVE",
"197 120 LINE",
"304 15 OFFCURVE",
"419 -32 OFFCURVE",
"567 -32 CURVE SMOOTH"
);
}
);
width = 1335;
}
);
rightKerningGroup = _A1;
unicode = 004A;
},
{
color = 5;
glyphname = K;
lastChange = "2020-02-27 21:29:52 +0000";
layers = (
{
anchors = (
{
name = bottom;
position = "{865, 0}";
},
{
name = top;
position = "{865, 1650}";
}
);
hints = (
{
place = "{196, 440}";
type = Stem;
},
{
horizontal = 1;
place = "{1650, -20}";
target = down;
type = TopGhost;
},
{
horizontal = 1;
place = "{0, 21}";
target = up;
type = BottomGhost;
}
);
layerId = "e62399bb-6e96-4ffb-a9ce-09aa31d52a36";
paths = (
{
closed = 1;
nodes = (
"636 0 LINE",
"636 662 LINE",
"1188 0 LINE",
"1794 0 LINE",
"1044 872 LINE",
"1684 1650 LINE",
"1150 1650 LINE",
"636 1008 LINE",
"636 1650 LINE",
"196 1650 LINE",
"196 0 LINE"
);
}
);
width = 1740;
},
{
anchors = (
{
name = bottom;
position = "{781, 0}";
},
{
name = top;
position = "{782, 1650}";
}
);
hints = (
{
place = "{256, 204}";
type = Stem;
},
{
horizontal = 1;
place = "{1650, -20}";
target = down;
type = TopGhost;
},
{
horizontal = 1;
place = "{0, 21}";
target = up;
type = BottomGhost;
}
);
layerId = "b7c3c141-dc0f-46db-926d-e180a8f83e45";
paths = (
{
closed = 1;
nodes = (
"460 0 LINE",
"460 733 LINE",
"1217 0 LINE",
"1501 0 LINE",
"641 840 LINE",
"1413 1650 LINE",
"1159 1650 LINE",
"460 915 LINE",
"460 1650 LINE",
"256 1650 LINE",
"256 0 LINE"
);
}
);
width = 1549;
},
{
anchors = (
{
name = bottom;
position = "{731, 0}";
},
{
name = top;
position = "{731, 1650}";
}
);
hints = (
{
place = "{293, 56}";
type = Stem;
},
{
horizontal = 1;
place = "{1650, -20}";
target = down;
type = TopGhost;
},
{
horizontal = 1;
place = "{0, 21}";
target = up;
type = BottomGhost;
}
);
layerId = "ac360476-f880-49b3-af70-f23fb533da3d";
paths = (
{
closed = 1;
nodes = (
"349 0 LINE",
"349 778 LINE",
"1235 0 LINE",
"1318 0 LINE",
"389 820 LINE",
"1243 1650 LINE",
"1165 1650 LINE",
"349 856 LINE",
"349 1650 LINE",
"293 1650 LINE",
"293 0 LINE"
);
}
);
width = 1429;
}
);
rightKerningGroup = _A1;
unicode = 004B;
},
{
color = 5;
glyphname = L;
lastChange = "2020-02-27 21:29:52 +0000";
layers = (
{
anchors = (
{
name = bottom;
position = "{722, 0}";
},
{
name = center;
position = "{579, 825}";
},
{
name = top;
position = "{591, 1650}";
},
{
name = topright;
position = "{1137, 1650}";
}
);
hints = (
{
horizontal = 1;
place = "{0, 386}";
type = Stem;
},
{
place = "{196, 440}";
type = Stem;
},
{
horizontal = 1;
place = "{1650, -20}";
target = down;
type = TopGhost;
}
);
layerId = "e62399bb-6e96-4ffb-a9ce-09aa31d52a36";
paths = (
{
closed = 1;
nodes = (
"1168 0 LINE",
"1168 386 LINE",
"636 386 LINE",
"636 1650 LINE",
"196 1650 LINE",
"196 0 LINE"
);
}
);
width = 1157;
},
{
anchors = (
{
name = bottom;
position = "{661, 0}";
},
{
name = center;
position = "{606, 825}";
},
{
name = top;
position = "{602, 1650}";
},
{
name = topright;
position = "{1191, 1650}";
}
);
hints = (
{
horizontal = 1;
place = "{0, 180}";
type = Stem;
},
{
place = "{256, 204}";
type = Stem;
},
{
horizontal = 1;
place = "{1650, -20}";
target = down;
type = TopGhost;
}
);
layerId = "b7c3c141-dc0f-46db-926d-e180a8f83e45";
paths = (
{
closed = 1;
nodes = (
"1122 0 LINE",
"1122 180 LINE",
"460 180 LINE",
"460 1650 LINE",
"256 1650 LINE",
"256 0 LINE"
);
}
);
width = 1211;
},
{
anchors = (
{
name = bottom;
position = "{623, 0}";
},
{
name = center;
position = "{623, 825}";
},
{
name = top;
position = "{543, 1650}";
},
{
name = topright;
position = "{1225, 1650}";
}
);
hints = (
{
horizontal = 1;
place = "{0, 50}";
type = Stem;
},
{
place = "{293, 56}";
type = Stem;
},
{
horizontal = 1;
place = "{1650, -20}";
target = down;
type = TopGhost;
}
);
layerId = "ac360476-f880-49b3-af70-f23fb533da3d";
paths = (
{
closed = 1;
nodes = (
"1093 0 LINE",
"1093 50 LINE",
"349 50 LINE",
"349 1650 LINE",
"293 1650 LINE",
"293 0 LINE"
);
}
);
width = 1245;
}
);
rightKerningGroup = _L;
unicode = 004C;
},
{
color = 5;
glyphname = Lslash;
lastChange = "2020-02-27 21:29:52 +0000";
layers = (
{
components = (
{
alignment = -1;
name = L;
transform = "{1, 0, 0, 1, 45, 0}";
}
);
layerId = "e62399bb-6e96-4ffb-a9ce-09aa31d52a36";
paths = (
{
closed = 1;
nodes = (
"889 1104 LINE",
"889 1462 LINE",
"93 836 LINE",
"93 478 LINE"
);
}
);
width = 1202;
},
{
components = (
{
alignment = -1;
name = L;
transform = "{1, 0, 0, 1, 37, 0}";
}
);
layerId = "b7c3c141-dc0f-46db-926d-e180a8f83e45";
paths = (
{
closed = 1;
nodes = (
"710 1013 LINE",
"710 1179 LINE",
"133 725 LINE",
"133 559 LINE"
);
}
);
width = 1247;
},
{
components = (
{
alignment = -1;
name = L;
transform = "{1, 0, 0, 1, 33, 0}";
}
);
layerId = "ac360476-f880-49b3-af70-f23fb533da3d";
paths = (
{
closed = 1;
nodes = (
"598 956 LINE",
"598 1002 LINE",
"158 656 LINE",
"158 610 LINE"
);
}
);
width = 1276;
}
);
rightKerningGroup = _L;
unicode = 0141;
},
{
color = 5;
glyphname = M;
lastChange = "2020-02-27 21:29:52 +0000";
layers = (
{
anchors = (
{
name = bottom;
position = "{1061, 0}";
},
{
name = top;
position = "{1061, 1650}";
}
);
hints = (
{
horizontal = 1;
place = "{0, 21}";
target = up;
type = BottomGhost;
},
{
horizontal = 1;
place = "{1650, -20}";
target = down;
type = TopGhost;
}
);
layerId = "e62399bb-6e96-4ffb-a9ce-09aa31d52a36";
paths = (
{
closed = 1;
nodes = (
"571 0 LINE",
"619 866 LINE",
"931 0 LINE",
"1191 0 LINE",
"1503 866 LINE",
"1551 0 LINE",
"1991 0 LINE",
"1861 1650 LINE",
"1393 1650 LINE",
"1061 794 LINE",
"729 1650 LINE",
"261 1650 LINE",
"131 0 LINE"
);
}
);
width = 2122;
},
{
anchors = (
{
name = bottom;
position = "{1039, 82}";
},
{
name = top;
position = "{1039, 1650}";
}
);
hints = (
{
horizontal = 1;
place = "{0, 21}";
target = up;
type = BottomGhost;
},
{
horizontal = 1;
place = "{1650, -20}";
target = down;
type = TopGhost;
}
);
layerId = "b7c3c141-dc0f-46db-926d-e180a8f83e45";
paths = (
{
closed = 1;
nodes = (
"370 0 LINE",
"528 1277 LINE",
"971 82 LINE",
"1108 82 LINE",
"1550 1277 LINE",
"1709 0 LINE",
"1913 0 LINE",
"1714 1650 LINE",
"1496 1650 LINE",
"1039 438 LINE",
"582 1650 LINE",
"364 1650 LINE",
"166 0 LINE"
);
}
);
width = 2079;
},
{
anchors = (
{
name = bottom;
position = "{1027, 134}";
},
{
name = top;
position = "{1027, 1650}";
}
);
hints = (
{
horizontal = 1;
place = "{0, 21}";
target = up;
type = BottomGhost;
},
{
horizontal = 1;
place = "{1650, -20}";
target = down;
type = TopGhost;
}
);
layerId = "ac360476-f880-49b3-af70-f23fb533da3d";
paths = (
{
closed = 1;
nodes = (
"245 0 LINE",
"473 1534 LINE",
"997 134 LINE",
"1057 134 LINE",
"1581 1534 LINE",
"1809 0 LINE",
"1865 0 LINE",
"1623 1650 LINE",
"1563 1650 LINE",
"1027 214 LINE",
"491 1650 LINE",
"431 1650 LINE",
"189 0 LINE"
);
}
);
width = 2054;
}
);
rightKerningGroup = _A1;
unicode = 004D;
},
{
color = 5;
glyphname = N;
lastChange = "2020-02-27 21:29:52 +0000";
layers = (
{
anchors = (
{
name = bottom;
position = "{932, 0}";
},
{
name = top;
position = "{932, 1650}";
}
);
hints = (
{
place = "{196, 440}";
type = Stem;
},
{
place = "{1228, 440}";
type = Stem;
},
{
horizontal = 1;
place = "{0, 21}";
target = up;
type = BottomGhost;
},
{
horizontal = 1;
place = "{1650, -20}";
target = down;
type = TopGhost;
}
);
layerId = "e62399bb-6e96-4ffb-a9ce-09aa31d52a36";
paths = (
{
closed = 1;
nodes = (
"636 0 LINE",
"636 920 LINE",
"1228 0 LINE",
"1668 0 LINE",
"1668 1650 LINE",
"1228 1650 LINE",
"1228 730 LINE",
"636 1650 LINE",
"196 1650 LINE",
"196 0 LINE"
);
}
);
width = 1864;
},
{
anchors = (
{
name = bottom;
position = "{876, 0}";
},
{
name = top;
position = "{876, 1650}";
}
);
hints = (
{
place = "{255, 204}";
type = Stem;
},
{
place = "{1293, 204}";
type = Stem;
},
{
horizontal = 1;
place = "{0, 21}";
target = up;
type = BottomGhost;
},
{
horizontal = 1;
place = "{1650, -20}";
target = down;
type = TopGhost;
}
);
layerId = "b7c3c141-dc0f-46db-926d-e180a8f83e45";
paths = (
{
closed = 1;
nodes = (
"459 0 LINE",
"459 1305 LINE",
"1293 0 LINE",
"1497 0 LINE",
"1497 1650 LINE",
"1293 1650 LINE",
"1293 344 LINE",
"459 1650 LINE",
"255 1650 LINE",
"255 0 LINE"
);
}
);
width = 1752;
},
{
anchors = (
{
name = bottom;
position = "{841, 0}";
},
{
name = top;
position = "{841, 1650}";
}
);
hints = (
{
place = "{293, 56}";
type = Stem;
},
{
place = "{1333, 56}";
type = Stem;
},
{
horizontal = 1;
place = "{0, 21}";
target = up;
type = BottomGhost;
},
{
horizontal = 1;
place = "{1650, -20}";
target = down;
type = TopGhost;
}
);
layerId = "ac360476-f880-49b3-af70-f23fb533da3d";
paths = (
{
closed = 1;
nodes = (
"349 0 LINE",
"349 1546 LINE",
"1333 0 LINE",
"1389 0 LINE",
"1389 1650 LINE",
"1333 1650 LINE",
"1333 102 LINE",
"349 1650 LINE",
"293 1650 LINE",
"293 0 LINE"
);
}
);
width = 1682;
}
);
rightKerningGroup = _A1;
unicode = 004E;
},
{
color = 5;
glyphname = Eng;
lastChange = "2020-02-27 21:29:52 +0000";
layers = (
{
layerId = "e62399bb-6e96-4ffb-a9ce-09aa31d52a36";
paths = (
{
closed = 1;
nodes = (
"196 1650 LINE",
"196 0 LINE",
"636 0 LINE",
"636 920 LINE",
"1228 0 LINE",
"1228 -1 LINE",
"1228 -57 OFFCURVE",
"1177 -129 OFFCURVE",
"1098 -129 CURVE SMOOTH",
"1053 -129 OFFCURVE",
"990 -106 OFFCURVE",
"930 -47 CURVE",
"690 -311 LINE",
"831 -478 OFFCURVE",
"978 -551 OFFCURVE",
"1175 -551 CURVE SMOOTH",
"1482 -551 OFFCURVE",
"1668 -371 OFFCURVE",
"1668 -55 CURVE SMOOTH",
"1668 1650 LINE",
"1228 1650 LINE",
"1228 730 LINE",
"636 1650 LINE"
);
}
);
width = 1845;
},
{
layerId = "b7c3c141-dc0f-46db-926d-e180a8f83e45";
paths = (
{
closed = 1;
nodes = (
"255 1650 LINE",
"255 0 LINE",
"459 0 LINE",
"459 1305 LINE",
"1292 0 LINE",
"1292 -19 LINE SMOOTH",
"1292 -220 OFFCURVE",
"1180 -356 OFFCURVE",
"977 -356 CURVE SMOOTH",
"881 -356 OFFCURVE",
"786 -322 OFFCURVE",
"702 -234 CURVE",
"589 -365 LINE",
"706 -495 OFFCURVE",
"832 -551 OFFCURVE",
"1003 -551 CURVE SMOOTH",
"1311 -551 OFFCURVE",
"1496 -368 OFFCURVE",
"1496 -55 CURVE SMOOTH",
"1496 1650 LINE",
"1292 1650 LINE",
"1292 344 LINE",
"459 1650 LINE"
);
}
);
width = 1734;
},
{
layerId = "ac360476-f880-49b3-af70-f23fb533da3d";
paths = (
{
closed = 1;
nodes = (
"293 1650 LINE",
"293 0 LINE",
"349 0 LINE",
"349 1546 LINE",
"1333 0 LINE",
"1333 -31 LINE SMOOTH",
"1333 -322 OFFCURVE",
"1184 -499 OFFCURVE",
"903 -499 CURVE SMOOTH",
"774 -499 OFFCURVE",
"660 -458 OFFCURVE",
"561 -352 CURVE",
"527 -399 LINE",
"629 -505 OFFCURVE",
"742 -551 OFFCURVE",
"897 -551 CURVE SMOOTH",
"1206 -551 OFFCURVE",
"1389 -366 OFFCURVE",
"1389 -55 CURVE SMOOTH",
"1389 1650 LINE",
"1333 1650 LINE",
"1333 102 LINE",
"349 1650 LINE"
);
}
);
width = 1665;
}
);
leftMetricsKey = N;
rightMetricsKey = J;
unicode = 014A;
},
{
color = 5;
glyphname = O;
lastChange = "2020-02-27 21:29:52 +0000";
layers = (
{
anchors = (
{
name = bottom;
position = "{894, 0}";
},
{
name = center;
position = "{894, 824}";
},
{
name = ogonek;
position = "{1006, 0}";
},
{
name = top;
position = "{894, 1650}";
},
{
name = topleft;
position = "{20, 1650}";
},
{
name = topright;
position = "{1768, 1650}";
}
);
hints = (
{
horizontal = 1;
place = "{-32, 424}";
type = Stem;
},
{
horizontal = 1;
place = "{1256, 424}";
type = Stem;
},
{
place = "{62, 474}";
type = Stem;
},
{
place = "{1252, 474}";
type = Stem;
}
);
layerId = "e62399bb-6e96-4ffb-a9ce-09aa31d52a36";
paths = (
{
closed = 1;
nodes = (
"1355 -32 OFFCURVE",
"1726 349 OFFCURVE",
"1726 824 CURVE SMOOTH",
"1726 1299 OFFCURVE",
"1355 1680 OFFCURVE",
"894 1680 CURVE SMOOTH",
"433 1680 OFFCURVE",
"62 1299 OFFCURVE",
"62 824 CURVE SMOOTH",
"62 349 OFFCURVE",
"433 -32 OFFCURVE",
"894 -32 CURVE SMOOTH"
);
},
{
closed = 1;
nodes = (
"677 392 OFFCURVE",
"536 563 OFFCURVE",
"536 824 CURVE SMOOTH",
"536 1085 OFFCURVE",
"677 1256 OFFCURVE",
"894 1256 CURVE SMOOTH",
"1111 1256 OFFCURVE",
"1252 1085 OFFCURVE",
"1252 824 CURVE SMOOTH",
"1252 563 OFFCURVE",
"1111 392 OFFCURVE",
"894 392 CURVE SMOOTH"
);
}
);
width = 1788;
},
{
anchors = (
{
name = bottom;
position = "{980, 0}";
},
{
name = center;
position = "{980, 824}";
},
{
name = ogonek;
position = "{1000, 0}";
},
{
name = top;
position = "{980, 1650}";
},
{
name = topleft;
position = "{19, 1650}";
},
{
name = topright;
position = "{1940, 1650}";
}
);
hints = (
{
horizontal = 1;
place = "{-32, 197}";
type = Stem;
},
{
horizontal = 1;
place = "{1483, 197}";
type = Stem;
},
{
place = "{148, 220}";
type = Stem;
},
{
place = "{1592, 220}";
type = Stem;
}
);
layerId = "b7c3c141-dc0f-46db-926d-e180a8f83e45";
paths = (
{
closed = 1;
nodes = (
"1442 -32 OFFCURVE",
"1812 348 OFFCURVE",
"1812 824 CURVE SMOOTH",
"1812 1300 OFFCURVE",
"1442 1680 OFFCURVE",
"980 1680 CURVE SMOOTH",
"518 1680 OFFCURVE",
"148 1300 OFFCURVE",
"148 824 CURVE SMOOTH",
"148 348 OFFCURVE",
"518 -32 OFFCURVE",
"980 -32 CURVE SMOOTH"
);
},
{
closed = 1;
nodes = (
"633 165 OFFCURVE",
"368 451 OFFCURVE",
"368 824 CURVE SMOOTH",
"368 1197 OFFCURVE",
"633 1483 OFFCURVE",
"980 1483 CURVE SMOOTH",
"1327 1483 OFFCURVE",
"1592 1197 OFFCURVE",
"1592 824 CURVE SMOOTH",
"1592 451 OFFCURVE",
"1327 165 OFFCURVE",
"980 165 CURVE SMOOTH"
);
}
);
width = 1960;
},
{
anchors = (
{
name = bottom;
position = "{1035, 0}";
},
{
name = center;
position = "{1035, 825}";
},
{
name = ogonek;
position = "{1067, 0}";
},
{
name = top;
position = "{1035, 1650}";
},
{
name = topleft;
position = "{20, 1650}";
},
{
name = topright;
position = "{2050, 1650}";
}
);
hints = (
{
horizontal = 1;
place = "{-32, 54}";
type = Stem;
},
{
horizontal = 1;
place = "{1626, 54}";
type = Stem;
},
{
place = "{203, 60}";
type = Stem;
},
{
place = "{1807, 60}";
type = Stem;
}
);
layerId = "ac360476-f880-49b3-af70-f23fb533da3d";
paths = (
{
closed = 1;
nodes = (
"1497 -32 OFFCURVE",
"1867 348 OFFCURVE",
"1867 824 CURVE SMOOTH",
"1867 1300 OFFCURVE",
"1497 1680 OFFCURVE",
"1035 1680 CURVE SMOOTH",
"573 1680 OFFCURVE",
"203 1300 OFFCURVE",
"203 824 CURVE SMOOTH",
"203 348 OFFCURVE",
"573 -32 OFFCURVE",
"1035 -32 CURVE SMOOTH"
);
},
{
closed = 1;
nodes = (
"607 22 OFFCURVE",
"263 380 OFFCURVE",
"263 824 CURVE SMOOTH",
"263 1268 OFFCURVE",
"607 1626 OFFCURVE",
"1035 1626 CURVE SMOOTH",
"1463 1626 OFFCURVE",
"1807 1268 OFFCURVE",
"1807 824 CURVE SMOOTH",
"1807 380 OFFCURVE",
"1463 22 OFFCURVE",
"1035 22 CURVE SMOOTH"
);
}
);
width = 2070;
}
);
leftKerningGroup = _O;
rightKerningGroup = _O;
unicode = 004F;
},
{
color = 5;
glyphname = Oslash;
lastChange = "2020-02-27 21:29:52 +0000";
layers = (
{
hints = (
{
horizontal = 1;
place = "{-32, 424}";
type = Stem;
},
{
horizontal = 1;
place = "{1256, 424}";
type = Stem;
},
{
place = "{62, 474}";
type = Stem;
},
{
place = "{1252, 474}";
type = Stem;
}
);
layerId = "e62399bb-6e96-4ffb-a9ce-09aa31d52a36";
paths = (
{
closed = 1;
nodes = (
"1355 -32 OFFCURVE",
"1726 349 OFFCURVE",
"1726 824 CURVE SMOOTH",
"1726 1299 OFFCURVE",
"1355 1680 OFFCURVE",
"894 1680 CURVE SMOOTH",
"433 1680 OFFCURVE",
"62 1299 OFFCURVE",
"62 824 CURVE SMOOTH",
"62 349 OFFCURVE",
"433 -32 OFFCURVE",
"894 -32 CURVE SMOOTH"
);
},
{
closed = 1;
nodes = (
"677 392 OFFCURVE",
"536 563 OFFCURVE",
"536 824 CURVE SMOOTH",
"536 1085 OFFCURVE",
"677 1256 OFFCURVE",
"894 1256 CURVE SMOOTH",
"1111 1256 OFFCURVE",
"1252 1085 OFFCURVE",
"1252 824 CURVE SMOOTH",
"1252 563 OFFCURVE",
"1111 392 OFFCURVE",
"894 392 CURVE SMOOTH"
);
},
{
closed = 1;
nodes = (
"1658 1518 LINE",
"1398 1718 LINE",
"144 155 LINE",
"404 -35 LINE"
);
}
);
width = 1788;
},
{
hints = (
{
horizontal = 1;
place = "{-32, 197}";
type = Stem;
},
{
horizontal = 1;
place = "{1483, 197}";
type = Stem;
},
{
place = "{148, 220}";
type = Stem;
},
{
place = "{1592, 220}";
type = Stem;
}
);
layerId = "b7c3c141-dc0f-46db-926d-e180a8f83e45";
paths = (
{
closed = 1;
nodes = (
"1442 -32 OFFCURVE",
"1812 348 OFFCURVE",
"1812 824 CURVE SMOOTH",
"1812 1300 OFFCURVE",
"1442 1680 OFFCURVE",
"980 1680 CURVE SMOOTH",
"518 1680 OFFCURVE",
"148 1300 OFFCURVE",
"148 824 CURVE SMOOTH",
"148 348 OFFCURVE",
"518 -32 OFFCURVE",
"980 -32 CURVE SMOOTH"
);
},
{
closed = 1;
nodes = (
"633 165 OFFCURVE",
"368 451 OFFCURVE",
"368 824 CURVE SMOOTH",
"368 1197 OFFCURVE",
"633 1483 OFFCURVE",
"980 1483 CURVE SMOOTH",
"1327 1483 OFFCURVE",
"1592 1197 OFFCURVE",
"1592 824 CURVE SMOOTH",
"1592 451 OFFCURVE",
"1327 165 OFFCURVE",
"980 165 CURVE SMOOTH"
);
},
{
closed = 1;
nodes = (
"1674 1575 LINE",
"1546 1673 LINE",
"297 86 LINE",
"424 -9 LINE"
);
}
);
width = 1960;
},
{
hints = (
{
horizontal = 1;
place = "{-32, 54}";
type = Stem;
},
{
horizontal = 1;
place = "{1626, 54}";
type = Stem;
},
{
place = "{203, 60}";
type = Stem;
},
{
place = "{1807, 60}";
type = Stem;
}
);
layerId = "ac360476-f880-49b3-af70-f23fb533da3d";
paths = (
{
closed = 1;
nodes = (
"1497 -32 OFFCURVE",
"1867 348 OFFCURVE",
"1867 824 CURVE SMOOTH",
"1867 1300 OFFCURVE",
"1497 1680 OFFCURVE",
"1035 1680 CURVE SMOOTH",
"573 1680 OFFCURVE",
"203 1300 OFFCURVE",
"203 824 CURVE SMOOTH",
"203 348 OFFCURVE",
"573 -32 OFFCURVE",
"1035 -32 CURVE SMOOTH"
);
},
{
closed = 1;
nodes = (
"607 22 OFFCURVE",
"263 380 OFFCURVE",
"263 824 CURVE SMOOTH",
"263 1268 OFFCURVE",
"607 1626 OFFCURVE",
"1035 1626 CURVE SMOOTH",
"1463 1626 OFFCURVE",
"1807 1268 OFFCURVE",
"1807 824 CURVE SMOOTH",
"1807 380 OFFCURVE",
"1463 22 OFFCURVE",
"1035 22 CURVE SMOOTH"
);
},
{
closed = 1;
nodes = (
"1685 1610 LINE",
"1639 1644 LINE",
"393 42 LINE",
"437 8 LINE"
);
}
);
width = 2070;
}
);
leftKerningGroup = _O;
leftMetricsKey = O;
rightKerningGroup = _O;
rightMetricsKey = O;
unicode = 00D8;
},
{
color = 5;
glyphname = OE;
lastChange = "2020-02-27 21:29:52 +0000";
layers = (
{
hints = (
{
horizontal = 1;
place = "{1258, 392}";
type = Stem;
},
{
horizontal = 1;
place = "{0, 392}";
type = Stem;
},
{
horizontal = 1;
place = "{634, 386}";
type = Stem;
},
{
place = "{1018, 440}";
type = Stem;
},
{
place = "{62, 474}";
type = Stem;
}
);
layerId = "e62399bb-6e96-4ffb-a9ce-09aa31d52a36";
paths = (
{
closed = 1;
nodes = (
"1994 0 LINE",
"1994 386 LINE",
"1458 386 LINE",
"1458 634 LINE",
"1970 634 LINE",
"1970 1020 LINE",
"1458 1020 LINE",
"1458 1264 LINE",
"1994 1264 LINE",
"1994 1650 LINE",
"1104 1650 LINE SMOOTH",
"401 1650 OFFCURVE",
"62 1312 OFFCURVE",
"62 825 CURVE SMOOTH",
"62 338 OFFCURVE",
"401 0 OFFCURVE",
"1104 0 CURVE SMOOTH"
);
},
{
closed = 1;
nodes = (
"1018 392 LINE",
"715 392 OFFCURVE",
"536 550 OFFCURVE",
"536 825 CURVE SMOOTH",
"536 1100 OFFCURVE",
"715 1258 OFFCURVE",
"1018 1258 CURVE"
);
}
);
width = 2162;
},
{
hints = (
{
horizontal = 1;
place = "{1467, 183}";
type = Stem;
},
{
horizontal = 1;
place = "{0, 183}";
type = Stem;
},
{
horizontal = 1;
place = "{737, 180}";
type = Stem;
},
{
place = "{1024, 204}";
type = Stem;
},
{
place = "{148, 220}";
type = Stem;
}
);
layerId = "b7c3c141-dc0f-46db-926d-e180a8f83e45";
paths = (
{
closed = 1;
nodes = (
"1882 0 LINE",
"1882 180 LINE",
"1228 180 LINE",
"1228 737 LINE",
"1858 737 LINE",
"1858 917 LINE",
"1228 917 LINE",
"1228 1471 LINE",
"1882 1471 LINE",
"1882 1650 LINE",
"1058 1650 LINE SMOOTH",
"503 1650 OFFCURVE",
"148 1299 OFFCURVE",
"148 825 CURVE SMOOTH",
"148 351 OFFCURVE",
"503 0 OFFCURVE",
"1058 0 CURVE SMOOTH"
);
},
{
closed = 1;
nodes = (
"1024 183 LINE",
"635 183 OFFCURVE",
"368 451 OFFCURVE",
"368 825 CURVE SMOOTH",
"368 1199 OFFCURVE",
"645 1467 OFFCURVE",
"1024 1467 CURVE"
);
}
);
width = 2055;
},
{
hints = (
{
horizontal = 1;
place = "{1598, 52}";
type = Stem;
},
{
horizontal = 1;
place = "{0, 52}";
type = Stem;
},
{
horizontal = 1;
place = "{802, 50}";
type = Stem;
},
{
place = "{1029, 56}";
type = Stem;
},
{
place = "{203, 60}";
type = Stem;
}
);
layerId = "ac360476-f880-49b3-af70-f23fb533da3d";
paths = (
{
closed = 1;
nodes = (
"1813 0 LINE",
"1813 50 LINE",
"1085 50 LINE",
"1085 802 LINE",
"1789 802 LINE",
"1789 852 LINE",
"1085 852 LINE",
"1085 1600 LINE",
"1813 1600 LINE",
"1813 1650 LINE",
"1029 1650 LINE SMOOTH",
"557 1650 OFFCURVE",
"203 1291 OFFCURVE",
"203 825 CURVE SMOOTH",
"203 359 OFFCURVE",
"557 0 OFFCURVE",
"1029 0 CURVE SMOOTH"
);
},
{
closed = 1;
nodes = (
"1029 52 LINE",
"592 52 OFFCURVE",
"263 388 OFFCURVE",
"263 825 CURVE SMOOTH",
"263 1262 OFFCURVE",
"592 1598 OFFCURVE",
"1029 1598 CURVE"
);
}
);
width = 1990;
}
);
leftMetricsKey = O;
rightKerningGroup = _A1;
rightMetricsKey = E;
unicode = 0152;
},
{
color = 5;
glyphname = P;
lastChange = "2020-02-27 21:29:52 +0000";
layers = (
{
hints = (
{
horizontal = 1;
place = "{588, 350}";
type = Stem;
},
{
horizontal = 1;
place = "{1300, 350}";
type = Stem;
},
{
place = "{958, 464}";
type = Stem;
},
{
horizontal = 1;
place = "{0, 21}";
target = up;
type = BottomGhost;
},
{
place = "{196, 440}";
type = Stem;
}
);
layerId = "e62399bb-6e96-4ffb-a9ce-09aa31d52a36";
paths = (
{
closed = 1;
nodes = (
"636 0 LINE",
"636 588 LINE",
"848 588 LINE SMOOTH",
"1168 588 OFFCURVE",
"1422 764 OFFCURVE",
"1422 1119 CURVE SMOOTH",
"1422 1474 OFFCURVE",
"1168 1650 OFFCURVE",
"848 1650 CURVE SMOOTH",
"196 1650 LINE",
"196 0 LINE"
);
},
{
closed = 1;
nodes = (
"636 1300 LINE",
"704 1300 LINE SMOOTH",
"822 1300 OFFCURVE",
"958 1275 OFFCURVE",
"958 1119 CURVE SMOOTH",
"958 965 OFFCURVE",
"822 938 OFFCURVE",
"704 938 CURVE SMOOTH",
"636 938 LINE"
);
}
);
width = 1448;
},
{
hints = (
{
horizontal = 1;
place = "{678, 164}";
type = Stem;
},
{
horizontal = 1;
place = "{1486, 164}";
type = Stem;
},
{
place = "{1048, 211}";
type = Stem;
},
{
horizontal = 1;
place = "{0, 21}";
target = up;
type = BottomGhost;
},
{
place = "{256, 204}";
type = Stem;
}
);
layerId = "b7c3c141-dc0f-46db-926d-e180a8f83e45";
paths = (
{
closed = 1;
nodes = (
"460 0 LINE",
"460 678 LINE",
"724 678 LINE SMOOTH",
"1047 678 OFFCURVE",
"1259 862 OFFCURVE",
"1259 1164 CURVE SMOOTH",
"1259 1466 OFFCURVE",
"1047 1650 OFFCURVE",
"724 1650 CURVE SMOOTH",
"256 1650 LINE",
"256 0 LINE"
);
},
{
closed = 1;
nodes = (
"460 1486 LINE",
"669 1486 LINE SMOOTH",
"893 1486 OFFCURVE",
"1048 1371 OFFCURVE",
"1048 1164 CURVE SMOOTH",
"1048 957 OFFCURVE",
"893 842 OFFCURVE",
"669 842 CURVE SMOOTH",
"460 842 LINE"
);
}
);
width = 1383;
},
{
hints = (
{
horizontal = 1;
place = "{736, 50}";
type = Stem;
},
{
horizontal = 1;
place = "{1600, 50}";
type = Stem;
},
{
place = "{1105, 52}";
type = Stem;
},
{
horizontal = 1;
place = "{0, 21}";
target = up;
type = BottomGhost;
},
{
place = "{293, 56}";
type = Stem;
}
);
layerId = "ac360476-f880-49b3-af70-f23fb533da3d";
paths = (
{
closed = 1;
nodes = (
"349 0 LINE",
"349 736 LINE",
"647 736 LINE SMOOTH",
"971 736 OFFCURVE",
"1157 924 OFFCURVE",
"1157 1193 CURVE SMOOTH",
"1157 1462 OFFCURVE",
"971 1650 OFFCURVE",
"647 1650 CURVE SMOOTH",
"293 1650 LINE",
"293 0 LINE"
);
},
{
closed = 1;
nodes = (
"349 1600 LINE",
"647 1600 LINE SMOOTH",
"937 1600 OFFCURVE",
"1105 1432 OFFCURVE",
"1105 1193 CURVE SMOOTH",
"1105 954 OFFCURVE",
"937 786 OFFCURVE",
"647 786 CURVE SMOOTH",
"349 786 LINE"
);
}
);
width = 1343;
}
);
rightKerningGroup = _A1;
unicode = 0050;
},
{
color = 5;
glyphname = Thorn;
lastChange = "2020-02-27 21:29:52 +0000";
layers = (
{
anchors = (
{
name = bottom;
position = "{724, 0}";
},
{
name = top;
position = "{724, 1650}";
}
);
hints = (
{
horizontal = 1;
place = "{296, 350}";
type = Stem;
},
{
horizontal = 1;
place = "{1008, 350}";
type = Stem;
},
{
horizontal = 1;
place = "{1650, -20}";
target = down;
type = TopGhost;
},
{
place = "{196, 440}";
type = Stem;
},
{
place = "{958, 464}";
type = Stem;
}
);
layerId = "e62399bb-6e96-4ffb-a9ce-09aa31d52a36";
paths = (
{
closed = 1;
nodes = (
"636 0 LINE",
"636 296 LINE",
"848 296 LINE SMOOTH",
"1168 296 OFFCURVE",
"1422 472 OFFCURVE",
"1422 827 CURVE SMOOTH",
"1422 1182 OFFCURVE",
"1168 1358 OFFCURVE",
"848 1358 CURVE SMOOTH",
"636 1358 LINE",
"636 1650 LINE",
"196 1650 LINE",
"196 0 LINE"
);
},
{
closed = 1;
nodes = (
"636 1008 LINE",
"704 1008 LINE SMOOTH",
"822 1008 OFFCURVE",
"958 983 OFFCURVE",
"958 827 CURVE SMOOTH",
"958 673 OFFCURVE",
"822 646 OFFCURVE",
"704 646 CURVE SMOOTH",
"636 646 LINE"
);
}
);
width = 1448;
},
{
anchors = (
{
name = bottom;
position = "{692, 0}";
},
{
name = top;
position = "{692, 1650}";
}
);
hints = (
{
horizontal = 1;
place = "{333, 164}";
type = Stem;
},
{
horizontal = 1;
place = "{1141, 164}";
type = Stem;
},
{
horizontal = 1;
place = "{1650, -20}";
target = down;
type = TopGhost;
},
{
place = "{256, 204}";
type = Stem;
},
{
place = "{1048, 211}";
type = Stem;
}
);
layerId = "b7c3c141-dc0f-46db-926d-e180a8f83e45";
paths = (
{
closed = 1;
nodes = (
"460 0 LINE",
"460 333 LINE",
"724 333 LINE SMOOTH",
"1047 333 OFFCURVE",
"1259 517 OFFCURVE",
"1259 819 CURVE SMOOTH",
"1259 1121 OFFCURVE",
"1047 1305 OFFCURVE",
"724 1305 CURVE SMOOTH",
"460 1305 LINE",
"460 1650 LINE",
"256 1650 LINE",
"256 0 LINE"
);
},
{
closed = 1;
nodes = (
"460 1141 LINE",
"669 1141 LINE SMOOTH",
"893 1141 OFFCURVE",
"1048 1026 OFFCURVE",
"1048 819 CURVE SMOOTH",
"1048 612 OFFCURVE",
"893 497 OFFCURVE",
"669 497 CURVE SMOOTH",
"460 497 LINE"
);
}
);
width = 1383;
},
{
anchors = (
{
name = bottom;
position = "{672, 0}";
},
{
name = top;
position = "{672, 1650}";
}
);
hints = (
{
horizontal = 1;
place = "{358, 50}";
type = Stem;
},
{
horizontal = 1;
place = "{1222, 50}";
type = Stem;
},
{
horizontal = 1;
place = "{1650, -20}";
target = down;
type = TopGhost;
},
{
place = "{293, 56}";
type = Stem;
},
{
place = "{1105, 52}";
type = Stem;
}
);
layerId = "ac360476-f880-49b3-af70-f23fb533da3d";
paths = (
{
closed = 1;
nodes = (
"349 0 LINE",
"349 358 LINE",
"647 358 LINE SMOOTH",
"971 358 OFFCURVE",
"1157 546 OFFCURVE",
"1157 815 CURVE SMOOTH",
"1157 1084 OFFCURVE",
"971 1272 OFFCURVE",
"647 1272 CURVE SMOOTH",
"349 1272 LINE",
"349 1650 LINE",
"293 1650 LINE",
"293 0 LINE"
);
},
{
closed = 1;
nodes = (
"349 1222 LINE",
"647 1222 LINE SMOOTH",
"937 1222 OFFCURVE",
"1105 1054 OFFCURVE",
"1105 815 CURVE SMOOTH",
"1105 576 OFFCURVE",
"937 408 OFFCURVE",
"647 408 CURVE SMOOTH",
"349 408 LINE"
);
}
);
width = 1343;
}
);
leftMetricsKey = P;
rightKerningGroup = _A1;
rightMetricsKey = P;
unicode = 00DE;
},
{
color = 5;
glyphname = Q;
lastChange = "2020-02-27 21:29:52 +0000";
layers = (
{
components = (
{
alignment = -1;
name = O;
}
);
layerId = "e62399bb-6e96-4ffb-a9ce-09aa31d52a36";
paths = (
{
closed = 1;
nodes = (
"768 614 LINE",
"957 339 OFFCURVE",
"1304 72 OFFCURVE",
"1636 -54 CURVE",
"1830 338 LINE",
"1458 434 OFFCURVE",
"1189 585 OFFCURVE",
"993 807 CURVE"
);
}
);
width = 1871;
},
{
components = (
{
alignment = -1;
name = O;
transform = "{1, 0, 0, 1, -25, -1}";
}
);
layerId = "b7c3c141-dc0f-46db-926d-e180a8f83e45";
paths = (
{
closed = 1;
nodes = (
"975 513 LINE",
"1173 280 OFFCURVE",
"1473 59 OFFCURVE",
"1755 -54 CURVE",
"1846 129 LINE",
"1560 223 OFFCURVE",
"1297 387 OFFCURVE",
"1084 599 CURVE"
);
}
);
width = 1961;
},
{
components = (
{
alignment = -1;
name = O;
transform = "{1, 0, 0, 1, -41, -1}";
}
);
layerId = "ac360476-f880-49b3-af70-f23fb533da3d";
paths = (
{
closed = 1;
nodes = (
"1104 450 LINE",
"1300 242 OFFCURVE",
"1564 52 OFFCURVE",
"1830 -54 CURVE",
"1849 0 LINE",
"1595 92 OFFCURVE",
"1324 286 OFFCURVE",
"1134 476 CURVE"
);
}
);
width = 2018;
}
);
rightKerningGroup = _A1;
unicode = 0051;
},
{
color = 5;
glyphname = R;
lastChange = "2020-02-27 21:29:52 +0000";
layers = (
{
anchors = (
{
name = bottom;
position = "{792, 0}";
},
{
name = top;
position = "{792, 1650}";
}
);
hints = (
{
horizontal = 1;
place = "{1300, 350}";
type = Stem;
},
{
horizontal = 1;
place = "{572, 385}";
type = Stem;
},
{
place = "{196, 440}";
type = Stem;
},
{
horizontal = 1;
place = "{0, 21}";
target = up;
type = BottomGhost;
},
{
place = "{958, 464}";
type = Stem;
}
);
layerId = "e62399bb-6e96-4ffb-a9ce-09aa31d52a36";
paths = (
{
closed = 1;
nodes = (
"636 1300 LINE",
"704 1300 LINE SMOOTH",
"822 1300 OFFCURVE",
"958 1282 OFFCURVE",
"958 1129 CURVE SMOOTH",
"958 978 OFFCURVE",
"822 957 OFFCURVE",
"704 957 CURVE SMOOTH",
"636 957 LINE"
);
},
{
closed = 1;
nodes = (
"636 0 LINE",
"636 572 LINE",
"637 572 LINE",
"1080 0 LINE",
"1638 0 LINE",
"1088 645 LINE",
"1286 713 OFFCURVE",
"1422 874 OFFCURVE",
"1422 1129 CURVE SMOOTH",
"1422 1477 OFFCURVE",
"1168 1650 OFFCURVE",
"848 1650 CURVE SMOOTH",
"196 1650 LINE",
"196 0 LINE"
);
}
);
width = 1584;
},
{
anchors = (
{
name = bottom;
position = "{716, 0}";
},
{
name = top;
position = "{716, 1650}";
}
);
hints = (
{
horizontal = 1;
place = "{1486, 164}";
type = Stem;
},
{
horizontal = 1;
place = "{673, 173}";
type = Stem;
},
{
place = "{256, 204}";
type = Stem;
},
{
horizontal = 1;
place = "{0, 21}";
target = up;
type = BottomGhost;
},
{
place = "{1048, 211}";
type = Stem;
}
);
layerId = "b7c3c141-dc0f-46db-926d-e180a8f83e45";
paths = (
{
closed = 1;
nodes = (
"460 1486 LINE",
"669 1486 LINE SMOOTH",
"907 1486 OFFCURVE",
"1048 1365 OFFCURVE",
"1048 1166 CURVE SMOOTH",
"1048 967 OFFCURVE",
"907 846 OFFCURVE",
"669 846 CURVE SMOOTH",
"460 846 LINE"
);
},
{
closed = 1;
nodes = (
"460 0 LINE",
"460 673 LINE",
"614 673 LINE",
"1125 0 LINE",
"1384 0 LINE",
"840 691 LINE",
"1100 730 OFFCURVE",
"1259 904 OFFCURVE",
"1259 1166 CURVE SMOOTH",
"1259 1465 OFFCURVE",
"1052 1650 OFFCURVE",
"724 1650 CURVE SMOOTH",
"256 1650 LINE",
"256 0 LINE"
);
}
);
width = 1432;
},
{
anchors = (
{
name = bottom;
position = "{668, 0}";
},
{
name = top;
position = "{668, 1650}";
}
);
hints = (
{
horizontal = 1;
place = "{1600, 50}";
type = Stem;
},
{
horizontal = 1;
place = "{751, 50}";
type = Stem;
},
{
place = "{293, 56}";
type = Stem;
},
{
horizontal = 1;
place = "{0, 21}";
target = up;
type = BottomGhost;
},
{
place = "{1105, 52}";
type = Stem;
}
);
layerId = "ac360476-f880-49b3-af70-f23fb533da3d";
paths = (
{
closed = 1;
nodes = (
"349 1600 LINE",
"647 1600 LINE SMOOTH",
"937 1600 OFFCURVE",
"1105 1436 OFFCURVE",
"1105 1201 CURVE SMOOTH",
"1105 966 OFFCURVE",
"937 801 OFFCURVE",
"647 801 CURVE SMOOTH",
"349 801 LINE"
);
},
{
closed = 1;
nodes = (
"349 0 LINE",
"349 751 LINE",
"588 751 LINE",
"1153 0 LINE",
"1225 0 LINE",
"660 751 LINE",
"935 751 OFFCURVE",
"1157 909 OFFCURVE",
"1157 1201 CURVE SMOOTH",
"1157 1465 OFFCURVE",
"971 1650 OFFCURVE",
"647 1650 CURVE SMOOTH",
"293 1650 LINE",
"293 0 LINE"
);
}
);
width = 1336;
}
);
rightKerningGroup = _R;
unicode = 0052;
},
{
color = 5;
glyphname = S;
lastChange = "2020-02-27 21:29:52 +0000";
layers = (
{
anchors = (
{
name = bottom;
position = "{652, 0}";
},
{
name = cedilla;
position = "{684, 0}";
},
{
name = top;
position = "{732, 1680}";
}
);
hints = (
{
horizontal = 1;
place = "{-32, 408}";
type = Stem;
},
{
horizontal = 1;
place = "{1280, 400}";
type = Stem;
},
{
place = "{804, 484}";
type = Stem;
},
{
place = "{104, 432}";
type = Stem;
}
);
layerId = "e62399bb-6e96-4ffb-a9ce-09aa31d52a36";
paths = (
{
closed = 1;
nodes = (
"1037 -32 OFFCURVE",
"1288 165 OFFCURVE",
"1288 498 CURVE SMOOTH",
"1288 775 OFFCURVE",
"1071 897 OFFCURVE",
"777 1016 CURVE SMOOTH",
"582 1095 OFFCURVE",
"536 1128 OFFCURVE",
"536 1179 CURVE SMOOTH",
"536 1237 OFFCURVE",
"595 1280 OFFCURVE",
"698 1280 CURVE SMOOTH",
"794 1280 OFFCURVE",
"921 1243 OFFCURVE",
"1026 1184 CURVE",
"1200 1538 LINE",
"1082 1624 OFFCURVE",
"877 1680 OFFCURVE",
"702 1680 CURVE SMOOTH",
"332 1680 OFFCURVE",
"104 1427 OFFCURVE",
"104 1167 CURVE SMOOTH",
"104 957 OFFCURVE",
"228 823 OFFCURVE",
"548 685 CURVE SMOOTH",
"750 598 OFFCURVE",
"804 557 OFFCURVE",
"804 489 CURVE SMOOTH",
"804 427 OFFCURVE",
"749 376 OFFCURVE",
"633 376 CURVE SMOOTH",
"515 376 OFFCURVE",
"369 429 OFFCURVE",
"218 532 CURVE",
"11 178 LINE",
"151 51 OFFCURVE",
"398 -32 OFFCURVE",
"650 -32 CURVE SMOOTH"
);
}
);
width = 1361;
},
{
anchors = (
{
name = bottom;
position = "{698, 0}";
},
{
name = cedilla;
position = "{730, 0}";
},
{
name = top;
position = "{707, 1668}";
}
);
hints = (
{
horizontal = 1;
place = "{-32, 188}";
type = Stem;
},
{
horizontal = 1;
place = "{1494, 186}";
type = Stem;
},
{
place = "{1005, 218}";
type = Stem;
},
{
place = "{204, 197}";
type = Stem;
}
);
layerId = "b7c3c141-dc0f-46db-926d-e180a8f83e45";
paths = (
{
closed = 1;
nodes = (
"986 -32 OFFCURVE",
"1223 141 OFFCURVE",
"1223 445 CURVE SMOOTH",
"1223 693 OFFCURVE",
"1056 822 OFFCURVE",
"724 943 CURVE SMOOTH",
"495 1026 OFFCURVE",
"401 1116 OFFCURVE",
"401 1239 CURVE SMOOTH",
"401 1373 OFFCURVE",
"505 1494 OFFCURVE",
"689 1494 CURVE SMOOTH",
"820 1494 OFFCURVE",
"931 1434 OFFCURVE",
"1001 1364 CURVE",
"1129 1477 LINE",
"1054 1579 OFFCURVE",
"891 1680 OFFCURVE",
"692 1680 CURVE SMOOTH",
"401 1680 OFFCURVE",
"204 1480 OFFCURVE",
"204 1236 CURVE SMOOTH",
"204 1037 OFFCURVE",
"335 892 OFFCURVE",
"620 786 CURVE SMOOTH",
"907 680 OFFCURVE",
"1005 593 OFFCURVE",
"1005 439 CURVE SMOOTH",
"1005 258 OFFCURVE",
"853 156 OFFCURVE",
"677 156 CURVE SMOOTH",
"512 156 OFFCURVE",
"353 243 OFFCURVE",
"249 371 CURVE",
"108 269 LINE",
"204 100 OFFCURVE",
"430 -32 OFFCURVE",
"686 -32 CURVE SMOOTH"
);
}
);
width = 1366;
},
{
anchors = (
{
name = bottom;
position = "{695, 0}";
},
{
name = cedilla;
position = "{727, 0}";
},
{
name = top;
position = "{692, 1660}";
}
);
hints = (
{
horizontal = 1;
place = "{-32, 50}";
type = Stem;
},
{
horizontal = 1;
place = "{1628, 52}";
type = Stem;
},
{
place = "{1131, 52}";
type = Stem;
},
{
place = "{267, 50}";
type = Stem;
}
);
layerId = "ac360476-f880-49b3-af70-f23fb533da3d";
paths = (
{
closed = 1;
nodes = (
"954 -32 OFFCURVE",
"1183 126 OFFCURVE",
"1183 411 CURVE SMOOTH",
"1183 641 OFFCURVE",
"1046 776 OFFCURVE",
"691 898 CURVE SMOOTH",
"440 984 OFFCURVE",
"317 1108 OFFCURVE",
"317 1277 CURVE SMOOTH",
"317 1458 OFFCURVE",
"449 1628 OFFCURVE",
"684 1628 CURVE SMOOTH",
"873 1628 OFFCURVE",
"999 1518 OFFCURVE",
"1039 1416 CURVE",
"1085 1438 LINE",
"1037 1550 OFFCURVE",
"899 1680 OFFCURVE",
"686 1680 CURVE SMOOTH",
"444 1680 OFFCURVE",
"267 1514 OFFCURVE",
"267 1280 CURVE SMOOTH",
"267 1087 OFFCURVE",
"403 939 OFFCURVE",
"665 850 CURVE SMOOTH",
"1007 734 OFFCURVE",
"1131 616 OFFCURVE",
"1131 408 CURVE SMOOTH",
"1131 152 OFFCURVE",
"918 18 OFFCURVE",
"704 18 CURVE SMOOTH",
"480 18 OFFCURVE",
"283 161 OFFCURVE",
"215 345 CURVE",
"169 326 LINE",
"237 131 OFFCURVE",
"450 -32 OFFCURVE",
"708 -32 CURVE SMOOTH"
);
}
);
width = 1369;
}
);
leftKerningGroup = _S;
rightKerningGroup = _A1;
unicode = 0053;
},
{
color = 5;
glyphname = Germandbls;
lastChange = "2020-02-27 21:29:52 +0000";
layers = (
{
hints = (
{
horizontal = 1;
place = "{-23, 424}";
type = Stem;
},
{
place = "{1261, 428}";
type = Stem;
},
{
place = "{1067, 444}";
type = Stem;
},
{
horizontal = 1;
place = "{1257, 424}";
type = Stem;
},
{
place = "{196, 442}";
type = Stem;
},
{
horizontal = 1;
place = "{1, 21}";
target = up;
type = BottomGhost;
}
);
layerId = "e62399bb-6e96-4ffb-a9ce-09aa31d52a36";
paths = (
{
closed = 1;
nodes = (
"1439 -23 OFFCURVE",
"1689 136 OFFCURVE",
"1689 432 CURVE SMOOTH",
"1689 766 OFFCURVE",
"1371 756 OFFCURVE",
"1371 838 CURVE SMOOTH",
"1371 893 OFFCURVE",
"1511 922 OFFCURVE",
"1511 1171 CURVE SMOOTH",
"1511 1503 OFFCURVE",
"1246 1681 OFFCURVE",
"900 1681 CURVE SMOOTH",
"459 1681 OFFCURVE",
"196 1402 OFFCURVE",
"196 888 CURVE SMOOTH",
"196 1 LINE",
"638 1 LINE",
"638 935 LINE SMOOTH",
"638 1153 OFFCURVE",
"713 1257 OFFCURVE",
"868 1257 CURVE SMOOTH",
"977 1257 OFFCURVE",
"1067 1205 OFFCURVE",
"1067 1082 CURVE SMOOTH",
"1067 913 OFFCURVE",
"897 907 OFFCURVE",
"897 764 CURVE SMOOTH",
"897 555 OFFCURVE",
"1261 614 OFFCURVE",
"1261 474 CURVE SMOOTH",
"1261 426 OFFCURVE",
"1218 401 OFFCURVE",
"1134 401 CURVE SMOOTH",
"1060 401 OFFCURVE",
"981 420 OFFCURVE",
"868 466 CURVE",
"746 59 LINE",
"888 9 OFFCURVE",
"1051 -23 OFFCURVE",
"1164 -23 CURVE SMOOTH"
);
}
);
width = 1762;
},
{
hints = (
{
horizontal = 1;
place = "{-29, 196}";
type = Stem;
},
{
place = "{1247, 202}";
type = Stem;
},
{
place = "{1046, 208}";
type = Stem;
},
{
horizontal = 1;
place = "{1481, 200}";
type = Stem;
},
{
place = "{256, 204}";
type = Stem;
},
{
horizontal = 1;
place = "{0, 21}";
target = up;
type = BottomGhost;
}
);
layerId = "b7c3c141-dc0f-46db-926d-e180a8f83e45";
paths = (
{
closed = 1;
nodes = (
"1245 -29 OFFCURVE",
"1449 140 OFFCURVE",
"1449 403 CURVE SMOOTH",
"1449 766 OFFCURVE",
"1062 777 OFFCURVE",
"1062 881 CURVE SMOOTH",
"1062 955 OFFCURVE",
"1254 1001 OFFCURVE",
"1254 1264 CURVE SMOOTH",
"1254 1533 OFFCURVE",
"1055 1681 OFFCURVE",
"792 1681 CURVE SMOOTH",
"451 1681 OFFCURVE",
"256 1433 OFFCURVE",
"256 1031 CURVE SMOOTH",
"256 0 LINE",
"460 0 LINE",
"460 1046 LINE SMOOTH",
"460 1321 OFFCURVE",
"571 1481 OFFCURVE",
"778 1481 CURVE SMOOTH",
"930 1481 OFFCURVE",
"1046 1394 OFFCURVE",
"1046 1228 CURVE SMOOTH",
"1046 1010 OFFCURVE",
"844 1013 OFFCURVE",
"844 859 CURVE SMOOTH",
"844 643 OFFCURVE",
"1247 691 OFFCURVE",
"1247 417 CURVE SMOOTH",
"1247 263 OFFCURVE",
"1131 167 OFFCURVE",
"975 167 CURVE SMOOTH",
"881 167 OFFCURVE",
"798 200 OFFCURVE",
"702 258 CURVE",
"600 94 LINE",
"736 12 OFFCURVE",
"861 -29 OFFCURVE",
"985 -29 CURVE SMOOTH"
);
}
);
width = 1592;
},
{
hints = (
{
horizontal = 1;
place = "{-33, 54}";
type = Stem;
},
{
place = "{1239, 60}";
type = Stem;
},
{
place = "{1033, 60}";
type = Stem;
},
{
horizontal = 1;
place = "{1621, 60}";
type = Stem;
},
{
place = "{293, 56}";
type = Stem;
},
{
horizontal = 1;
place = "{0, 21}";
target = up;
type = BottomGhost;
}
);
layerId = "ac360476-f880-49b3-af70-f23fb533da3d";
paths = (
{
closed = 1;
nodes = (
"1124 -33 OFFCURVE",
"1299 142 OFFCURVE",
"1299 385 CURVE SMOOTH",
"1299 766 OFFCURVE",
"869 742 OFFCURVE",
"869 917 CURVE SMOOTH",
"869 1043 OFFCURVE",
"1093 1050 OFFCURVE",
"1093 1322 CURVE SMOOTH",
"1093 1551 OFFCURVE",
"935 1681 OFFCURVE",
"725 1681 CURVE SMOOTH",
"446 1681 OFFCURVE",
"293 1452 OFFCURVE",
"293 1121 CURVE SMOOTH",
"293 0 LINE",
"349 0 LINE",
"349 1115 LINE SMOOTH",
"349 1427 OFFCURVE",
"482 1621 OFFCURVE",
"721 1621 CURVE SMOOTH",
"900 1621 OFFCURVE",
"1033 1513 OFFCURVE",
"1033 1320 CURVE SMOOTH",
"1033 1071 OFFCURVE",
"811 1079 OFFCURVE",
"811 919 CURVE SMOOTH",
"811 698 OFFCURVE",
"1239 740 OFFCURVE",
"1239 382 CURVE SMOOTH",
"1239 161 OFFCURVE",
"1076 21 OFFCURVE",
"876 21 CURVE SMOOTH",
"751 21 OFFCURVE",
"651 75 OFFCURVE",
"539 165 CURVE",
"508 116 LINE",
"640 14 OFFCURVE",
"742 -33 OFFCURVE",
"872 -33 CURVE SMOOTH"
);
}
);
width = 1485;
}
);
leftMetricsKey = H;
rightMetricsKey = S;
unicode = 1E9E;
},
{
color = 5;
glyphname = T;
lastChange = "2020-02-27 21:29:52 +0000";
layers = (
{
anchors = (
{
name = bottom;
position = "{569, 0}";
},
{
name = top;
position = "{569, 1650}";
}
);
hints = (
{
horizontal = 1;
place = "{1264, 386}";
type = Stem;
},
{
place = "{349, 440}";
type = Stem;
},
{
horizontal = 1;
place = "{0, 21}";
target = up;
type = BottomGhost;
}
);
layerId = "e62399bb-6e96-4ffb-a9ce-09aa31d52a36";
paths = (
{
closed = 1;
nodes = (
"789 0 LINE",
"789 1264 LINE",
"1149 1264 LINE",
"1149 1650 LINE",
"-11 1650 LINE",
"-11 1264 LINE",
"349 1264 LINE",
"349 0 LINE"
);
}
);
width = 1138;
},
{
anchors = (
{
name = bottom;
position = "{669, 0}";
},
{
name = top;
position = "{669, 1650}";
}
);
hints = (
{
horizontal = 1;
place = "{1467, 183}";
type = Stem;
},
{
place = "{567, 204}";
type = Stem;
},
{
horizontal = 1;
place = "{0, 21}";
target = up;
type = BottomGhost;
}
);
layerId = "b7c3c141-dc0f-46db-926d-e180a8f83e45";
paths = (
{
closed = 1;
nodes = (
"771 0 LINE",
"771 1467 LINE",
"1249 1467 LINE",
"1249 1650 LINE",
"89 1650 LINE",
"89 1467 LINE",
"567 1467 LINE",
"567 0 LINE"
);
}
);
width = 1338;
},
{
anchors = (
{
name = bottom;
position = "{732, 0}";
},
{
name = top;
position = "{732, 1650}";
}
);
hints = (
{
horizontal = 1;
place = "{1594, 56}";
type = Stem;
},
{
place = "{704, 56}";
type = Stem;
},
{
horizontal = 1;
place = "{0, 21}";
target = up;
type = BottomGhost;
}
);
layerId = "ac360476-f880-49b3-af70-f23fb533da3d";
paths = (
{
closed = 1;
nodes = (
"760 0 LINE",
"760 1594 LINE",
"1312 1594 LINE",
"1312 1650 LINE",
"152 1650 LINE",
"152 1594 LINE",
"704 1594 LINE",
"704 0 LINE"
);
}
);
width = 1464;
}
);
leftKerningGroup = _T;
rightKerningGroup = _T;
unicode = 0054;
},
{
color = 5;
glyphname = Tbar;
lastChange = "2020-02-27 21:29:52 +0000";
layers = (
{
components = (
{
alignment = -1;
name = T;
}
);
layerId = "e62399bb-6e96-4ffb-a9ce-09aa31d52a36";
paths = (
{
closed = 1;
nodes = (
"959 764 LINE",
"959 1058 LINE",
"179 1058 LINE",
"179 764 LINE"
);
}
);
width = 1138;
},
{
components = (
{
alignment = -1;
name = T;
}
);
layerId = "b7c3c141-dc0f-46db-926d-e180a8f83e45";
paths = (
{
closed = 1;
nodes = (
"1044 913 LINE",
"1044 1057 LINE",
"295 1057 LINE",
"295 913 LINE"
);
}
);
width = 1338;
},
{
components = (
{
alignment = -1;
name = T;
}
);
layerId = "ac360476-f880-49b3-af70-f23fb533da3d";
paths = (
{
closed = 1;
nodes = (
"1097 1007 LINE",
"1097 1057 LINE",
"368 1057 LINE",
"368 1007 LINE"
);
}
);
width = 1464;
}
);
unicode = 0166;
},
{
color = 5;
glyphname = U;
lastChange = "2020-02-27 21:29:52 +0000";
layers = (
{
anchors = (
{
name = bottom;
position = "{831, 0}";
},
{
name = ogonek;
position = "{953, 0}";
},
{
name = top;
position = "{831, 1650}";
}
);
hints = (
{
place = "{165, 440}";
type = Stem;
},
{
place = "{1057, 440}";
type = Stem;
},
{
horizontal = 1;
place = "{-32, 432}";
type = Stem;
},
{
horizontal = 1;
place = "{1650, -20}";
target = down;
type = TopGhost;
}
);
layerId = "e62399bb-6e96-4ffb-a9ce-09aa31d52a36";
paths = (
{
closed = 1;
nodes = (
"1269 -32 OFFCURVE",
"1497 178 OFFCURVE",
"1497 582 CURVE SMOOTH",
"1497 1650 LINE",
"1057 1650 LINE",
"1057 714 LINE SMOOTH",
"1057 476 OFFCURVE",
"1002 400 OFFCURVE",
"831 400 CURVE SMOOTH",
"660 400 OFFCURVE",
"605 476 OFFCURVE",
"605 714 CURVE SMOOTH",
"605 1650 LINE",
"165 1650 LINE",
"165 582 LINE SMOOTH",
"165 178 OFFCURVE",
"393 -32 OFFCURVE",
"831 -32 CURVE SMOOTH"
);
}
);
width = 1662;
},
{
anchors = (
{
name = bottom;
position = "{818, 0}";
},
{
name = ogonek;
position = "{890, 0}";
},
{
name = top;
position = "{818, 1650}";
}
);
hints = (
{
place = "{230, 204}";
type = Stem;
},
{
place = "{1203, 204}";
type = Stem;
},
{
horizontal = 1;
place = "{-32, 201}";
type = Stem;
},
{
horizontal = 1;
place = "{1650, -20}";
target = down;
type = TopGhost;
}
);
layerId = "b7c3c141-dc0f-46db-926d-e180a8f83e45";
paths = (
{
closed = 1;
nodes = (
"1209 -32 OFFCURVE",
"1407 177 OFFCURVE",
"1407 589 CURVE SMOOTH",
"1407 1650 LINE",
"1203 1650 LINE",
"1203 640 LINE SMOOTH",
"1203 319 OFFCURVE",
"1079 169 OFFCURVE",
"818 169 CURVE SMOOTH",
"558 169 OFFCURVE",
"434 319 OFFCURVE",
"434 640 CURVE SMOOTH",
"434 1650 LINE",
"230 1650 LINE",
"230 589 LINE SMOOTH",
"230 177 OFFCURVE",
"428 -32 OFFCURVE",
"818 -32 CURVE SMOOTH"
);
}
);
width = 1637;
},
{
anchors = (
{
name = bottom;
position = "{811, 0}";
},
{
name = ogonek;
position = "{851, 0}";
},
{
name = top;
position = "{811, 1650}";
}
);
hints = (
{
place = "{271, 56}";
type = Stem;
},
{
place = "{1295, 56}";
type = Stem;
},
{
horizontal = 1;
place = "{-32, 56}";
type = Stem;
},
{
horizontal = 1;
place = "{1650, -20}";
target = down;
type = TopGhost;
}
);
layerId = "ac360476-f880-49b3-af70-f23fb533da3d";
paths = (
{
closed = 1;
nodes = (
"1159 -32 OFFCURVE",
"1351 191 OFFCURVE",
"1351 594 CURVE SMOOTH",
"1351 1650 LINE",
"1295 1650 LINE",
"1295 594 LINE SMOOTH",
"1295 221 OFFCURVE",
"1128 24 OFFCURVE",
"811 24 CURVE SMOOTH",
"494 24 OFFCURVE",
"327 221 OFFCURVE",
"327 594 CURVE SMOOTH",
"327 1650 LINE",
"271 1650 LINE",
"271 594 LINE SMOOTH",
"271 191 OFFCURVE",
"463 -32 OFFCURVE",
"811 -32 CURVE SMOOTH"
);
}
);
width = 1622;
}
);
rightKerningGroup = _A1;
unicode = 0055;
},
{
color = 5;
glyphname = Uogonek;
lastChange = "2020-02-27 21:29:52 +0000";
layers = (
{
hints = (
{
place = "{165, 440}";
type = Stem;
},
{
place = "{1057, 440}";
type = Stem;
},
{
horizontal = 1;
place = "{-32, 432}";
type = Stem;
},
{
horizontal = 1;
place = "{1650, -20}";
target = down;
type = TopGhost;
}
);
layerId = "e62399bb-6e96-4ffb-a9ce-09aa31d52a36";
paths = (
{
closed = 1;
nodes = (
"930 -32 OFFCURVE",
"1018 -21 OFFCURVE",
"1096 0 CURVE",
"1008 0 LINE",
"900 -124 OFFCURVE",
"841 -241 OFFCURVE",
"841 -332 CURVE SMOOTH",
"841 -456 OFFCURVE",
"949 -557 OFFCURVE",
"1093 -557 CURVE SMOOTH",
"1200 -557 OFFCURVE",
"1306 -502 OFFCURVE",
"1367 -413 CURVE",
"1201 -289 LINE",
"1185 -318 OFFCURVE",
"1156 -337 OFFCURVE",
"1128 -337 CURVE SMOOTH",
"1095 -337 OFFCURVE",
"1077 -312 OFFCURVE",
"1077 -267 CURVE SMOOTH",
"1077 -167 OFFCURVE",
"1168 4 OFFCURVE",
"1282 86 CURVE SMOOTH",
"1424 188 OFFCURVE",
"1497 354 OFFCURVE",
"1497 582 CURVE SMOOTH",
"1497 1650 LINE",
"1057 1650 LINE",
"1057 714 LINE SMOOTH",
"1057 476 OFFCURVE",
"1002 400 OFFCURVE",
"831 400 CURVE SMOOTH",
"660 400 OFFCURVE",
"605 476 OFFCURVE",
"605 714 CURVE SMOOTH",
"605 1650 LINE",
"165 1650 LINE",
"165 582 LINE SMOOTH",
"165 178 OFFCURVE",
"393 -32 OFFCURVE",
"831 -32 CURVE SMOOTH"
);
}
);
width = 1662;
},
{
hints = (
{
place = "{230, 204}";
type = Stem;
},
{
place = "{1203, 204}";
type = Stem;
},
{
horizontal = 1;
place = "{-32, 201}";
type = Stem;
},
{
horizontal = 1;
place = "{1650, -20}";
target = down;
type = TopGhost;
}
);
layerId = "b7c3c141-dc0f-46db-926d-e180a8f83e45";
paths = (
{
closed = 1;
nodes = (
"906 -32 OFFCURVE",
"985 -21 OFFCURVE",
"1054 0 CURVE",
"1030 0 LINE",
"915 -125 OFFCURVE",
"851 -242 OFFCURVE",
"851 -334 CURVE SMOOTH",
"851 -458 OFFCURVE",
"956 -559 OFFCURVE",
"1102 -559 CURVE SMOOTH",
"1210 -559 OFFCURVE",
"1316 -504 OFFCURVE",
"1377 -415 CURVE",
"1292 -352 LINE",
"1240 -413 OFFCURVE",
"1184 -442 OFFCURVE",
"1119 -442 CURVE SMOOTH",
"1023 -442 OFFCURVE",
"974 -382 OFFCURVE",
"974 -309 CURVE SMOOTH",
"974 -206 OFFCURVE",
"1073 -39 OFFCURVE",
"1228 94 CURVE SMOOTH",
"1347 197 OFFCURVE",
"1407 362 OFFCURVE",
"1407 589 CURVE SMOOTH",
"1407 1650 LINE",
"1203 1650 LINE",
"1203 640 LINE SMOOTH",
"1203 319 OFFCURVE",
"1079 169 OFFCURVE",
"818 169 CURVE SMOOTH",
"558 169 OFFCURVE",
"434 319 OFFCURVE",
"434 640 CURVE SMOOTH",
"434 1650 LINE",
"230 1650 LINE",
"230 589 LINE SMOOTH",
"230 177 OFFCURVE",
"428 -32 OFFCURVE",
"818 -32 CURVE SMOOTH"
);
}
);
width = 1637;
},
{
hints = (
{
place = "{271, 56}";
type = Stem;
},
{
place = "{1295, 56}";
type = Stem;
},
{
horizontal = 1;
place = "{-32, 56}";
type = Stem;
},
{
horizontal = 1;
place = "{1650, -20}";
target = down;
type = TopGhost;
}
);
layerId = "ac360476-f880-49b3-af70-f23fb533da3d";
paths = (
{
closed = 1;
nodes = (
"909 -32 OFFCURVE",
"994 -14 OFFCURVE",
"1067 20 CURVE",
"1047 20 LINE",
"915 -113 OFFCURVE",
"841 -230 OFFCURVE",
"841 -335 CURVE SMOOTH",
"841 -458 OFFCURVE",
"944 -559 OFFCURVE",
"1091 -559 CURVE SMOOTH",
"1200 -559 OFFCURVE",
"1306 -504 OFFCURVE",
"1367 -415 CURVE",
"1333 -391 LINE",
"1259 -472 OFFCURVE",
"1185 -507 OFFCURVE",
"1097 -507 CURVE SMOOTH",
"962 -507 OFFCURVE",
"893 -429 OFFCURVE",
"893 -332 CURVE SMOOTH",
"893 -216 OFFCURVE",
"992 -69 OFFCURVE",
"1169 87 CURVE SMOOTH",
"1288 192 OFFCURVE",
"1351 363 OFFCURVE",
"1351 594 CURVE SMOOTH",
"1351 1650 LINE",
"1295 1650 LINE",
"1295 594 LINE SMOOTH",
"1295 221 OFFCURVE",
"1128 24 OFFCURVE",
"811 24 CURVE SMOOTH",
"494 24 OFFCURVE",
"327 221 OFFCURVE",
"327 594 CURVE SMOOTH",
"327 1650 LINE",
"271 1650 LINE",
"271 594 LINE SMOOTH",
"271 191 OFFCURVE",
"463 -32 OFFCURVE",
"811 -32 CURVE SMOOTH"
);
}
);
width = 1638;
}
);
leftMetricsKey = U;
rightMetricsKey = U;
unicode = 0172;
},
{
color = 5;
glyphname = V;
lastChange = "2020-02-27 21:29:52 +0000";
layers = (
{
anchors = (
{
name = bottom;
position = "{821, 0}";
},
{
name = top;
position = "{821, 1650}";
}
);
layerId = "e62399bb-6e96-4ffb-a9ce-09aa31d52a36";
paths = (
{
closed = 1;
nodes = (
"993 0 LINE",
"1685 1650 LINE",
"1189 1650 LINE",
"821 662 LINE",
"453 1650 LINE",
"-43 1650 LINE",
"649 0 LINE"
);
}
);
width = 1642;
},
{
anchors = (
{
name = bottom;
position = "{852, 0}";
},
{
name = top;
position = "{852, 1650}";
}
);
layerId = "b7c3c141-dc0f-46db-926d-e180a8f83e45";
paths = (
{
closed = 1;
nodes = (
"932 0 LINE",
"1624 1650 LINE",
"1393 1650 LINE",
"852 307 LINE",
"310 1650 LINE",
"80 1650 LINE",
"772 0 LINE"
);
}
);
width = 1703;
},
{
anchors = (
{
name = bottom;
position = "{871, 0}";
},
{
name = top;
position = "{871, 1650}";
}
);
layerId = "ac360476-f880-49b3-af70-f23fb533da3d";
paths = (
{
closed = 1;
nodes = (
"893 0 LINE",
"1585 1650 LINE",
"1521 1650 LINE",
"871 84 LINE",
"221 1650 LINE",
"157 1650 LINE",
"849 0 LINE"
);
}
);
width = 1742;
}
);
leftKerningGroup = _V;
rightKerningGroup = _V;
unicode = 0056;
},
{
color = 5;
glyphname = W;
lastChange = "2020-02-27 21:29:52 +0000";
layers = (
{
anchors = (
{
name = bottom;
position = "{1150, 0}";
},
{
name = top;
position = "{1150, 1650}";
}
);
hints = (
{
horizontal = 1;
place = "{1650, -20}";
target = down;
type = TopGhost;
},
{
horizontal = 1;
place = "{0, 21}";
target = up;
type = BottomGhost;
}
);
layerId = "e62399bb-6e96-4ffb-a9ce-09aa31d52a36";
paths = (
{
closed = 1;
nodes = (
"944 0 LINE",
"1150 804 LINE",
"1356 0 LINE",
"1844 0 LINE",
"2310 1650 LINE",
"1820 1650 LINE",
"1576 610 LINE",
"1314 1650 LINE",
"986 1650 LINE",
"724 610 LINE",
"480 1650 LINE",
"-10 1650 LINE",
"456 0 LINE"
);
}
);
width = 2300;
},
{
anchors = (
{
name = bottom;
position = "{1227, 0}";
},
{
name = top;
position = "{1227, 1650}";
}
);
hints = (
{
horizontal = 1;
place = "{1650, -20}";
target = down;
type = TopGhost;
},
{
horizontal = 1;
place = "{0, 21}";
target = up;
type = BottomGhost;
}
);
layerId = "b7c3c141-dc0f-46db-926d-e180a8f83e45";
paths = (
{
closed = 1;
nodes = (
"810 0 LINE",
"1227 1253 LINE",
"1644 0 LINE",
"1872 0 LINE",
"2358 1650 LINE",
"2131 1650 LINE",
"1749 272 LINE",
"1305 1650 LINE",
"1149 1650 LINE",
"705 272 LINE",
"323 1650 LINE",
"96 1650 LINE",
"582 0 LINE"
);
}
);
width = 2455;
},
{
anchors = (
{
name = bottom;
position = "{1276, 0}";
},
{
name = top;
position = "{1276, 1650}";
}
);
hints = (
{
horizontal = 1;
place = "{1650, -20}";
target = down;
type = TopGhost;
},
{
horizontal = 1;
place = "{0, 21}";
target = up;
type = BottomGhost;
}
);
layerId = "ac360476-f880-49b3-af70-f23fb533da3d";
paths = (
{
closed = 1;
nodes = (
"728 0 LINE",
"1276 1550 LINE",
"1824 0 LINE",
"1890 0 LINE",
"2388 1650 LINE",
"2326 1650 LINE",
"1857 74 LINE",
"1300 1650 LINE",
"1252 1650 LINE",
"695 74 LINE",
"226 1650 LINE",
"164 1650 LINE",
"662 0 LINE"
);
}
);
width = 2552;
}
);
leftKerningGroup = _V;
rightKerningGroup = _V;
unicode = 0057;
},
{
color = 5;
glyphname = X;
lastChange = "2020-02-27 21:29:52 +0000";
layers = (
{
hints = (
{
horizontal = 1;
place = "{1650, -20}";
target = down;
type = TopGhost;
},
{
horizontal = 1;
place = "{0, 21}";
target = up;
type = BottomGhost;
}
);
layerId = "e62399bb-6e96-4ffb-a9ce-09aa31d52a36";
paths = (
{
closed = 1;
nodes = (
"492 0 LINE",
"840 506 LINE",
"1188 0 LINE",
"1732 0 LINE",
"1110 888 LINE",
"1628 1650 LINE",
"1104 1650 LINE",
"840 1252 LINE",
"576 1650 LINE",
"52 1650 LINE",
"570 888 LINE",
"-52 0 LINE"
);
}
);
width = 1680;
},
{
hints = (
{
horizontal = 1;
place = "{1650, -20}";
target = down;
type = TopGhost;
},
{
horizontal = 1;
place = "{0, 21}";
target = up;
type = BottomGhost;
}
);
layerId = "b7c3c141-dc0f-46db-926d-e180a8f83e45";
paths = (
{
closed = 1;
nodes = (
"327 0 LINE",
"828 713 LINE",
"1329 0 LINE",
"1583 0 LINE",
"955 890 LINE",
"1485 1650 LINE",
"1240 1650 LINE",
"828 1061 LINE",
"416 1650 LINE",
"171 1650 LINE",
"701 890 LINE",
"73 0 LINE"
);
}
);
width = 1657;
},
{
hints = (
{
horizontal = 1;
place = "{1650, -20}";
target = down;
type = TopGhost;
},
{
horizontal = 1;
place = "{0, 21}";
target = up;
type = BottomGhost;
}
);
layerId = "ac360476-f880-49b3-af70-f23fb533da3d";
paths = (
{
closed = 1;
nodes = (
"223 0 LINE",
"821 842 LINE",
"1419 0 LINE",
"1491 0 LINE",
"857 892 LINE",
"1395 1650 LINE",
"1325 1650 LINE",
"821 942 LINE",
"317 1650 LINE",
"247 1650 LINE",
"785 892 LINE",
"151 0 LINE"
);
}
);
width = 1642;
}
);
rightKerningGroup = _A1;
unicode = 0058;
},
{
color = 5;
glyphname = Y;
lastChange = "2020-02-27 21:29:52 +0000";
layers = (
{
anchors = (
{
name = bottom;
position = "{770, 0}";
},
{
name = top;
position = "{770, 1650}";
}
);
hints = (
{
place = "{550, 440}";
type = Stem;
},
{
horizontal = 1;
place = "{1650, -20}";
target = down;
type = TopGhost;
},
{
horizontal = 1;
place = "{0, 21}";
target = up;
type = BottomGhost;
}
);
layerId = "e62399bb-6e96-4ffb-a9ce-09aa31d52a36";
paths = (
{
closed = 1;
nodes = (
"990 0 LINE",
"990 748 LINE",
"1610 1650 LINE",
"1080 1650 LINE",
"770 1192 LINE",
"460 1650 LINE",
"-70 1650 LINE",
"550 748 LINE",
"550 0 LINE"
);
}
);
width = 1540;
},
{
anchors = (
{
name = bottom;
position = "{745, 0}";
},
{
name = top;
position = "{745, 1650}";
}
);
hints = (
{
place = "{643, 204}";
type = Stem;
},
{
horizontal = 1;
place = "{1650, -20}";
target = down;
type = TopGhost;
},
{
horizontal = 1;
place = "{0, 21}";
target = up;
type = BottomGhost;
}
);
layerId = "b7c3c141-dc0f-46db-926d-e180a8f83e45";
paths = (
{
closed = 1;
nodes = (
"847 0 LINE",
"847 721 LINE",
"1424 1650 LINE",
"1178 1650 LINE",
"745 934 LINE",
"312 1650 LINE",
"66 1650 LINE",
"643 721 LINE",
"643 0 LINE"
);
}
);
width = 1490;
},
{
anchors = (
{
name = bottom;
position = "{730, 0}";
},
{
name = top;
position = "{730, 1650}";
}
);
hints = (
{
place = "{702, 56}";
type = Stem;
},
{
horizontal = 1;
place = "{1650, -20}";
target = down;
type = TopGhost;
},
{
horizontal = 1;
place = "{0, 21}";
target = up;
type = BottomGhost;
}
);
layerId = "ac360476-f880-49b3-af70-f23fb533da3d";
paths = (
{
closed = 1;
nodes = (
"758 0 LINE",
"758 704 LINE",
"1308 1650 LINE",
"1240 1650 LINE",
"730 772 LINE",
"220 1650 LINE",
"152 1650 LINE",
"702 704 LINE",
"702 0 LINE"
);
}
);
width = 1460;
}
);
leftKerningGroup = _Y;
rightKerningGroup = _Y;
unicode = 0059;
},
{
color = 5;
glyphname = Z;
lastChange = "2020-02-27 21:29:52 +0000";
layers = (
{
anchors = (
{
name = bottom;
position = "{758, 0}";
},
{
name = center;
position = "{758, 825}";
},
{
name = top;
position = "{758, 1650}";
}
);
hints = (
{
horizontal = 1;
place = "{1266, 384}";
type = Stem;
},
{
horizontal = 1;
place = "{0, 384}";
type = Stem;
}
);
layerId = "e62399bb-6e96-4ffb-a9ce-09aa31d52a36";
paths = (
{
closed = 1;
nodes = (
"1448 0 LINE",
"1448 384 LINE",
"758 384 LINE",
"1500 1650 LINE",
"110 1650 LINE",
"110 1266 LINE",
"734 1266 LINE",
"-8 0 LINE"
);
}
);
width = 1516;
},
{
anchors = (
{
name = bottom;
position = "{787, 0}";
},
{
name = center;
position = "{787, 825}";
},
{
name = top;
position = "{787, 1650}";
}
);
hints = (
{
horizontal = 1;
place = "{1468, 182}";
type = Stem;
},
{
horizontal = 1;
place = "{0, 182}";
type = Stem;
}
);
layerId = "b7c3c141-dc0f-46db-926d-e180a8f83e45";
paths = (
{
closed = 1;
nodes = (
"1417 0 LINE",
"1417 182 LINE",
"454 182 LINE",
"1471 1650 LINE",
"204 1650 LINE",
"204 1468 LINE",
"1107 1468 LINE",
"90 0 LINE"
);
}
);
width = 1573;
},
{
anchors = (
{
name = bottom;
position = "{805, 0}";
},
{
name = center;
position = "{805, 825}";
},
{
name = top;
position = "{805, 1650}";
}
);
hints = (
{
horizontal = 1;
place = "{1594, 56}";
type = Stem;
},
{
horizontal = 1;
place = "{0, 56}";
type = Stem;
}
);
layerId = "ac360476-f880-49b3-af70-f23fb533da3d";
paths = (
{
closed = 1;
nodes = (
"1397 0 LINE",
"1397 56 LINE",
"263 56 LINE",
"1453 1650 LINE",
"263 1650 LINE",
"263 1594 LINE",
"1341 1594 LINE",
"151 0 LINE"
);
}
);
width = 1609;
}
);
rightKerningGroup = _A1;
unicode = 005A;
},
{
color = 5;
glyphname = M.alt;
lastChange = "2020-02-27 21:29:52 +0000";
layers = (
{
anchors = (
{
name = bottom;
position = "{1068, 0}";
},
{
name = top;
position = "{1068, 1650}";
}
);
hints = (
{
place = "{196, 440}";
type = Stem;
},
{
place = "{1500, 440}";
type = Stem;
},
{
horizontal = 1;
place = "{0, 21}";
target = up;
type = BottomGhost;
},
{
horizontal = 1;
place = "{1650, -20}";
target = down;
type = TopGhost;
}
);
layerId = "e62399bb-6e96-4ffb-a9ce-09aa31d52a36";
paths = (
{
closed = 1;
nodes = (
"636 0 LINE",
"636 730 LINE",
"940 0 LINE",
"1196 0 LINE",
"1500 730 LINE",
"1500 0 LINE",
"1940 0 LINE",
"1940 1650 LINE",
"1436 1650 LINE",
"1068 794 LINE",
"700 1650 LINE",
"196 1650 LINE",
"196 0 LINE"
);
}
);
width = 2136;
},
{
anchors = (
{
name = bottom;
position = "{995, 82}";
},
{
name = top;
position = "{995, 1650}";
}
);
hints = (
{
place = "{256, 204}";
type = Stem;
},
{
place = "{1530, 204}";
type = Stem;
},
{
horizontal = 1;
place = "{0, 21}";
target = up;
type = BottomGhost;
},
{
horizontal = 1;
place = "{1650, -20}";
target = down;
type = TopGhost;
}
);
layerId = "b7c3c141-dc0f-46db-926d-e180a8f83e45";
paths = (
{
closed = 1;
nodes = (
"460 0 LINE",
"460 1203 LINE",
"927 82 LINE",
"1063 82 LINE",
"1530 1203 LINE",
"1530 0 LINE",
"1734 0 LINE",
"1734 1650 LINE",
"1503 1650 LINE",
"995 438 LINE",
"487 1650 LINE",
"256 1650 LINE",
"256 0 LINE"
);
}
);
width = 1990;
},
{
anchors = (
{
name = bottom;
position = "{979, 134}";
},
{
name = top;
position = "{949, 1650}";
}
);
hints = (
{
place = "{293, 56}";
type = Stem;
},
{
place = "{1549, 56}";
type = Stem;
},
{
horizontal = 1;
place = "{0, 21}";
target = up;
type = BottomGhost;
},
{
horizontal = 1;
place = "{1650, -20}";
target = down;
type = TopGhost;
}
);
layerId = "ac360476-f880-49b3-af70-f23fb533da3d";
paths = (
{
closed = 1;
nodes = (
"349 0 LINE",
"349 1500 LINE",
"919 134 LINE",
"979 134 LINE",
"1549 1500 LINE",
"1549 0 LINE",
"1605 0 LINE",
"1605 1650 LINE",
"1545 1650 LINE",
"949 214 LINE",
"353 1650 LINE",
"293 1650 LINE",
"293 0 LINE"
);
}
);
width = 1898;
}
);
},
{
color = 5;
glyphname = a;
lastChange = "2020-02-27 21:29:52 +0000";
layers = (
{
anchors = (
{
name = bottom;
position = "{579, -10}";
},
{
name = ogonek;
position = "{1307, 0}";
},
{
name = top;
position = "{699, 1024}";
}
);
hints = (
{
horizontal = 1;
place = "{-32, 352}";
type = Stem;
},
{
horizontal = 1;
place = "{704, 352}";
type = Stem;
},
{
place = "{73, 440}";
type = Stem;
},
{
place = "{891, 416}";
type = Stem;
},
{
horizontal = 1;
place = "{1024, -20}";
target = down;
type = TopGhost;
},
{
horizontal = 1;
place = "{0, 21}";
target = up;
type = BottomGhost;
}
);
layerId = "e62399bb-6e96-4ffb-a9ce-09aa31d52a36";
paths = (
{
closed = 1;
nodes = (
"513 623 OFFCURVE",
"596 704 OFFCURVE",
"707 704 CURVE SMOOTH",
"818 704 OFFCURVE",
"899 623 OFFCURVE",
"899 512 CURVE SMOOTH",
"899 401 OFFCURVE",
"818 320 OFFCURVE",
"707 320 CURVE SMOOTH",
"596 320 OFFCURVE",
"513 401 OFFCURVE",
"513 512 CURVE SMOOTH"
);
},
{
closed = 1;
nodes = (
"73 209 OFFCURVE",
"281 -32 OFFCURVE",
"579 -32 CURVE SMOOTH",
"697 -32 OFFCURVE",
"800 5 OFFCURVE",
"891 80 CURVE",
"891 0 LINE",
"1307 0 LINE",
"1307 1024 LINE",
"891 1024 LINE",
"891 944 LINE",
"800 1019 OFFCURVE",
"697 1056 OFFCURVE",
"579 1056 CURVE SMOOTH",
"281 1056 OFFCURVE",
"73 819 OFFCURVE",
"73 514 CURVE SMOOTH"
);
}
);
width = 1464;
},
{
anchors = (
{
name = bottom;
position = "{639, 0}";
},
{
name = ogonek;
position = "{1236, 0}";
},
{
name = top;
position = "{699, 1024}";
}
);
hints = (
{
horizontal = 1;
place = "{-32, 168}";
type = Stem;
},
{
horizontal = 1;
place = "{888, 168}";
type = Stem;
},
{
place = "{130, 202}";
type = Stem;
},
{
place = "{1042, 194}";
type = Stem;
},
{
horizontal = 1;
place = "{1024, -20}";
target = down;
type = TopGhost;
},
{
horizontal = 1;
place = "{0, 21}";
target = up;
type = BottomGhost;
}
);
layerId = "b7c3c141-dc0f-46db-926d-e180a8f83e45";
paths = (
{
closed = 1;
nodes = (
"332 731 OFFCURVE",
"483 888 OFFCURVE",
"691 888 CURVE SMOOTH",
"900 888 OFFCURVE",
"1049 732 OFFCURVE",
"1049 512 CURVE SMOOTH",
"1049 293 OFFCURVE",
"900 136 OFFCURVE",
"691 136 CURVE SMOOTH",
"483 136 OFFCURVE",
"332 293 OFFCURVE",
"332 512 CURVE SMOOTH"
);
},
{
closed = 1;
nodes = (
"130 201 OFFCURVE",
"345 -32 OFFCURVE",
"639 -32 CURVE SMOOTH",
"808 -32 OFFCURVE",
"953 50 OFFCURVE",
"1042 192 CURVE",
"1042 0 LINE",
"1236 0 LINE",
"1236 1024 LINE",
"1042 1024 LINE",
"1042 832 LINE",
"953 974 OFFCURVE",
"808 1056 OFFCURVE",
"639 1056 CURVE SMOOTH",
"345 1056 OFFCURVE",
"130 823 OFFCURVE",
"130 512 CURVE SMOOTH"
);
}
);
width = 1442;
},
{
anchors = (
{
name = bottom;
position = "{677, 0}";
},
{
name = ogonek;
position = "{1193, 0}";
},
{
name = top;
position = "{707, 1024}";
}
);
hints = (
{
horizontal = 1;
place = "{-32, 52}";
type = Stem;
},
{
horizontal = 1;
place = "{1004, 52}";
type = Stem;
},
{
place = "{165, 54}";
type = Stem;
},
{
place = "{1137, 56}";
type = Stem;
},
{
horizontal = 1;
place = "{1024, -20}";
target = down;
type = TopGhost;
},
{
horizontal = 1;
place = "{0, 21}";
target = up;
type = BottomGhost;
}
);
layerId = "ac360476-f880-49b3-af70-f23fb533da3d";
paths = (
{
closed = 1;
nodes = (
"219 799 OFFCURVE",
"412 1004 OFFCURVE",
"681 1004 CURVE SMOOTH",
"950 1004 OFFCURVE",
"1143 800 OFFCURVE",
"1143 512 CURVE SMOOTH",
"1143 225 OFFCURVE",
"950 20 OFFCURVE",
"681 20 CURVE SMOOTH",
"412 20 OFFCURVE",
"219 225 OFFCURVE",
"219 512 CURVE SMOOTH"
);
},
{
closed = 1;
nodes = (
"165 197 OFFCURVE",
"385 -32 OFFCURVE",
"677 -32 CURVE SMOOTH",
"881 -32 OFFCURVE",
"1053 79 OFFCURVE",
"1137 262 CURVE",
"1137 0 LINE",
"1193 0 LINE",
"1193 1024 LINE",
"1137 1024 LINE",
"1137 762 LINE",
"1053 945 OFFCURVE",
"881 1056 OFFCURVE",
"677 1056 CURVE SMOOTH",
"385 1056 OFFCURVE",
"165 827 OFFCURVE",
"165 512 CURVE SMOOTH"
);
}
);
width = 1428;
}
);
leftKerningGroup = _a;
rightKerningGroup = _a;
unicode = 0061;
},
{
color = 5;
glyphname = ae;
lastChange = "2020-02-27 21:29:52 +0000";
layers = (
{
hints = (
{
horizontal = 1;
place = "{-32, 246}";
type = Stem;
},
{
horizontal = 1;
place = "{380, 216}";
type = Stem;
},
{
horizontal = 1;
place = "{728, 328}";
type = Stem;
},
{
horizontal = 1;
place = "{-32, 328}";
type = Stem;
},
{
horizontal = 1;
place = "{454, 216}";
type = Stem;
},
{
horizontal = 1;
place = "{780, 276}";
type = Stem;
},
{
place = "{0, 412}";
type = Stem;
},
{
place = "{1376, 406}";
type = Stem;
}
);
layerId = "e62399bb-6e96-4ffb-a9ce-09aa31d52a36";
paths = (
{
closed = 1;
nodes = (
"488 -32 OFFCURVE",
"604 -1 OFFCURVE",
"848 94 CURVE",
"969 7 OFFCURVE",
"1092 -32 OFFCURVE",
"1242 -32 CURVE SMOOTH",
"1478 -32 OFFCURVE",
"1665 65 OFFCURVE",
"1766 240 CURVE",
"1468 388 LINE",
"1395 317 OFFCURVE",
"1352 296 OFFCURVE",
"1277 296 CURVE SMOOTH",
"1154 296 OFFCURVE",
"1084 353 OFFCURVE",
"1084 454 CURVE",
"1778 454 LINE",
"1781 485 OFFCURVE",
"1782 508 OFFCURVE",
"1782 528 CURVE SMOOTH",
"1782 846 OFFCURVE",
"1563 1056 OFFCURVE",
"1233 1056 CURVE SMOOTH",
"1109 1056 OFFCURVE",
"994 1027 OFFCURVE",
"888 968 CURVE",
"788 1024 OFFCURVE",
"635 1056 OFFCURVE",
"475 1056 CURVE SMOOTH",
"318 1056 OFFCURVE",
"173 1025 OFFCURVE",
"68 968 CURVE",
"194 684 LINE",
"253 707 OFFCURVE",
"376 728 OFFCURVE",
"449 728 CURVE SMOOTH",
"570 728 OFFCURVE",
"664 670 OFFCURVE",
"664 594 CURVE SMOOTH",
"664 534 LINE",
"583 572 OFFCURVE",
"472 596 OFFCURVE",
"378 596 CURVE SMOOTH",
"154 596 OFFCURVE",
"0 466 OFFCURVE",
"0 277 CURVE SMOOTH",
"0 82 OFFCURVE",
"137 -32 OFFCURVE",
"374 -32 CURVE SMOOTH"
);
},
{
closed = 1;
nodes = (
"470 214 OFFCURVE",
"412 253 OFFCURVE",
"412 302 CURVE SMOOTH",
"412 348 OFFCURVE",
"465 380 OFFCURVE",
"539 380 CURVE SMOOTH",
"616 380 OFFCURVE",
"678 343 OFFCURVE",
"678 296 CURVE SMOOTH",
"678 250 OFFCURVE",
"619 214 OFFCURVE",
"545 214 CURVE SMOOTH"
);
},
{
closed = 1;
nodes = (
"1096 670 LINE",
"1098 739 OFFCURVE",
"1150 780 OFFCURVE",
"1238 780 CURVE SMOOTH",
"1320 780 OFFCURVE",
"1363 745 OFFCURVE",
"1376 670 CURVE"
);
}
);
width = 1859;
},
{
hints = (
{
horizontal = 1;
place = "{-32, 127}";
type = Stem;
},
{
horizontal = 1;
place = "{504, 115}";
type = Stem;
},
{
horizontal = 1;
place = "{899, 157}";
type = Stem;
},
{
horizontal = 1;
place = "{-32, 158}";
type = Stem;
},
{
horizontal = 1;
place = "{490, 114}";
type = Stem;
},
{
horizontal = 1;
place = "{918, 138}";
type = Stem;
},
{
place = "{0, 191}";
type = Stem;
},
{
place = "{1607, 191}";
type = Stem;
}
);
layerId = "b7c3c141-dc0f-46db-926d-e180a8f83e45";
paths = (
{
closed = 1;
nodes = (
"567 -32 OFFCURVE",
"709 49 OFFCURVE",
"828 195 CURVE",
"929 50 OFFCURVE",
"1089 -32 OFFCURVE",
"1279 -32 CURVE SMOOTH",
"1491 -32 OFFCURVE",
"1667 60 OFFCURVE",
"1766 223 CURVE",
"1625 297 LINE",
"1544 184 OFFCURVE",
"1432 126 OFFCURVE",
"1293 126 CURVE SMOOTH",
"1069 126 OFFCURVE",
"915 276 OFFCURVE",
"915 490 CURVE",
"1797 490 LINE",
"1798 507 OFFCURVE",
"1798 512 OFFCURVE",
"1798 522 CURVE",
"1797 828 OFFCURVE",
"1568 1056 OFFCURVE",
"1264 1056 CURVE SMOOTH",
"1085 1056 OFFCURVE",
"930 965 OFFCURVE",
"837 828 CURVE",
"773 977 OFFCURVE",
"637 1056 OFFCURVE",
"442 1056 CURVE SMOOTH",
"287 1056 OFFCURVE",
"161 1006 OFFCURVE",
"65 921 CURVE",
"161 811 LINE",
"237 869 OFFCURVE",
"333 899 OFFCURVE",
"427 899 CURVE SMOOTH",
"605 899 OFFCURVE",
"722 790 OFFCURVE",
"722 611 CURVE SMOOTH",
"722 500 LINE",
"648 573 OFFCURVE",
"526 619 OFFCURVE",
"397 619 CURVE SMOOTH",
"169 619 OFFCURVE",
"0 486 OFFCURVE",
"0 291 CURVE SMOOTH",
"0 92 OFFCURVE",
"165 -32 OFFCURVE",
"394 -32 CURVE SMOOTH"
);
},
{
closed = 1;
nodes = (
"312 95 OFFCURVE",
"191 179 OFFCURVE",
"191 302 CURVE SMOOTH",
"191 424 OFFCURVE",
"310 504 OFFCURVE",
"459 504 CURVE SMOOTH",
"609 504 OFFCURVE",
"731 422 OFFCURVE",
"731 300 CURVE SMOOTH",
"731 177 OFFCURVE",
"610 95 OFFCURVE",
"461 95 CURVE SMOOTH"
);
},
{
closed = 1;
nodes = (
"921 604 LINE",
"936 784 OFFCURVE",
"1081 918 OFFCURVE",
"1265 918 CURVE SMOOTH",
"1448 918 OFFCURVE",
"1588 786 OFFCURVE",
"1607 604 CURVE"
);
}
);
width = 1916;
},
{
hints = (
{
horizontal = 1;
place = "{-32, 52}";
type = Stem;
},
{
horizontal = 1;
place = "{582, 52}";
type = Stem;
},
{
horizontal = 1;
place = "{1006, 50}";
type = Stem;
},
{
horizontal = 1;
place = "{-32, 52}";
type = Stem;
},
{
horizontal = 1;
place = "{512, 50}";
type = Stem;
},
{
horizontal = 1;
place = "{1004, 52}";
type = Stem;
},
{
place = "{0, 52}";
type = Stem;
},
{
place = "{1752, 56}";
type = Stem;
}
);
layerId = "ac360476-f880-49b3-af70-f23fb533da3d";
paths = (
{
closed = 1;
nodes = (
"616 -32 OFFCURVE",
"775 81 OFFCURVE",
"814 258 CURVE",
"903 77 OFFCURVE",
"1086 -32 OFFCURVE",
"1302 -32 CURVE SMOOTH",
"1498 -32 OFFCURVE",
"1668 57 OFFCURVE",
"1766 212 CURVE",
"1722 240 LINE",
"1636 101 OFFCURVE",
"1482 20 OFFCURVE",
"1302 20 CURVE SMOOTH",
"1015 20 OFFCURVE",
"808 227 OFFCURVE",
"808 512 CURVE",
"1808 512 LINE",
"1808 514 OFFCURVE",
"1808 515 OFFCURVE",
"1808 518 CURVE SMOOTH",
"1808 816 OFFCURVE",
"1570 1056 OFFCURVE",
"1282 1056 CURVE SMOOTH",
"1070 1056 OFFCURVE",
"890 926 OFFCURVE",
"804 740 CURVE",
"777 915 OFFCURVE",
"649 1056 OFFCURVE",
"415 1056 CURVE SMOOTH",
"282 1056 OFFCURVE",
"157 1010 OFFCURVE",
"62 892 CURVE",
"102 860 LINE",
"180 945 OFFCURVE",
"270 1006 OFFCURVE",
"412 1006 CURVE SMOOTH",
"627 1006 OFFCURVE",
"758 866 OFFCURVE",
"758 622 CURVE SMOOTH",
"758 478 LINE",
"688 574 OFFCURVE",
"560 634 OFFCURVE",
"408 634 CURVE SMOOTH",
"178 634 OFFCURVE",
"0 498 OFFCURVE",
"0 300 CURVE SMOOTH",
"0 99 OFFCURVE",
"182 -32 OFFCURVE",
"406 -32 CURVE SMOOTH"
);
},
{
closed = 1;
nodes = (
"212 20 OFFCURVE",
"52 132 OFFCURVE",
"52 302 CURVE SMOOTH",
"52 472 OFFCURVE",
"212 582 OFFCURVE",
"408 582 CURVE SMOOTH",
"604 582 OFFCURVE",
"764 472 OFFCURVE",
"764 302 CURVE SMOOTH",
"764 132 OFFCURVE",
"604 20 OFFCURVE",
"408 20 CURVE SMOOTH"
);
},
{
closed = 1;
nodes = (
"810 562 LINE",
"834 812 OFFCURVE",
"1037 1004 OFFCURVE",
"1282 1004 CURVE SMOOTH",
"1527 1004 OFFCURVE",
"1728 812 OFFCURVE",
"1752 562 CURVE"
);
}
);
width = 1952;
}
);
rightKerningGroup = _A1;
rightMetricsKey = e;
unicode = 00E6;
},
{
color = 5;
glyphname = b;
lastChange = "2020-02-27 21:29:52 +0000";
layers = (
{
anchors = (
{
name = bottom;
position = "{733, 0}";
},
{
name = top;
position = "{733, 1720}";
}
);
hints = (
{
horizontal = 1;
place = "{-32, 352}";
type = Stem;
},
{
horizontal = 1;
place = "{704, 352}";
type = Stem;
},
{
place = "{157, 416}";
type = Stem;
},
{
place = "{951, 440}";
type = Stem;
},
{
horizontal = 1;
place = "{1720, -20}";
target = down;
type = TopGhost;
},
{
horizontal = 1;
place = "{0, 21}";
target = up;
type = BottomGhost;
}
);
layerId = "e62399bb-6e96-4ffb-a9ce-09aa31d52a36";
paths = (
{
closed = 1;
nodes = (
"565 623 OFFCURVE",
"646 704 OFFCURVE",
"757 704 CURVE SMOOTH",
"868 704 OFFCURVE",
"951 623 OFFCURVE",
"951 512 CURVE SMOOTH",
"951 401 OFFCURVE",
"868 320 OFFCURVE",
"757 320 CURVE SMOOTH",
"646 320 OFFCURVE",
"565 401 OFFCURVE",
"565 512 CURVE SMOOTH"
);
},
{
closed = 1;
nodes = (
"157 1720 LINE",
"157 0 LINE",
"573 0 LINE",
"573 80 LINE",
"664 5 OFFCURVE",
"767 -32 OFFCURVE",
"885 -32 CURVE SMOOTH",
"1183 -32 OFFCURVE",
"1391 209 OFFCURVE",
"1391 514 CURVE SMOOTH",
"1391 819 OFFCURVE",
"1183 1056 OFFCURVE",
"885 1056 CURVE SMOOTH",
"767 1056 OFFCURVE",
"664 1019 OFFCURVE",
"573 944 CURVE",
"573 1720 LINE"
);
}
);
width = 1465;
},
{
anchors = (
{
name = bottom;
position = "{721, 0}";
},
{
name = top;
position = "{721, 1720}";
}
);
hints = (
{
horizontal = 1;
place = "{-32, 168}";
type = Stem;
},
{
horizontal = 1;
place = "{888, 168}";
type = Stem;
},
{
place = "{206, 194}";
type = Stem;
},
{
place = "{1110, 202}";
type = Stem;
},
{
horizontal = 1;
place = "{1720, -20}";
target = down;
type = TopGhost;
},
{
horizontal = 1;
place = "{0, 21}";
target = up;
type = BottomGhost;
}
);
layerId = "b7c3c141-dc0f-46db-926d-e180a8f83e45";
paths = (
{
closed = 1;
nodes = (
"393 732 OFFCURVE",
"542 888 OFFCURVE",
"751 888 CURVE SMOOTH",
"959 888 OFFCURVE",
"1110 731 OFFCURVE",
"1110 512 CURVE SMOOTH",
"1110 293 OFFCURVE",
"959 136 OFFCURVE",
"751 136 CURVE SMOOTH",
"542 136 OFFCURVE",
"393 293 OFFCURVE",
"393 512 CURVE SMOOTH"
);
},
{
closed = 1;
nodes = (
"206 1720 LINE",
"206 0 LINE",
"400 0 LINE",
"400 192 LINE",
"489 50 OFFCURVE",
"634 -32 OFFCURVE",
"803 -32 CURVE SMOOTH",
"1097 -32 OFFCURVE",
"1312 201 OFFCURVE",
"1312 512 CURVE SMOOTH",
"1312 823 OFFCURVE",
"1097 1056 OFFCURVE",
"803 1056 CURVE SMOOTH",
"634 1056 OFFCURVE",
"489 974 OFFCURVE",
"400 832 CURVE",
"400 1720 LINE"
);
}
);
width = 1442;
},
{
anchors = (
{
name = bottom;
position = "{714, 0}";
},
{
name = top;
position = "{714, 1720}";
}
);
hints = (
{
horizontal = 1;
place = "{-32, 52}";
type = Stem;
},
{
horizontal = 1;
place = "{1004, 52}";
type = Stem;
},
{
place = "{235, 56}";
type = Stem;
},
{
place = "{1209, 54}";
type = Stem;
},
{
horizontal = 1;
place = "{1720, -20}";
target = down;
type = TopGhost;
},
{
horizontal = 1;
place = "{0, 21}";
target = up;
type = BottomGhost;
}
);
layerId = "ac360476-f880-49b3-af70-f23fb533da3d";
paths = (
{
closed = 1;
nodes = (
"285 800 OFFCURVE",
"478 1004 OFFCURVE",
"747 1004 CURVE SMOOTH",
"1016 1004 OFFCURVE",
"1209 799 OFFCURVE",
"1209 512 CURVE SMOOTH",
"1209 225 OFFCURVE",
"1016 20 OFFCURVE",
"747 20 CURVE SMOOTH",
"478 20 OFFCURVE",
"285 225 OFFCURVE",
"285 512 CURVE SMOOTH"
);
},
{
closed = 1;
nodes = (
"235 1720 LINE",
"235 0 LINE",
"291 0 LINE",
"291 262 LINE",
"375 79 OFFCURVE",
"547 -32 OFFCURVE",
"751 -32 CURVE SMOOTH",
"1043 -32 OFFCURVE",
"1263 197 OFFCURVE",
"1263 512 CURVE SMOOTH",
"1263 827 OFFCURVE",
"1043 1056 OFFCURVE",
"751 1056 CURVE SMOOTH",
"547 1056 OFFCURVE",
"375 945 OFFCURVE",
"291 762 CURVE",
"291 1720 LINE"
);
}
);
width = 1428;
}
);
rightKerningGroup = _b;
unicode = 0062;
},
{
color = 5;
glyphname = c;
lastChange = "2020-02-27 21:29:52 +0000";
layers = (
{
anchors = (
{
name = bottom;
position = "{567, 0}";
},
{
name = cedilla;
position = "{599, 0}";
},
{
name = top;
position = "{567, 1024}";
}
);
hints = (
{
horizontal = 1;
place = "{-32, 338}";
type = Stem;
},
{
horizontal = 1;
place = "{718, 338}";
type = Stem;
},
{
place = "{55, 440}";
type = Stem;
}
);
layerId = "e62399bb-6e96-4ffb-a9ce-09aa31d52a36";
paths = (
{
closed = 1;
nodes = (
"779 -32 OFFCURVE",
"902 10 OFFCURVE",
"969 60 CURVE",
"833 340 LINE",
"802 319 OFFCURVE",
"754 306 OFFCURVE",
"705 306 CURVE SMOOTH",
"583 306 OFFCURVE",
"495 393 OFFCURVE",
"495 512 CURVE SMOOTH",
"495 631 OFFCURVE",
"583 718 OFFCURVE",
"705 718 CURVE SMOOTH",
"754 718 OFFCURVE",
"802 705 OFFCURVE",
"833 684 CURVE",
"969 964 LINE",
"902 1014 OFFCURVE",
"779 1056 OFFCURVE",
"639 1056 CURVE SMOOTH",
"307 1056 OFFCURVE",
"55 820 OFFCURVE",
"55 512 CURVE SMOOTH",
"55 204 OFFCURVE",
"307 -32 OFFCURVE",
"639 -32 CURVE SMOOTH"
);
}
);
width = 1010;
},
{
anchors = (
{
name = bottom;
position = "{614, 0}";
},
{
name = cedilla;
position = "{646, 0}";
},
{
name = top;
position = "{614, 1024}";
}
);
hints = (
{
horizontal = 1;
place = "{-32, 162}";
type = Stem;
},
{
horizontal = 1;
place = "{894, 162}";
type = Stem;
},
{
place = "{121, 202}";
type = Stem;
}
);
layerId = "b7c3c141-dc0f-46db-926d-e180a8f83e45";
paths = (
{
closed = 1;
nodes = (
"815 -32 OFFCURVE",
"943 11 OFFCURVE",
"1027 77 CURVE",
"940 199 LINE",
"876 154 OFFCURVE",
"795 130 OFFCURVE",
"707 130 CURVE SMOOTH",
"475 130 OFFCURVE",
"323 302 OFFCURVE",
"323 512 CURVE SMOOTH",
"323 722 OFFCURVE",
"475 894 OFFCURVE",
"707 894 CURVE SMOOTH",
"795 894 OFFCURVE",
"876 870 OFFCURVE",
"940 825 CURVE",
"1027 947 LINE",
"943 1013 OFFCURVE",
"815 1056 OFFCURVE",
"681 1056 CURVE SMOOTH",
"363 1056 OFFCURVE",
"121 815 OFFCURVE",
"121 512 CURVE SMOOTH",
"121 209 OFFCURVE",
"363 -32 OFFCURVE",
"681 -32 CURVE SMOOTH"
);
}
);
width = 1119;
},
{
anchors = (
{
name = bottom;
position = "{649, 0}";
},
{
name = cedilla;
position = "{681, 0}";
},
{
name = top;
position = "{649, 1024}";
}
);
hints = (
{
horizontal = 1;
place = "{-32, 52}";
type = Stem;
},
{
horizontal = 1;
place = "{1004, 52}";
type = Stem;
},
{
place = "{163, 52}";
type = Stem;
}
);
layerId = "ac360476-f880-49b3-af70-f23fb533da3d";
paths = (
{
closed = 1;
nodes = (
"845 -32 OFFCURVE",
"967 12 OFFCURVE",
"1063 88 CURVE",
"1027 126 LINE",
"941 56 OFFCURVE",
"831 20 OFFCURVE",
"710 20 CURVE SMOOTH",
"420 20 OFFCURVE",
"215 229 OFFCURVE",
"215 512 CURVE SMOOTH",
"215 798 OFFCURVE",
"423 1004 OFFCURVE",
"709 1004 CURVE SMOOTH",
"831 1004 OFFCURVE",
"941 968 OFFCURVE",
"1029 898 CURVE",
"1063 936 LINE",
"969 1012 OFFCURVE",
"845 1056 OFFCURVE",
"709 1056 CURVE SMOOTH",
"401 1056 OFFCURVE",
"163 832 OFFCURVE",
"163 512 CURVE SMOOTH",
"163 194 OFFCURVE",
"401 -32 OFFCURVE",
"709 -32 CURVE SMOOTH"
);
}
);
width = 1187;
}
);
leftKerningGroup = _c;
rightKerningGroup = _c;
unicode = 0063;
},
{
color = 5;
glyphname = d;
lastChange = "2020-02-27 21:29:52 +0000";
layers = (
{
anchors = (
{
name = bottom;
position = "{591, 0}";
},
{
name = top;
position = "{632, 1547}";
}
);
hints = (
{
horizontal = 1;
place = "{-32, 352}";
type = Stem;
},
{
horizontal = 1;
place = "{704, 352}";
type = Stem;
},
{
place = "{73, 440}";
type = Stem;
},
{
place = "{891, 416}";
type = Stem;
},
{
horizontal = 1;
place = "{1720, -20}";
target = down;
type = TopGhost;
},
{
horizontal = 1;
place = "{0, 21}";
target = up;
type = BottomGhost;
}
);
layerId = "e62399bb-6e96-4ffb-a9ce-09aa31d52a36";
paths = (
{
closed = 1;
nodes = (
"513 623 OFFCURVE",
"596 704 OFFCURVE",
"707 704 CURVE SMOOTH",
"818 704 OFFCURVE",
"899 623 OFFCURVE",
"899 512 CURVE SMOOTH",
"899 401 OFFCURVE",
"818 320 OFFCURVE",
"707 320 CURVE SMOOTH",
"596 320 OFFCURVE",
"513 401 OFFCURVE",
"513 512 CURVE SMOOTH"
);
},
{
closed = 1;
nodes = (
"73 209 OFFCURVE",
"281 -32 OFFCURVE",
"579 -32 CURVE SMOOTH",
"697 -32 OFFCURVE",
"800 5 OFFCURVE",
"891 80 CURVE",
"891 0 LINE",
"1307 0 LINE",
"1307 1720 LINE",
"891 1720 LINE",
"891 944 LINE",
"800 1019 OFFCURVE",
"697 1056 OFFCURVE",
"579 1056 CURVE SMOOTH",
"281 1056 OFFCURVE",
"73 819 OFFCURVE",
"73 514 CURVE SMOOTH"
);
}
);
width = 1464;
},
{
anchors = (
{
name = bottom;
position = "{641, 0}";
},
{
name = top;
position = "{647, 1374}";
}
);
hints = (
{
horizontal = 1;
place = "{-32, 168}";
type = Stem;
},
{
horizontal = 1;
place = "{888, 168}";
type = Stem;
},
{
place = "{130, 202}";
type = Stem;
},
{
place = "{1042, 194}";
type = Stem;
},
{
horizontal = 1;
place = "{1720, -20}";
target = down;
type = TopGhost;
},
{
horizontal = 1;
place = "{0, 21}";
target = up;
type = BottomGhost;
}
);
layerId = "b7c3c141-dc0f-46db-926d-e180a8f83e45";
paths = (
{
closed = 1;
nodes = (
"332 731 OFFCURVE",
"483 888 OFFCURVE",
"691 888 CURVE SMOOTH",
"900 888 OFFCURVE",
"1049 732 OFFCURVE",
"1049 512 CURVE SMOOTH",
"1049 293 OFFCURVE",
"900 136 OFFCURVE",
"691 136 CURVE SMOOTH",
"483 136 OFFCURVE",
"332 293 OFFCURVE",
"332 512 CURVE SMOOTH"
);
},
{
closed = 1;
nodes = (
"130 201 OFFCURVE",
"345 -32 OFFCURVE",
"639 -32 CURVE SMOOTH",
"808 -32 OFFCURVE",
"953 50 OFFCURVE",
"1042 192 CURVE",
"1042 0 LINE",
"1236 0 LINE",
"1236 1720 LINE",
"1042 1720 LINE",
"1042 832 LINE",
"953 974 OFFCURVE",
"808 1056 OFFCURVE",
"639 1056 CURVE SMOOTH",
"345 1056 OFFCURVE",
"130 823 OFFCURVE",
"130 512 CURVE SMOOTH"
);
}
);
width = 1442;
},
{
anchors = (
{
name = bottom;
position = "{673, 0}";
},
{
name = top;
position = "{657, 1266}";
}
);
hints = (
{
horizontal = 1;
place = "{-32, 52}";
type = Stem;
},
{
horizontal = 1;
place = "{1004, 52}";
type = Stem;
},
{
place = "{165, 54}";
type = Stem;
},
{
place = "{1137, 56}";
type = Stem;
},
{
horizontal = 1;
place = "{1720, -20}";
target = down;
type = TopGhost;
},
{
horizontal = 1;
place = "{0, 21}";
target = up;
type = BottomGhost;
}
);
layerId = "ac360476-f880-49b3-af70-f23fb533da3d";
paths = (
{
closed = 1;
nodes = (
"219 799 OFFCURVE",
"412 1004 OFFCURVE",
"681 1004 CURVE SMOOTH",
"950 1004 OFFCURVE",
"1143 800 OFFCURVE",
"1143 512 CURVE SMOOTH",
"1143 225 OFFCURVE",
"950 20 OFFCURVE",
"681 20 CURVE SMOOTH",
"412 20 OFFCURVE",
"219 225 OFFCURVE",
"219 512 CURVE SMOOTH"
);
},
{
closed = 1;
nodes = (
"165 197 OFFCURVE",
"385 -32 OFFCURVE",
"677 -32 CURVE SMOOTH",
"881 -32 OFFCURVE",
"1053 79 OFFCURVE",
"1137 262 CURVE",
"1137 0 LINE",
"1193 0 LINE",
"1193 1720 LINE",
"1137 1720 LINE",
"1137 762 LINE",
"1053 945 OFFCURVE",
"881 1056 OFFCURVE",
"677 1056 CURVE SMOOTH",
"385 1056 OFFCURVE",
"165 827 OFFCURVE",
"165 512 CURVE SMOOTH"
);
}
);
width = 1428;
}
);
leftKerningGroup = _d;
rightKerningGroup = _A1;
unicode = 0064;
},
{
color = 5;
glyphname = eth;
lastChange = "2020-02-27 21:29:52 +0000";
layers = (
{
hints = (
{
horizontal = 1;
place = "{-32, 354}";
type = Stem;
},
{
horizontal = 1;
place = "{704, 368}";
type = Stem;
},
{
place = "{63, 442}";
type = Stem;
},
{
place = "{879, 442}";
type = Stem;
}
);
layerId = "e62399bb-6e96-4ffb-a9ce-09aa31d52a36";
paths = (
{
closed = 1;
nodes = (
"1059 -32 OFFCURVE",
"1321 196 OFFCURVE",
"1321 512 CURVE SMOOTH",
"1321 1002 OFFCURVE",
"1033 1296 OFFCURVE",
"767 1476 CURVE",
"861 1570 LINE",
"687 1750 LINE",
"543 1608 LINE",
"407 1677 OFFCURVE",
"257 1725 OFFCURVE",
"149 1750 CURVE",
"53 1402 LINE",
"100 1392 OFFCURVE",
"182 1368 OFFCURVE",
"265 1330 CURVE",
"145 1212 LINE",
"323 1034 LINE",
"491 1200 LINE",
"558 1160 OFFCURVE",
"625 1118 OFFCURVE",
"695 1070 CURVE",
"687 1071 OFFCURVE",
"673 1072 OFFCURVE",
"663 1072 CURVE SMOOTH",
"413 1072 OFFCURVE",
"63 898 OFFCURVE",
"63 512 CURVE SMOOTH",
"63 196 OFFCURVE",
"313 -32 OFFCURVE",
"695 -32 CURVE SMOOTH"
);
},
{
closed = 1;
nodes = (
"579 322 OFFCURVE",
"505 402 OFFCURVE",
"505 512 CURVE SMOOTH",
"505 626 OFFCURVE",
"591 704 OFFCURVE",
"693 704 CURVE SMOOTH",
"793 704 OFFCURVE",
"879 626 OFFCURVE",
"879 512 CURVE SMOOTH",
"879 402 OFFCURVE",
"801 322 OFFCURVE",
"693 322 CURVE SMOOTH"
);
}
);
width = 1410;
},
{
hints = (
{
horizontal = 1;
place = "{-32, 168}";
type = Stem;
},
{
horizontal = 1;
place = "{888, 174}";
type = Stem;
},
{
place = "{124, 203}";
type = Stem;
},
{
place = "{1081, 202}";
type = Stem;
}
);
layerId = "b7c3c141-dc0f-46db-926d-e180a8f83e45";
paths = (
{
closed = 1;
nodes = (
"1036 -32 OFFCURVE",
"1283 194 OFFCURVE",
"1283 512 CURVE SMOOTH",
"1283 981 OFFCURVE",
"1085 1317 OFFCURVE",
"810 1529 CURVE",
"938 1656 LINE",
"847 1750 LINE",
"697 1601 LINE",
"591 1667 OFFCURVE",
"475 1716 OFFCURVE",
"367 1750 CURVE",
"317 1584 LINE",
"396 1558 OFFCURVE",
"484 1520 OFFCURVE",
"565 1469 CURVE",
"428 1332 LINE",
"521 1239 LINE",
"680 1398 LINE",
"826 1284 OFFCURVE",
"938 1120 OFFCURVE",
"996 903 CURVE",
"935 1002 OFFCURVE",
"823 1062 OFFCURVE",
"693 1062 CURVE SMOOTH",
"406 1062 OFFCURVE",
"124 859 OFFCURVE",
"124 512 CURVE SMOOTH",
"124 194 OFFCURVE",
"367 -32 OFFCURVE",
"705 -32 CURVE SMOOTH"
);
},
{
closed = 1;
nodes = (
"483 136 OFFCURVE",
"327 294 OFFCURVE",
"327 512 CURVE SMOOTH",
"327 732 OFFCURVE",
"488 888 OFFCURVE",
"704 888 CURVE SMOOTH",
"918 888 OFFCURVE",
"1081 732 OFFCURVE",
"1081 512 CURVE SMOOTH",
"1081 294 OFFCURVE",
"921 136 OFFCURVE",
"704 136 CURVE SMOOTH"
);
}
);
width = 1432;
},
{
hints = (
{
horizontal = 1;
place = "{-32, 52}";
type = Stem;
},
{
horizontal = 1;
place = "{1004, 52}";
type = Stem;
},
{
place = "{163, 52}";
type = Stem;
},
{
place = "{1207, 52}";
type = Stem;
}
);
layerId = "ac360476-f880-49b3-af70-f23fb533da3d";
paths = (
{
closed = 1;
nodes = (
"1021 -32 OFFCURVE",
"1259 192 OFFCURVE",
"1259 512 CURVE SMOOTH",
"1259 968 OFFCURVE",
"1117 1330 OFFCURVE",
"837 1562 CURVE",
"987 1710 LINE",
"947 1750 LINE",
"793 1596 LINE",
"707 1660 OFFCURVE",
"611 1710 OFFCURVE",
"503 1750 CURVE",
"483 1698 LINE",
"581 1662 OFFCURVE",
"673 1616 OFFCURVE",
"753 1556 CURVE",
"605 1408 LINE",
"645 1368 LINE",
"799 1522 LINE",
"997 1362 OFFCURVE",
"1135 1122 OFFCURVE",
"1185 798 CURVE",
"1091 958 OFFCURVE",
"917 1056 OFFCURVE",
"711 1056 CURVE SMOOTH",
"401 1056 OFFCURVE",
"163 834 OFFCURVE",
"163 512 CURVE SMOOTH",
"163 192 OFFCURVE",
"401 -32 OFFCURVE",
"711 -32 CURVE SMOOTH"
);
},
{
closed = 1;
nodes = (
"423 20 OFFCURVE",
"215 226 OFFCURVE",
"215 512 CURVE SMOOTH",
"215 798 OFFCURVE",
"423 1004 OFFCURVE",
"711 1004 CURVE SMOOTH",
"997 1004 OFFCURVE",
"1207 798 OFFCURVE",
"1207 512 CURVE SMOOTH",
"1207 226 OFFCURVE",
"997 20 OFFCURVE",
"711 20 CURVE SMOOTH"
);
}
);
width = 1446;
}
);
rightKerningGroup = _A1;
unicode = 00F0;
},
{
color = 5;
glyphname = dcroat;
lastChange = "2020-02-27 21:29:52 +0000";
layers = (
{
components = (
{
alignment = -1;
name = d;
}
);
hints = (
{
horizontal = 1;
place = "{1238, 264}";
type = Stem;
}
);
layerId = "e62399bb-6e96-4ffb-a9ce-09aa31d52a36";
rightMetricsKey = "=d";
paths = (
{
closed = 1;
nodes = (
"685 1502 LINE",
"685 1238 LINE",
"1409 1238 LINE",
"1409 1502 LINE"
);
}
);
width = 1566;
},
{
components = (
{
alignment = -1;
name = d;
}
);
hints = (
{
horizontal = 1;
place = "{1306, 130}";
type = Stem;
}
);
layerId = "b7c3c141-dc0f-46db-926d-e180a8f83e45";
rightMetricsKey = "=d-75";
paths = (
{
closed = 1;
nodes = (
"675 1436 LINE",
"675 1306 LINE",
"1399 1306 LINE",
"1399 1436 LINE"
);
}
);
width = 1530;
},
{
components = (
{
alignment = -1;
name = d;
}
);
hints = (
{
horizontal = 1;
place = "{1348, 46}";
type = Stem;
}
);
layerId = "ac360476-f880-49b3-af70-f23fb533da3d";
rightMetricsKey = "=d-150";
paths = (
{
closed = 1;
nodes = (
"669 1394 LINE",
"669 1348 LINE",
"1393 1348 LINE",
"1393 1394 LINE"
);
}
);
width = 1478;
}
);
leftMetricsKey = d;
rightKerningGroup = _A1;
unicode = 0111;
},
{
color = 5;
glyphname = e;
lastChange = "2020-02-27 21:29:52 +0000";
layers = (
{
anchors = (
{
name = bottom;
position = "{682, 0}";
},
{
name = ogonek;
position = "{713, 0}";
},
{
name = top;
position = "{639, 1056}";
}
);
hints = (
{
horizontal = 1;
place = "{-32, 328}";
type = Stem;
},
{
horizontal = 1;
place = "{770, 286}";
type = Stem;
},
{
place = "{59, 442}";
type = Stem;
},
{
place = "{781, 406}";
type = Stem;
},
{
horizontal = 1;
place = "{454, 196}";
type = Stem;
}
);
layerId = "e62399bb-6e96-4ffb-a9ce-09aa31d52a36";
paths = (
{
closed = 1;
nodes = (
"882 -32 OFFCURVE",
"1075 71 OFFCURVE",
"1171 240 CURVE",
"873 388 LINE",
"801 318 OFFCURVE",
"756 296 OFFCURVE",
"682 296 CURVE SMOOTH",
"561 296 OFFCURVE",
"489 355 OFFCURVE",
"489 454 CURVE",
"1183 454 LINE",
"1186 488 OFFCURVE",
"1187 508 OFFCURVE",
"1187 529 CURVE SMOOTH",
"1187 842 OFFCURVE",
"969 1056 OFFCURVE",
"650 1056 CURVE SMOOTH",
"315 1056 OFFCURVE",
"59 821 OFFCURVE",
"59 514 CURVE SMOOTH",
"59 204 OFFCURVE",
"318 -32 OFFCURVE",
"658 -32 CURVE SMOOTH"
);
},
{
closed = 1;
nodes = (
"501 650 LINE",
"502 727 OFFCURVE",
"551 770 OFFCURVE",
"639 770 CURVE SMOOTH",
"722 770 OFFCURVE",
"768 732 OFFCURVE",
"781 650 CURVE"
);
}
);
width = 1264;
},
{
anchors = (
{
name = bottom;
position = "{698, 0}";
},
{
name = ogonek;
position = "{718, 0}";
},
{
name = top;
position = "{669, 1024}";
}
);
hints = (
{
horizontal = 1;
place = "{-32, 158}";
type = Stem;
},
{
horizontal = 1;
place = "{914, 142}";
type = Stem;
},
{
place = "{122, 204}";
type = Stem;
},
{
place = "{1013, 191}";
type = Stem;
},
{
horizontal = 1;
place = "{490, 106}";
type = Stem;
}
);
layerId = "b7c3c141-dc0f-46db-926d-e180a8f83e45";
paths = (
{
closed = 1;
nodes = (
"896 -32 OFFCURVE",
"1074 62 OFFCURVE",
"1172 223 CURVE",
"1030 297 LINE",
"949 185 OFFCURVE",
"837 126 OFFCURVE",
"698 126 CURVE SMOOTH",
"475 126 OFFCURVE",
"320 276 OFFCURVE",
"320 490 CURVE",
"1202 490 LINE",
"1203 504 OFFCURVE",
"1204 516 OFFCURVE",
"1204 535 CURVE SMOOTH",
"1204 820 OFFCURVE",
"968 1056 OFFCURVE",
"673 1056 CURVE SMOOTH",
"368 1056 OFFCURVE",
"122 819 OFFCURVE",
"122 508 CURVE SMOOTH",
"122 203 OFFCURVE",
"360 -32 OFFCURVE",
"689 -32 CURVE SMOOTH"
);
},
{
closed = 1;
nodes = (
"326 596 LINE",
"341 780 OFFCURVE",
"485 914 OFFCURVE",
"669 914 CURVE SMOOTH",
"850 914 OFFCURVE",
"993 782 OFFCURVE",
"1013 596 CURVE"
);
}
);
width = 1322;
},
{
anchors = (
{
name = bottom;
position = "{708, 0}";
},
{
name = ogonek;
position = "{718, 0}";
},
{
name = top;
position = "{688, 1026}";
}
);
hints = (
{
horizontal = 1;
place = "{-32, 52}";
type = Stem;
},
{
horizontal = 1;
place = "{1004, 52}";
type = Stem;
},
{
place = "{160, 56}";
type = Stem;
},
{
place = "{1158, 56}";
type = Stem;
},
{
horizontal = 1;
place = "{512, 50}";
type = Stem;
}
);
layerId = "ac360476-f880-49b3-af70-f23fb533da3d";
paths = (
{
closed = 1;
nodes = (
"905 -32 OFFCURVE",
"1074 57 OFFCURVE",
"1172 212 CURVE",
"1128 240 LINE",
"1042 101 OFFCURVE",
"888 20 OFFCURVE",
"708 20 CURVE SMOOTH",
"421 20 OFFCURVE",
"214 227 OFFCURVE",
"214 512 CURVE",
"1213 512 LINE",
"1214 519 OFFCURVE",
"1214 524 OFFCURVE",
"1214 529 CURVE SMOOTH",
"1210 798 OFFCURVE",
"995 1056 OFFCURVE",
"687 1056 CURVE SMOOTH",
"402 1056 OFFCURVE",
"160 817 OFFCURVE",
"160 505 CURVE SMOOTH",
"160 203 OFFCURVE",
"387 -32 OFFCURVE",
"708 -32 CURVE SMOOTH"
);
},
{
closed = 1;
nodes = (
"216 562 LINE",
"240 813 OFFCURVE",
"444 1004 OFFCURVE",
"688 1004 CURVE SMOOTH",
"931 1004 OFFCURVE",
"1134 814 OFFCURVE",
"1158 562 CURVE"
);
}
);
width = 1358;
}
);
leftKerningGroup = _c;
rightKerningGroup = _c;
unicode = 0065;
},
{
color = 5;
glyphname = eogonek;
lastChange = "2020-02-27 21:29:52 +0000";
layers = (
{
anchors = (
{
name = _ogonek;
position = "{713, 0}";
},
{
name = bottom;
position = "{682, 0}";
},
{
name = ogonek;
position = "{713, 0}";
},
{
name = top;
position = "{639, 1056}";
}
);
hints = (
{
horizontal = 1;
place = "{-32, 328}";
type = Stem;
},
{
horizontal = 1;
place = "{770, 286}";
type = Stem;
},
{
horizontal = 1;
place = "{454, 196}";
type = Stem;
},
{
place = "{781, 406}";
type = Stem;
},
{
place = "{59, 442}";
type = Stem;
}
);
layerId = "e62399bb-6e96-4ffb-a9ce-09aa31d52a36";
rightMetricsKey = "=e";
paths = (
{
closed = 1;
nodes = (
"732 -32 OFFCURVE",
"802 -21 OFFCURVE",
"866 0 CURVE",
"760 0 LINE",
"652 -124 OFFCURVE",
"593 -241 OFFCURVE",
"593 -332 CURVE SMOOTH",
"593 -456 OFFCURVE",
"701 -557 OFFCURVE",
"845 -557 CURVE SMOOTH",
"952 -557 OFFCURVE",
"1058 -502 OFFCURVE",
"1119 -413 CURVE",
"953 -289 LINE",
"937 -318 OFFCURVE",
"908 -337 OFFCURVE",
"880 -337 CURVE SMOOTH",
"847 -337 OFFCURVE",
"829 -312 OFFCURVE",
"829 -267 CURVE SMOOTH",
"829 -168 OFFCURVE",
"918 1 OFFCURVE",
"1031 84 CURVE SMOOTH",
"1089 126 OFFCURVE",
"1136 178 OFFCURVE",
"1171 240 CURVE",
"873 388 LINE",
"801 318 OFFCURVE",
"756 296 OFFCURVE",
"682 296 CURVE SMOOTH",
"561 296 OFFCURVE",
"489 355 OFFCURVE",
"489 454 CURVE",
"1183 454 LINE",
"1186 488 OFFCURVE",
"1187 508 OFFCURVE",
"1187 529 CURVE SMOOTH",
"1187 842 OFFCURVE",
"969 1056 OFFCURVE",
"650 1056 CURVE SMOOTH",
"315 1056 OFFCURVE",
"59 821 OFFCURVE",
"59 514 CURVE SMOOTH",
"59 204 OFFCURVE",
"318 -32 OFFCURVE",
"658 -32 CURVE SMOOTH"
);
},
{
closed = 1;
nodes = (
"501 650 LINE",
"502 727 OFFCURVE",
"551 770 OFFCURVE",
"639 770 CURVE SMOOTH",
"722 770 OFFCURVE",
"768 732 OFFCURVE",
"781 650 CURVE"
);
}
);
width = 1264;
},
{
anchors = (
{
name = _ogonek;
position = "{718, 0}";
},
{
name = bottom;
position = "{698, 0}";
},
{
name = ogonek;
position = "{718, 0}";
},
{
name = top;
position = "{669, 1024}";
}
);
hints = (
{
horizontal = 1;
place = "{-32, 158}";
type = Stem;
},
{
horizontal = 1;
place = "{914, 142}";
type = Stem;
},
{
horizontal = 1;
place = "{490, 106}";
type = Stem;
},
{
place = "{1013, 191}";
type = Stem;
},
{
place = "{122, 204}";
type = Stem;
}
);
layerId = "b7c3c141-dc0f-46db-926d-e180a8f83e45";
rightMetricsKey = "=e-6";
paths = (
{
closed = 1;
nodes = (
"760 -32 OFFCURVE",
"827 -21 OFFCURVE",
"889 0 CURVE",
"863 0 LINE",
"748 -125 OFFCURVE",
"684 -242 OFFCURVE",
"684 -334 CURVE SMOOTH",
"684 -458 OFFCURVE",
"789 -559 OFFCURVE",
"935 -559 CURVE SMOOTH",
"1043 -559 OFFCURVE",
"1149 -504 OFFCURVE",
"1210 -415 CURVE",
"1125 -352 LINE",
"1073 -413 OFFCURVE",
"1017 -442 OFFCURVE",
"952 -442 CURVE SMOOTH",
"856 -442 OFFCURVE",
"807 -382 OFFCURVE",
"807 -309 CURVE SMOOTH",
"807 -205 OFFCURVE",
"907 -36 OFFCURVE",
"1064 97 CURVE SMOOTH",
"1106 132 OFFCURVE",
"1143 175 OFFCURVE",
"1172 223 CURVE",
"1030 297 LINE",
"949 185 OFFCURVE",
"837 126 OFFCURVE",
"698 126 CURVE SMOOTH",
"475 126 OFFCURVE",
"320 276 OFFCURVE",
"320 490 CURVE",
"1202 490 LINE",
"1203 504 OFFCURVE",
"1204 516 OFFCURVE",
"1204 535 CURVE SMOOTH",
"1204 820 OFFCURVE",
"968 1056 OFFCURVE",
"673 1056 CURVE SMOOTH",
"368 1056 OFFCURVE",
"122 819 OFFCURVE",
"122 508 CURVE SMOOTH",
"122 203 OFFCURVE",
"360 -32 OFFCURVE",
"689 -32 CURVE SMOOTH"
);
},
{
closed = 1;
nodes = (
"326 596 LINE",
"341 780 OFFCURVE",
"485 914 OFFCURVE",
"669 914 CURVE SMOOTH",
"850 914 OFFCURVE",
"993 782 OFFCURVE",
"1013 596 CURVE"
);
}
);
width = 1322;
},
{
anchors = (
{
name = _ogonek;
position = "{718, 0}";
},
{
name = bottom;
position = "{708, 0}";
},
{
name = ogonek;
position = "{718, 0}";
},
{
name = top;
position = "{688, 1026}";
}
);
hints = (
{
horizontal = 1;
place = "{-32, 52}";
type = Stem;
},
{
horizontal = 1;
place = "{1004, 52}";
type = Stem;
},
{
horizontal = 1;
place = "{512, 50}";
type = Stem;
},
{
place = "{1158, 56}";
type = Stem;
},
{
place = "{160, 56}";
type = Stem;
}
);
layerId = "ac360476-f880-49b3-af70-f23fb533da3d";
rightMetricsKey = "=e-49";
paths = (
{
closed = 1;
nodes = (
"813 -32 OFFCURVE",
"910 -7 OFFCURVE",
"992 40 CURVE",
"963 40 LINE",
"819 -100 OFFCURVE",
"737 -232 OFFCURVE",
"737 -335 CURVE SMOOTH",
"737 -458 OFFCURVE",
"840 -559 OFFCURVE",
"987 -559 CURVE SMOOTH",
"1096 -559 OFFCURVE",
"1202 -504 OFFCURVE",
"1263 -415 CURVE",
"1229 -391 LINE",
"1155 -472 OFFCURVE",
"1081 -507 OFFCURVE",
"993 -507 CURVE SMOOTH",
"858 -507 OFFCURVE",
"789 -425 OFFCURVE",
"789 -334 CURVE SMOOTH",
"789 -237 OFFCURVE",
"874 -91 OFFCURVE",
"1093 115 CURVE SMOOTH",
"1123 143 OFFCURVE",
"1149 176 OFFCURVE",
"1172 212 CURVE",
"1128 240 LINE",
"1042 101 OFFCURVE",
"888 20 OFFCURVE",
"708 20 CURVE SMOOTH",
"421 20 OFFCURVE",
"214 227 OFFCURVE",
"214 512 CURVE",
"1213 512 LINE",
"1214 519 OFFCURVE",
"1214 524 OFFCURVE",
"1214 529 CURVE",
"1210 798 OFFCURVE",
"995 1056 OFFCURVE",
"687 1056 CURVE SMOOTH",
"402 1056 OFFCURVE",
"160 817 OFFCURVE",
"160 505 CURVE SMOOTH",
"160 203 OFFCURVE",
"387 -32 OFFCURVE",
"708 -32 CURVE SMOOTH"
);
},
{
closed = 1;
nodes = (
"216 562 LINE",
"240 813 OFFCURVE",
"444 1004 OFFCURVE",
"688 1004 CURVE SMOOTH",
"931 1004 OFFCURVE",
"1134 814 OFFCURVE",
"1158 562 CURVE"
);
}
);
width = 1358;
}
);
leftMetricsKey = e;
unicode = 0119;
},
{
color = 5;
glyphname = f;
lastChange = "2020-02-27 21:29:52 +0000";
layers = (
{
anchors = (
{
name = bottom;
position = "{426, 0}";
},
{
name = top;
position = "{662, 1720}";
}
);
hints = (
{
horizontal = 1;
place = "{708, 316}";
type = Stem;
},
{
place = "{218, 416}";
type = Stem;
},
{
horizontal = 1;
place = "{0, 21}";
target = up;
type = BottomGhost;
},
{
horizontal = 1;
place = "{1376, 374}";
type = Stem;
}
);
layerId = "e62399bb-6e96-4ffb-a9ce-09aa31d52a36";
paths = (
{
closed = 1;
nodes = (
"634 0 LINE",
"634 708 LINE",
"862 708 LINE",
"862 1024 LINE",
"634 1024 LINE",
"634 1208 LINE SMOOTH",
"634 1319 OFFCURVE",
"658 1376 OFFCURVE",
"726 1376 CURVE SMOOTH",
"748 1376 OFFCURVE",
"772 1370 OFFCURVE",
"796 1348 CURVE",
"992 1622 LINE",
"917 1697 OFFCURVE",
"784 1750 OFFCURVE",
"649 1750 CURVE SMOOTH",
"396 1750 OFFCURVE",
"218 1563 OFFCURVE",
"218 1202 CURVE SMOOTH",
"218 1024 LINE",
"58 1024 LINE",
"58 708 LINE",
"218 708 LINE",
"218 0 LINE"
);
}
);
width = 887;
},
{
anchors = (
{
name = bottom;
position = "{330, 0}";
},
{
name = top;
position = "{546, 1720}";
}
);
hints = (
{
horizontal = 1;
place = "{876, 148}";
type = Stem;
},
{
place = "{233, 194}";
type = Stem;
},
{
horizontal = 1;
place = "{0, 21}";
target = up;
type = BottomGhost;
},
{
horizontal = 1;
place = "{1576, 174}";
type = Stem;
}
);
layerId = "b7c3c141-dc0f-46db-926d-e180a8f83e45";
paths = (
{
closed = 1;
nodes = (
"427 0 LINE",
"427 876 LINE",
"683 876 LINE",
"683 1024 LINE",
"427 1024 LINE",
"427 1365 LINE SMOOTH",
"427 1505 OFFCURVE",
"480 1576 OFFCURVE",
"570 1576 CURVE SMOOTH",
"608 1576 OFFCURVE",
"651 1563 OFFCURVE",
"683 1523 CURVE",
"781 1644 LINE",
"720 1716 OFFCURVE",
"629 1750 OFFCURVE",
"537 1750 CURVE SMOOTH",
"355 1750 OFFCURVE",
"233 1618 OFFCURVE",
"233 1357 CURVE SMOOTH",
"233 1024 LINE",
"119 1024 LINE",
"119 876 LINE",
"233 876 LINE",
"233 0 LINE"
);
}
);
width = 754;
},
{
anchors = (
{
name = bottom;
position = "{270, 0}";
},
{
name = top;
position = "{474, 1720}";
}
);
hints = (
{
horizontal = 1;
place = "{982, 42}";
type = Stem;
},
{
place = "{242, 56}";
type = Stem;
},
{
horizontal = 1;
place = "{0, 21}";
target = up;
type = BottomGhost;
},
{
horizontal = 1;
place = "{1702, 48}";
type = Stem;
}
);
layerId = "ac360476-f880-49b3-af70-f23fb533da3d";
paths = (
{
closed = 1;
nodes = (
"298 0 LINE",
"298 982 LINE",
"570 982 LINE",
"570 1024 LINE",
"298 1024 LINE",
"298 1464 LINE SMOOTH",
"298 1621 OFFCURVE",
"368 1702 OFFCURVE",
"472 1702 CURVE SMOOTH",
"521 1702 OFFCURVE",
"575 1684 OFFCURVE",
"612 1632 CURVE",
"648 1658 LINE",
"597 1728 OFFCURVE",
"532 1750 OFFCURVE",
"467 1750 CURVE SMOOTH",
"330 1750 OFFCURVE",
"242 1652 OFFCURVE",
"242 1454 CURVE SMOOTH",
"242 1024 LINE",
"158 1024 LINE",
"158 982 LINE",
"242 982 LINE",
"242 0 LINE"
);
}
);
width = 670;
}
);
rightKerningGroup = _A1;
unicode = 0066;
},
{
color = 5;
glyphname = g;
lastChange = "2020-02-27 21:29:52 +0000";
layers = (
{
anchors = (
{
name = bottom;
position = "{707, -520}";
},
{
name = top;
position = "{707, 1024}";
}
);
hints = (
{
horizontal = 1;
place = "{-550, 360}";
type = Stem;
},
{
horizontal = 1;
place = "{-32, 352}";
type = Stem;
},
{
horizontal = 1;
place = "{704, 352}";
type = Stem;
},
{
place = "{73, 440}";
type = Stem;
},
{
place = "{891, 416}";
type = Stem;
},
{
horizontal = 1;
place = "{1024, -20}";
target = down;
type = TopGhost;
}
);
layerId = "e62399bb-6e96-4ffb-a9ce-09aa31d52a36";
paths = (
{
closed = 1;
nodes = (
"73 209 OFFCURVE",
"281 -32 OFFCURVE",
"579 -32 CURVE SMOOTH",
"697 -32 OFFCURVE",
"800 5 OFFCURVE",
"891 80 CURVE",
"891 8 LINE SMOOTH",
"891 -101 OFFCURVE",
"809 -190 OFFCURVE",
"677 -190 CURVE SMOOTH",
"588 -190 OFFCURVE",
"495 -150 OFFCURVE",
"445 -86 CURVE",
"109 -252 LINE",
"193 -448 OFFCURVE",
"391 -550 OFFCURVE",
"679 -550 CURVE SMOOTH",
"1125 -550 OFFCURVE",
"1307 -305 OFFCURVE",
"1307 -28 CURVE SMOOTH",
"1307 1024 LINE",
"891 1024 LINE",
"891 944 LINE",
"800 1019 OFFCURVE",
"697 1056 OFFCURVE",
"579 1056 CURVE SMOOTH",
"281 1056 OFFCURVE",
"73 819 OFFCURVE",
"73 514 CURVE SMOOTH"
);
},
{
closed = 1;
nodes = (
"513 623 OFFCURVE",
"596 704 OFFCURVE",
"707 704 CURVE SMOOTH",
"818 704 OFFCURVE",
"899 623 OFFCURVE",
"899 512 CURVE SMOOTH",
"899 401 OFFCURVE",
"818 320 OFFCURVE",
"707 320 CURVE SMOOTH",
"596 320 OFFCURVE",
"513 401 OFFCURVE",
"513 512 CURVE SMOOTH"
);
}
);
width = 1464;
},
{
anchors = (
{
name = bottom;
position = "{692, -520}";
},
{
name = top;
position = "{692, 1024}";
}
);
hints = (
{
horizontal = 1;
place = "{-550, 167}";
type = Stem;
},
{
horizontal = 1;
place = "{-32, 168}";
type = Stem;
},
{
horizontal = 1;
place = "{888, 168}";
type = Stem;
},
{
place = "{131, 202}";
type = Stem;
},
{
place = "{1043, 194}";
type = Stem;
},
{
horizontal = 1;
place = "{1024, -20}";
target = down;
type = TopGhost;
}
);
layerId = "b7c3c141-dc0f-46db-926d-e180a8f83e45";
paths = (
{
closed = 1;
nodes = (
"131 201 OFFCURVE",
"346 -32 OFFCURVE",
"640 -32 CURVE SMOOTH",
"809 -32 OFFCURVE",
"954 50 OFFCURVE",
"1043 192 CURVE",
"1043 -26 LINE SMOOTH",
"1043 -249 OFFCURVE",
"885 -383 OFFCURVE",
"669 -383 CURVE SMOOTH",
"501 -383 OFFCURVE",
"357 -302 OFFCURVE",
"296 -176 CURVE",
"134 -252 LINE",
"221 -447 OFFCURVE",
"405 -550 OFFCURVE",
"669 -550 CURVE SMOOTH",
"1031 -550 OFFCURVE",
"1237 -356 OFFCURVE",
"1237 -28 CURVE SMOOTH",
"1237 1024 LINE",
"1043 1024 LINE",
"1043 832 LINE",
"954 974 OFFCURVE",
"809 1056 OFFCURVE",
"640 1056 CURVE SMOOTH",
"346 1056 OFFCURVE",
"131 823 OFFCURVE",
"131 512 CURVE SMOOTH"
);
},
{
closed = 1;
nodes = (
"333 731 OFFCURVE",
"484 888 OFFCURVE",
"692 888 CURVE SMOOTH",
"901 888 OFFCURVE",
"1050 732 OFFCURVE",
"1050 512 CURVE SMOOTH",
"1050 293 OFFCURVE",
"901 136 OFFCURVE",
"692 136 CURVE SMOOTH",
"484 136 OFFCURVE",
"333 293 OFFCURVE",
"333 512 CURVE SMOOTH"
);
}
);
width = 1442;
},
{
anchors = (
{
name = bottom;
position = "{682, -520}";
},
{
name = top;
position = "{682, 1024}";
}
);
hints = (
{
horizontal = 1;
place = "{-550, 46}";
type = Stem;
},
{
horizontal = 1;
place = "{-32, 52}";
type = Stem;
},
{
horizontal = 1;
place = "{1004, 52}";
type = Stem;
},
{
place = "{166, 54}";
type = Stem;
},
{
place = "{1138, 56}";
type = Stem;
},
{
horizontal = 1;
place = "{1024, -20}";
target = down;
type = TopGhost;
}
);
layerId = "ac360476-f880-49b3-af70-f23fb533da3d";
paths = (
{
closed = 1;
nodes = (
"166 197 OFFCURVE",
"386 -32 OFFCURVE",
"678 -32 CURVE SMOOTH",
"882 -32 OFFCURVE",
"1054 79 OFFCURVE",
"1138 262 CURVE",
"1138 -48 LINE SMOOTH",
"1138 -341 OFFCURVE",
"932 -504 OFFCURVE",
"664 -504 CURVE SMOOTH",
"447 -504 OFFCURVE",
"270 -398 OFFCURVE",
"202 -232 CURVE",
"150 -252 LINE",
"238 -446 OFFCURVE",
"414 -550 OFFCURVE",
"662 -550 CURVE SMOOTH",
"972 -550 OFFCURVE",
"1194 -388 OFFCURVE",
"1194 -28 CURVE SMOOTH",
"1194 1024 LINE",
"1138 1024 LINE",
"1138 762 LINE",
"1054 945 OFFCURVE",
"882 1056 OFFCURVE",
"678 1056 CURVE SMOOTH",
"386 1056 OFFCURVE",
"166 827 OFFCURVE",
"166 512 CURVE SMOOTH"
);
},
{
closed = 1;
nodes = (
"220 799 OFFCURVE",
"413 1004 OFFCURVE",
"682 1004 CURVE SMOOTH",
"951 1004 OFFCURVE",
"1144 800 OFFCURVE",
"1144 512 CURVE SMOOTH",
"1144 225 OFFCURVE",
"951 20 OFFCURVE",
"682 20 CURVE SMOOTH",
"413 20 OFFCURVE",
"220 225 OFFCURVE",
"220 512 CURVE SMOOTH"
);
}
);
width = 1429;
}
);
leftKerningGroup = _g;
rightKerningGroup = _g;
unicode = 0067;
},
{
color = 5;
glyphname = h;
lastChange = "2020-02-27 21:29:52 +0000";
layers = (
{
anchors = (
{
name = bottom;
position = "{731, 0}";
},
{
name = center;
position = "{731, 860}";
},
{
name = top;
position = "{731, 1720}";
}
);
hints = (
{
horizontal = 1;
place = "{734, 322}";
type = Stem;
},
{
place = "{157, 416}";
type = Stem;
},
{
place = "{909, 416}";
type = Stem;
},
{
horizontal = 1;
place = "{0, 21}";
target = up;
type = BottomGhost;
},
{
horizontal = 1;
place = "{1720, -20}";
target = down;
type = TopGhost;
}
);
layerId = "e62399bb-6e96-4ffb-a9ce-09aa31d52a36";
paths = (
{
closed = 1;
nodes = (
"573 0 LINE",
"573 564 LINE SMOOTH",
"573 667 OFFCURVE",
"640 734 OFFCURVE",
"741 734 CURVE SMOOTH",
"842 734 OFFCURVE",
"909 667 OFFCURVE",
"909 564 CURVE SMOOTH",
"909 0 LINE",
"1325 0 LINE",
"1325 654 LINE SMOOTH",
"1325 883 OFFCURVE",
"1148 1056 OFFCURVE",
"915 1056 CURVE SMOOTH",
"792 1056 OFFCURVE",
"667 1009 OFFCURVE",
"573 928 CURVE",
"573 1720 LINE",
"157 1720 LINE",
"157 0 LINE"
);
}
);
width = 1461;
},
{
anchors = (
{
name = bottom;
position = "{659, 0}";
},
{
name = center;
position = "{659, 860}";
},
{
name = top;
position = "{659, 1720}";
}
);
hints = (
{
horizontal = 1;
place = "{901, 155}";
type = Stem;
},
{
place = "{206, 194}";
type = Stem;
},
{
place = "{937, 194}";
type = Stem;
},
{
horizontal = 1;
place = "{0, 21}";
target = up;
type = BottomGhost;
},
{
horizontal = 1;
place = "{1720, -20}";
target = down;
type = TopGhost;
}
);
layerId = "b7c3c141-dc0f-46db-926d-e180a8f83e45";
paths = (
{
closed = 1;
nodes = (
"400 0 LINE",
"400 649 LINE SMOOTH",
"400 784 OFFCURVE",
"502 901 OFFCURVE",
"675 901 CURVE SMOOTH",
"840 901 OFFCURVE",
"937 794 OFFCURVE",
"937 603 CURVE SMOOTH",
"937 0 LINE",
"1131 0 LINE",
"1131 642 LINE SMOOTH",
"1131 900 OFFCURVE",
"980 1056 OFFCURVE",
"744 1056 CURVE SMOOTH",
"583 1056 OFFCURVE",
"462 985 OFFCURVE",
"400 892 CURVE",
"400 1720 LINE",
"206 1720 LINE",
"206 0 LINE"
);
}
);
width = 1318;
},
{
anchors = (
{
name = bottom;
position = "{614, 0}";
},
{
name = center;
position = "{614, 860}";
},
{
name = top;
position = "{614, 1720}";
}
);
hints = (
{
horizontal = 1;
place = "{1006, 50}";
type = Stem;
},
{
place = "{235, 56}";
type = Stem;
},
{
place = "{955, 56}";
type = Stem;
},
{
horizontal = 1;
place = "{0, 21}";
target = up;
type = BottomGhost;
},
{
horizontal = 1;
place = "{1720, -20}";
target = down;
type = TopGhost;
}
);
layerId = "ac360476-f880-49b3-af70-f23fb533da3d";
paths = (
{
closed = 1;
nodes = (
"291 0 LINE",
"291 702 LINE SMOOTH",
"291 858 OFFCURVE",
"416 1006 OFFCURVE",
"633 1006 CURVE SMOOTH",
"838 1006 OFFCURVE",
"955 874 OFFCURVE",
"955 627 CURVE SMOOTH",
"955 0 LINE",
"1011 0 LINE",
"1011 634 LINE SMOOTH",
"1011 910 OFFCURVE",
"875 1056 OFFCURVE",
"636 1056 CURVE SMOOTH",
"452 1056 OFFCURVE",
"333 970 OFFCURVE",
"291 870 CURVE",
"291 1720 LINE",
"235 1720 LINE",
"235 0 LINE"
);
}
);
width = 1228;
}
);
rightKerningGroup = _b;
unicode = 0068;
},
{
color = 5;
glyphname = hbar;
lastChange = "2020-02-27 21:29:52 +0000";
layers = (
{
components = (
{
alignment = -1;
name = h;
}
);
hints = (
{
horizontal = 1;
place = "{1218, 246}";
type = Stem;
}
);
layerId = "e62399bb-6e96-4ffb-a9ce-09aa31d52a36";
leftMetricsKey = "=h-137";
paths = (
{
closed = 1;
nodes = (
"800 1218 LINE",
"800 1464 LINE",
"20 1464 LINE",
"20 1218 LINE"
);
}
);
width = 1461;
},
{
components = (
{
alignment = -1;
name = h;
}
);
hints = (
{
horizontal = 1;
place = "{1292, 127}";
type = Stem;
}
);
layerId = "b7c3c141-dc0f-46db-926d-e180a8f83e45";
leftMetricsKey = "=h-142";
paths = (
{
closed = 1;
nodes = (
"619 1292 LINE",
"619 1419 LINE",
"64 1419 LINE",
"64 1292 LINE"
);
}
);
width = 1318;
},
{
components = (
{
alignment = -1;
name = h;
}
);
hints = (
{
horizontal = 1;
place = "{1338, 52}";
type = Stem;
}
);
layerId = "ac360476-f880-49b3-af70-f23fb533da3d";
leftMetricsKey = "=h-143";
paths = (
{
closed = 1;
nodes = (
"506 1338 LINE",
"506 1390 LINE",
"92 1390 LINE",
"92 1338 LINE"
);
}
);
width = 1228;
}
);
rightMetricsKey = h;
unicode = 0127;
},
{
color = 5;
glyphname = i;
lastChange = "2020-02-27 21:29:52 +0000";
layers = (
{
anchors = (
{
name = bottom;
position = "{365, 0}";
},
{
name = ogonek;
position = "{573, 0}";
}
);
components = (
{
alignment = -1;
name = idotless;
}
);
hints = (
{
horizontal = 1;
place = "{1244, 480}";
type = Stem;
},
{
place = "{124, 481}";
type = Stem;
}
);
layerId = "e62399bb-6e96-4ffb-a9ce-09aa31d52a36";
paths = (
{
closed = 1;
nodes = (
"498 1244 OFFCURVE",
"605 1352 OFFCURVE",
"605 1484 CURVE SMOOTH",
"605 1617 OFFCURVE",
"498 1724 OFFCURVE",
"365 1724 CURVE SMOOTH",
"232 1724 OFFCURVE",
"124 1617 OFFCURVE",
"124 1484 CURVE SMOOTH",
"124 1351 OFFCURVE",
"232 1244 OFFCURVE",
"365 1244 CURVE SMOOTH"
);
}
);
width = 729;
},
{
anchors = (
{
name = bottom;
position = "{302, 0}";
},
{
name = ogonek;
position = "{398, 0}";
}
);
components = (
{
alignment = -1;
name = idotless;
transform = "{1, 0, 0, 1, -0.615, 0}";
}
);
hints = (
{
horizontal = 1;
place = "{1232, 243}";
type = Stem;
},
{
place = "{179, 244}";
type = Stem;
}
);
layerId = "b7c3c141-dc0f-46db-926d-e180a8f83e45";
paths = (
{
closed = 1;
nodes = (
"370 1232 OFFCURVE",
"423 1286 OFFCURVE",
"423 1354 CURVE SMOOTH",
"423 1422 OFFCURVE",
"370 1475 OFFCURVE",
"302 1475 CURVE SMOOTH",
"234 1475 OFFCURVE",
"179 1422 OFFCURVE",
"179 1354 CURVE SMOOTH",
"179 1286 OFFCURVE",
"234 1232 OFFCURVE",
"302 1232 CURVE SMOOTH"
);
}
);
width = 602;
},
{
anchors = (
{
name = bottom;
position = "{263, 0}";
},
{
name = ogonek;
position = "{290, 0}";
}
);
components = (
{
alignment = -1;
name = idotless;
transform = "{1, 0, 0, 1, -1, 0}";
}
);
hints = (
{
horizontal = 1;
place = "{1224, 95}";
type = Stem;
},
{
place = "{214, 95}";
type = Stem;
}
);
layerId = "ac360476-f880-49b3-af70-f23fb533da3d";
paths = (
{
closed = 1;
nodes = (
"289 1224 OFFCURVE",
"309 1245 OFFCURVE",
"309 1272 CURVE SMOOTH",
"309 1299 OFFCURVE",
"289 1319 OFFCURVE",
"262 1319 CURVE SMOOTH",
"235 1319 OFFCURVE",
"214 1299 OFFCURVE",
"214 1272 CURVE SMOOTH",
"214 1245 OFFCURVE",
"235 1224 OFFCURVE",
"262 1224 CURVE SMOOTH"
);
}
);
width = 523;
}
);
leftKerningGroup = _I;
rightKerningGroup = _A1;
unicode = 0069;
},
{
color = 5;
glyphname = idotless;
lastChange = "2020-02-27 21:29:52 +0000";
layers = (
{
anchors = (
{
name = bottom;
position = "{365, 0}";
},
{
name = ogonek;
position = "{573, 0}";
},
{
name = top;
position = "{365, 1024}";
}
);
hints = (
{
horizontal = 1;
place = "{1024, -20}";
target = down;
type = TopGhost;
},
{
horizontal = 1;
place = "{0, 21}";
target = up;
type = BottomGhost;
},
{
place = "{157, 416}";
type = Stem;
}
);
layerId = "e62399bb-6e96-4ffb-a9ce-09aa31d52a36";
paths = (
{
closed = 1;
nodes = (
"573 0 LINE",
"573 1024 LINE",
"157 1024 LINE",
"157 0 LINE"
);
}
);
width = 730;
},
{
anchors = (
{
name = bottom;
position = "{303, 0}";
},
{
name = ogonek;
position = "{399, 0}";
},
{
name = top;
position = "{302, 1025}";
}
);
hints = (
{
horizontal = 1;
place = "{1024, -20}";
target = down;
type = TopGhost;
},
{
horizontal = 1;
place = "{0, 21}";
target = up;
type = BottomGhost;
},
{
place = "{205, 194}";
type = Stem;
}
);
layerId = "b7c3c141-dc0f-46db-926d-e180a8f83e45";
paths = (
{
closed = 1;
nodes = (
"399 0 LINE",
"399 1024 LINE",
"205 1024 LINE",
"205 0 LINE"
);
}
);
width = 604;
},
{
anchors = (
{
name = bottom;
position = "{263, 0}";
},
{
name = ogonek;
position = "{291, 0}";
},
{
name = top;
position = "{263, 1026}";
}
);
hints = (
{
horizontal = 1;
place = "{1024, -20}";
target = down;
type = TopGhost;
},
{
horizontal = 1;
place = "{0, 21}";
target = up;
type = BottomGhost;
},
{
place = "{235, 56}";
type = Stem;
}
);
layerId = "ac360476-f880-49b3-af70-f23fb533da3d";
paths = (
{
closed = 1;
nodes = (
"291 0 LINE",
"291 1024 LINE",
"235 1024 LINE",
"235 0 LINE"
);
}
);
width = 526;
}
);
leftKerningGroup = _I;
rightKerningGroup = _A1;
unicode = 0131;
},
{
color = 5;
glyphname = j;
lastChange = "2020-02-27 21:29:52 +0000";
layers = (
{
hints = (
{
place = "{157, 416}";
type = Stem;
},
{
horizontal = 1;
place = "{-550, 374}";
type = Stem;
},
{
horizontal = 1;
place = "{1024, -20}";
target = down;
type = TopGhost;
},
{
place = "{124, 481}";
type = Stem;
},
{
horizontal = 1;
place = "{1243, 481}";
type = Stem;
}
);
layerId = "e62399bb-6e96-4ffb-a9ce-09aa31d52a36";
paths = (
{
closed = 1;
nodes = (
"418 -550 OFFCURVE",
"573 -386 OFFCURVE",
"573 -138 CURVE SMOOTH",
"573 1024 LINE",
"157 1024 LINE",
"157 -56 LINE SMOOTH",
"157 -119 OFFCURVE",
"133 -176 OFFCURVE",
"65 -176 CURVE SMOOTH",
"43 -176 OFFCURVE",
"19 -170 OFFCURVE",
"-5 -148 CURVE",
"-201 -422 LINE",
"-126 -497 OFFCURVE",
"7 -550 OFFCURVE",
"156 -550 CURVE SMOOTH"
);
},
{
closed = 1;
nodes = (
"497 1243 OFFCURVE",
"605 1352 OFFCURVE",
"605 1484 CURVE SMOOTH",
"605 1616 OFFCURVE",
"497 1724 OFFCURVE",
"365 1724 CURVE SMOOTH",
"232 1724 OFFCURVE",
"124 1616 OFFCURVE",
"124 1484 CURVE SMOOTH",
"124 1351 OFFCURVE",
"232 1243 OFFCURVE",
"365 1243 CURVE SMOOTH"
);
}
);
width = 730;
},
{
hints = (
{
place = "{206, 194}";
type = Stem;
},
{
horizontal = 1;
place = "{-550, 174}";
type = Stem;
},
{
horizontal = 1;
place = "{1024, -20}";
target = down;
type = TopGhost;
},
{
place = "{181, 244}";
type = Stem;
},
{
horizontal = 1;
place = "{1233, 244}";
type = Stem;
}
);
layerId = "b7c3c141-dc0f-46db-926d-e180a8f83e45";
paths = (
{
closed = 1;
nodes = (
"286 -550 OFFCURVE",
"400 -427 OFFCURVE",
"400 -209 CURVE SMOOTH",
"400 1024 LINE",
"206 1024 LINE",
"206 -184 LINE SMOOTH",
"206 -305 OFFCURVE",
"153 -376 OFFCURVE",
"63 -376 CURVE SMOOTH",
"25 -376 OFFCURVE",
"-18 -363 OFFCURVE",
"-50 -323 CURVE",
"-148 -444 LINE",
"-87 -516 OFFCURVE",
"4 -550 OFFCURVE",
"101 -550 CURVE SMOOTH"
);
},
{
closed = 1;
nodes = (
"370 1233 OFFCURVE",
"425 1288 OFFCURVE",
"425 1355 CURVE SMOOTH",
"425 1422 OFFCURVE",
"370 1477 OFFCURVE",
"303 1477 CURVE SMOOTH",
"236 1477 OFFCURVE",
"181 1422 OFFCURVE",
"181 1355 CURVE SMOOTH",
"181 1288 OFFCURVE",
"236 1233 OFFCURVE",
"303 1233 CURVE SMOOTH"
);
}
);
width = 605;
},
{
hints = (
{
place = "{236, 56}";
type = Stem;
},
{
horizontal = 1;
place = "{-550, 48}";
type = Stem;
},
{
horizontal = 1;
place = "{1024, -20}";
target = down;
type = TopGhost;
},
{
place = "{216, 96}";
type = Stem;
},
{
horizontal = 1;
place = "{1226, 96}";
type = Stem;
}
);
layerId = "ac360476-f880-49b3-af70-f23fb533da3d";
paths = (
{
closed = 1;
nodes = (
"204 -550 OFFCURVE",
"292 -452 OFFCURVE",
"292 -254 CURVE SMOOTH",
"292 1024 LINE",
"236 1024 LINE",
"236 -264 LINE SMOOTH",
"236 -421 OFFCURVE",
"166 -502 OFFCURVE",
"62 -502 CURVE SMOOTH",
"13 -502 OFFCURVE",
"-41 -484 OFFCURVE",
"-78 -432 CURVE",
"-114 -458 LINE",
"-63 -528 OFFCURVE",
"2 -550 OFFCURVE",
"67 -550 CURVE SMOOTH"
);
},
{
closed = 1;
nodes = (
"290 1226 OFFCURVE",
"312 1248 OFFCURVE",
"312 1274 CURVE SMOOTH",
"312 1300 OFFCURVE",
"290 1322 OFFCURVE",
"264 1322 CURVE SMOOTH",
"238 1322 OFFCURVE",
"216 1300 OFFCURVE",
"216 1274 CURVE SMOOTH",
"216 1248 OFFCURVE",
"238 1226 OFFCURVE",
"264 1226 CURVE SMOOTH"
);
}
);
width = 527;
}
);
rightKerningGroup = _A1;
unicode = 006A;
},
{
color = 5;
glyphname = k;
lastChange = "2020-02-27 21:29:52 +0000";
layers = (
{
anchors = (
{
name = bottom;
position = "{713, 0}";
},
{
name = top;
position = "{713, 1720}";
}
);
hints = (
{
horizontal = 1;
place = "{1720, -20}";
target = down;
type = TopGhost;
},
{
place = "{157, 416}";
type = Stem;
},
{
horizontal = 1;
place = "{0, 21}";
target = up;
type = BottomGhost;
},
{
horizontal = 1;
place = "{1024, -20}";
target = down;
type = TopGhost;
}
);
layerId = "e62399bb-6e96-4ffb-a9ce-09aa31d52a36";
paths = (
{
closed = 1;
nodes = (
"573 0 LINE",
"573 350 LINE",
"957 0 LINE",
"1491 0 LINE",
"945 508 LINE",
"1469 1024 LINE",
"931 1024 LINE",
"573 680 LINE",
"573 1720 LINE",
"157 1720 LINE",
"157 0 LINE"
);
}
);
width = 1426;
},
{
anchors = (
{
name = bottom;
position = "{580, 0}";
},
{
name = top;
position = "{580, 1720}";
}
);
hints = (
{
horizontal = 1;
place = "{1720, -20}";
target = down;
type = TopGhost;
},
{
place = "{205, 195}";
type = Stem;
},
{
horizontal = 1;
place = "{0, 21}";
target = up;
type = BottomGhost;
},
{
horizontal = 1;
place = "{1024, -20}";
target = down;
type = TopGhost;
}
);
layerId = "b7c3c141-dc0f-46db-926d-e180a8f83e45";
paths = (
{
closed = 1;
nodes = (
"400 0 LINE",
"400 461 LINE",
"827 0 LINE",
"1077 0 LINE",
"576 536 LINE",
"1053 1024 LINE",
"800 1024 LINE",
"400 619 LINE",
"400 1720 LINE",
"205 1720 LINE",
"205 0 LINE"
);
}
);
width = 1161;
},
{
anchors = (
{
name = bottom;
position = "{497, 0}";
},
{
name = top;
position = "{497, 1720}";
}
);
guideLines = (
{
position = "{0, 512}";
}
);
hints = (
{
horizontal = 1;
place = "{1720, -20}";
target = down;
type = TopGhost;
},
{
place = "{235, 56}";
type = Stem;
},
{
horizontal = 1;
place = "{0, 21}";
target = up;
type = BottomGhost;
},
{
horizontal = 1;
place = "{1024, -20}";
target = down;
type = TopGhost;
}
);
layerId = "ac360476-f880-49b3-af70-f23fb533da3d";
paths = (
{
closed = 1;
nodes = (
"291 0 LINE",
"291 531 LINE",
"745 0 LINE",
"817 0 LINE",
"344 554 LINE",
"791 1024 LINE",
"717 1024 LINE",
"291 580 LINE",
"291 1720 LINE",
"235 1720 LINE",
"235 0 LINE"
);
}
);
width = 994;
}
);
rightKerningGroup = _A1;
unicode = 006B;
},
{
color = 5;
glyphname = l;
lastChange = "2020-02-27 21:29:52 +0000";
layers = (
{
anchors = (
{
name = bottom;
position = "{365, 0}";
},
{
name = center;
position = "{365, 860}";
},
{
name = top;
position = "{365, 1720}";
},
{
name = topright;
position = "{573, 1720}";
}
);
hints = (
{
place = "{157, 416}";
type = Stem;
},
{
horizontal = 1;
place = "{1720, -20}";
target = down;
type = TopGhost;
},
{
horizontal = 1;
place = "{0, 21}";
target = up;
type = BottomGhost;
}
);
layerId = "e62399bb-6e96-4ffb-a9ce-09aa31d52a36";
paths = (
{
closed = 1;
nodes = (
"573 0 LINE",
"573 1720 LINE",
"157 1720 LINE",
"157 0 LINE"
);
}
);
width = 730;
},
{
anchors = (
{
name = bottom;
position = "{302, 0}";
},
{
name = center;
position = "{302, 860}";
},
{
name = top;
position = "{302, 1720}";
},
{
name = topright;
position = "{399, 1720}";
}
);
hints = (
{
place = "{205, 194}";
type = Stem;
},
{
horizontal = 1;
place = "{1720, -20}";
target = down;
type = TopGhost;
},
{
horizontal = 1;
place = "{0, 21}";
target = up;
type = BottomGhost;
}
);
layerId = "b7c3c141-dc0f-46db-926d-e180a8f83e45";
paths = (
{
closed = 1;
nodes = (
"399 0 LINE",
"399 1720 LINE",
"205 1720 LINE",
"205 0 LINE"
);
}
);
width = 604;
},
{
anchors = (
{
name = bottom;
position = "{263, 0}";
},
{
name = center;
position = "{263, 860}";
},
{
name = top;
position = "{263, 1720}";
},
{
name = topright;
position = "{291, 1720}";
}
);
hints = (
{
place = "{235, 56}";
type = Stem;
},
{
horizontal = 1;
place = "{1720, -20}";
target = down;
type = TopGhost;
},
{
horizontal = 1;
place = "{0, 21}";
target = up;
type = BottomGhost;
}
);
layerId = "ac360476-f880-49b3-af70-f23fb533da3d";
paths = (
{
closed = 1;
nodes = (
"291 0 LINE",
"291 1720 LINE",
"235 1720 LINE",
"235 0 LINE"
);
}
);
width = 526;
}
);
leftKerningGroup = _I;
rightKerningGroup = _A1;
unicode = 006C;
},
{
color = 5;
glyphname = lslash;
lastChange = "2020-02-27 21:29:52 +0000";
layers = (
{
components = (
{
alignment = -1;
name = l;
transform = "{1, 0, 0, 1, 144, 0}";
}
);
layerId = "e62399bb-6e96-4ffb-a9ce-09aa31d52a36";
paths = (
{
closed = 1;
nodes = (
"861 1006 LINE",
"861 1364 LINE",
"157 812 LINE",
"157 454 LINE"
);
}
);
width = 1018;
},
{
components = (
{
alignment = -1;
name = l;
transform = "{1, 0, 0, 1, 174, 0}";
}
);
layerId = "b7c3c141-dc0f-46db-926d-e180a8f83e45";
paths = (
{
closed = 1;
nodes = (
"747 1050 LINE",
"747 1223 LINE",
"205 797 LINE",
"205 625 LINE"
);
}
);
width = 952;
},
{
components = (
{
alignment = -1;
name = l;
transform = "{1, 0, 0, 1, 192, 0}";
}
);
layerId = "ac360476-f880-49b3-af70-f23fb533da3d";
paths = (
{
closed = 1;
nodes = (
"675 1078 LINE",
"675 1134 LINE",
"235 788 LINE",
"235 732 LINE"
);
}
);
width = 910;
}
);
leftMetricsKey = l;
rightKerningGroup = _A1;
rightMetricsKey = l;
unicode = 0142;
},
{
color = 5;
glyphname = m;
lastChange = "2020-02-27 21:29:52 +0000";
layers = (
{
anchors = (
{
name = bottom;
position = "{1265, 0}";
},
{
name = top;
position = "{1139, 1024}";
}
);
hints = (
{
horizontal = 1;
place = "{726, 330}";
type = Stem;
},
{
horizontal = 1;
place = "{726, 330}";
type = Stem;
},
{
place = "{849, 416}";
type = Stem;
},
{
place = "{1541, 416}";
type = Stem;
},
{
place = "{157, 416}";
type = Stem;
},
{
horizontal = 1;
place = "{0, 21}";
target = up;
type = BottomGhost;
},
{
horizontal = 1;
place = "{1024, -20}";
target = down;
type = TopGhost;
}
);
layerId = "e62399bb-6e96-4ffb-a9ce-09aa31d52a36";
paths = (
{
closed = 1;
nodes = (
"157 1024 LINE",
"157 0 LINE",
"573 0 LINE",
"573 574 LINE SMOOTH",
"573 670 OFFCURVE",
"624 726 OFFCURVE",
"710 726 CURVE SMOOTH",
"800 726 OFFCURVE",
"849 664 OFFCURVE",
"849 572 CURVE SMOOTH",
"849 0 LINE",
"1265 0 LINE",
"1265 588 LINE SMOOTH",
"1265 674 OFFCURVE",
"1316 726 OFFCURVE",
"1402 726 CURVE SMOOTH",
"1488 726 OFFCURVE",
"1541 668 OFFCURVE",
"1541 572 CURVE SMOOTH",
"1541 0 LINE",
"1957 0 LINE",
"1957 684 LINE SMOOTH",
"1957 904 OFFCURVE",
"1795 1056 OFFCURVE",
"1571 1056 CURVE SMOOTH",
"1438 1056 OFFCURVE",
"1334 1002 OFFCURVE",
"1221 876 CURVE",
"1161 984 OFFCURVE",
"1021 1056 OFFCURVE",
"872 1056 CURVE SMOOTH",
"754 1056 OFFCURVE",
"664 1010 OFFCURVE",
"573 903 CURVE",
"573 1024 LINE"
);
}
);
width = 2093;
},
{
anchors = (
{
name = bottom;
position = "{1111, 0}";
},
{
name = top;
position = "{1056, 1025}";
}
);
hints = (
{
horizontal = 1;
place = "{898, 158}";
type = Stem;
},
{
horizontal = 1;
place = "{898, 158}";
type = Stem;
},
{
place = "{916, 195}";
type = Stem;
},
{
place = "{1627, 195}";
type = Stem;
},
{
place = "{206, 195}";
type = Stem;
},
{
horizontal = 1;
place = "{0, 21}";
target = up;
type = BottomGhost;
},
{
horizontal = 1;
place = "{1024, -20}";
target = down;
type = TopGhost;
}
);
layerId = "b7c3c141-dc0f-46db-926d-e180a8f83e45";
paths = (
{
closed = 1;
nodes = (
"206 1024 LINE",
"206 0 LINE",
"401 0 LINE",
"401 600 LINE SMOOTH",
"401 786 OFFCURVE",
"522 898 OFFCURVE",
"675 898 CURVE SMOOTH",
"822 898 OFFCURVE",
"916 795 OFFCURVE",
"916 633 CURVE SMOOTH",
"916 0 LINE",
"1111 0 LINE",
"1111 600 LINE SMOOTH",
"1111 786 OFFCURVE",
"1227 898 OFFCURVE",
"1382 898 CURVE SMOOTH",
"1530 898 OFFCURVE",
"1627 792 OFFCURVE",
"1627 621 CURVE SMOOTH",
"1627 0 LINE",
"1822 0 LINE",
"1822 675 LINE SMOOTH",
"1822 916 OFFCURVE",
"1662 1056 OFFCURVE",
"1444 1056 CURVE SMOOTH",
"1281 1056 OFFCURVE",
"1164 977 OFFCURVE",
"1079 847 CURVE",
"1029 975 OFFCURVE",
"894 1056 OFFCURVE",
"730 1056 CURVE SMOOTH",
"596 1056 OFFCURVE",
"487 1003 OFFCURVE",
"401 871 CURVE",
"401 1024 LINE"
);
}
);
width = 2009;
},
{
anchors = (
{
name = bottom;
position = "{1013, 0}";
},
{
name = top;
position = "{1003, 1026}";
}
);
hints = (
{
horizontal = 1;
place = "{1006, 50}";
type = Stem;
},
{
horizontal = 1;
place = "{1006, 50}";
type = Stem;
},
{
place = "{877, 56}";
type = Stem;
},
{
place = "{1519, 56}";
type = Stem;
},
{
place = "{235, 56}";
type = Stem;
},
{
horizontal = 1;
place = "{0, 21}";
target = up;
type = BottomGhost;
},
{
horizontal = 1;
place = "{1024, -20}";
target = down;
type = TopGhost;
}
);
layerId = "ac360476-f880-49b3-af70-f23fb533da3d";
paths = (
{
closed = 1;
nodes = (
"235 1024 LINE",
"235 0 LINE",
"291 0 LINE",
"291 642 LINE SMOOTH",
"291 859 OFFCURVE",
"430 1006 OFFCURVE",
"605 1006 CURVE SMOOTH",
"768 1006 OFFCURVE",
"877 877 OFFCURVE",
"877 672 CURVE SMOOTH",
"877 0 LINE",
"933 0 LINE",
"933 642 LINE SMOOTH",
"933 859 OFFCURVE",
"1072 1006 OFFCURVE",
"1247 1006 CURVE SMOOTH",
"1410 1006 OFFCURVE",
"1519 877 OFFCURVE",
"1519 652 CURVE SMOOTH",
"1519 0 LINE",
"1575 0 LINE",
"1575 670 LINE SMOOTH",
"1575 914 OFFCURVE",
"1439 1056 OFFCURVE",
"1250 1056 CURVE SMOOTH",
"1083 1056 OFFCURVE",
"951 946 OFFCURVE",
"918 789 CURVE",
"885 955 OFFCURVE",
"767 1056 OFFCURVE",
"608 1056 CURVE SMOOTH",
"460 1056 OFFCURVE",
"339 969 OFFCURVE",
"291 840 CURVE",
"291 1024 LINE"
);
}
);
width = 1792;
}
);
leftKerningGroup = _m;
leftMetricsKey = n;
rightKerningGroup = _b;
rightMetricsKey = n;
unicode = 006D;
},
{
color = 5;
glyphname = n;
lastChange = "2020-02-27 21:29:52 +0000";
layers = (
{
anchors = (
{
name = bottom;
position = "{741, 0}";
},
{
name = top;
position = "{741, 1024}";
}
);
hints = (
{
horizontal = 1;
place = "{734, 322}";
type = Stem;
},
{
horizontal = 1;
place = "{1024, -20}";
target = down;
type = TopGhost;
},
{
place = "{909, 416}";
type = Stem;
},
{
place = "{157, 416}";
type = Stem;
},
{
horizontal = 1;
place = "{0, 21}";
target = up;
type = BottomGhost;
}
);
layerId = "e62399bb-6e96-4ffb-a9ce-09aa31d52a36";
paths = (
{
closed = 1;
nodes = (
"573 0 LINE",
"573 564 LINE SMOOTH",
"573 667 OFFCURVE",
"640 734 OFFCURVE",
"741 734 CURVE SMOOTH",
"842 734 OFFCURVE",
"909 667 OFFCURVE",
"909 564 CURVE SMOOTH",
"909 0 LINE",
"1325 0 LINE",
"1325 654 LINE SMOOTH",
"1325 883 OFFCURVE",
"1148 1056 OFFCURVE",
"915 1056 CURVE SMOOTH",
"792 1056 OFFCURVE",
"667 1009 OFFCURVE",
"573 888 CURVE",
"573 1024 LINE",
"157 1024 LINE",
"157 0 LINE"
);
}
);
width = 1461;
},
{
anchors = (
{
name = bottom;
position = "{675, 0}";
},
{
name = top;
position = "{675, 1024}";
}
);
hints = (
{
horizontal = 1;
place = "{900, 156}";
type = Stem;
},
{
horizontal = 1;
place = "{1024, -20}";
target = down;
type = TopGhost;
},
{
place = "{937, 194}";
type = Stem;
},
{
place = "{206, 194}";
type = Stem;
},
{
horizontal = 1;
place = "{0, 21}";
target = up;
type = BottomGhost;
}
);
layerId = "b7c3c141-dc0f-46db-926d-e180a8f83e45";
paths = (
{
closed = 1;
nodes = (
"400 0 LINE",
"400 579 LINE SMOOTH",
"400 784 OFFCURVE",
"502 900 OFFCURVE",
"675 900 CURVE SMOOTH",
"840 900 OFFCURVE",
"937 794 OFFCURVE",
"937 603 CURVE SMOOTH",
"937 0 LINE",
"1131 0 LINE",
"1131 642 LINE SMOOTH",
"1131 900 OFFCURVE",
"980 1056 OFFCURVE",
"743 1056 CURVE SMOOTH",
"583 1056 OFFCURVE",
"462 985 OFFCURVE",
"400 882 CURVE",
"400 1024 LINE",
"206 1024 LINE",
"206 0 LINE"
);
}
);
width = 1318;
},
{
anchors = (
{
name = bottom;
position = "{633, 0}";
},
{
name = top;
position = "{633, 1014}";
}
);
hints = (
{
horizontal = 1;
place = "{1004, 52}";
type = Stem;
},
{
horizontal = 1;
place = "{1024, -20}";
target = down;
type = TopGhost;
},
{
place = "{955, 56}";
type = Stem;
},
{
place = "{235, 56}";
type = Stem;
},
{
horizontal = 1;
place = "{0, 21}";
target = up;
type = BottomGhost;
}
);
layerId = "ac360476-f880-49b3-af70-f23fb533da3d";
paths = (
{
closed = 1;
nodes = (
"291 0 LINE",
"291 622 LINE SMOOTH",
"291 828 OFFCURVE",
"416 1004 OFFCURVE",
"643 1004 CURVE SMOOTH",
"843 1004 OFFCURVE",
"955 868 OFFCURVE",
"955 627 CURVE SMOOTH",
"955 0 LINE",
"1011 0 LINE",
"1011 634 LINE SMOOTH",
"1011 903 OFFCURVE",
"881 1056 OFFCURVE",
"651 1056 CURVE SMOOTH",
"452 1056 OFFCURVE",
"333 940 OFFCURVE",
"291 820 CURVE",
"291 1024 LINE",
"235 1024 LINE",
"235 0 LINE"
);
}
);
width = 1228;
}
);
leftKerningGroup = _m;
rightKerningGroup = _b;
unicode = 006E;
},
{
color = 5;
glyphname = eng;
lastChange = "2020-02-27 21:29:52 +0000";
layers = (
{
hints = (
{
horizontal = 1;
place = "{734, 322}";
type = Stem;
},
{
place = "{909, 416}";
type = Stem;
},
{
horizontal = 1;
place = "{-550, 374}";
type = Stem;
},
{
horizontal = 1;
place = "{0, 21}";
target = up;
type = BottomGhost;
},
{
place = "{157, 416}";
type = Stem;
},
{
horizontal = 1;
place = "{1024, -20}";
target = down;
type = TopGhost;
}
);
layerId = "e62399bb-6e96-4ffb-a9ce-09aa31d52a36";
paths = (
{
closed = 1;
nodes = (
"157 1024 LINE",
"157 0 LINE",
"573 0 LINE",
"573 564 LINE SMOOTH",
"573 667 OFFCURVE",
"640 734 OFFCURVE",
"741 734 CURVE SMOOTH",
"842 734 OFFCURVE",
"909 667 OFFCURVE",
"909 564 CURVE SMOOTH",
"909 -56 LINE SMOOTH",
"909 -119 OFFCURVE",
"885 -176 OFFCURVE",
"817 -176 CURVE SMOOTH",
"795 -176 OFFCURVE",
"771 -170 OFFCURVE",
"747 -148 CURVE",
"551 -422 LINE",
"626 -497 OFFCURVE",
"759 -550 OFFCURVE",
"908 -550 CURVE SMOOTH",
"1170 -550 OFFCURVE",
"1325 -386 OFFCURVE",
"1325 -138 CURVE SMOOTH",
"1325 654 LINE SMOOTH",
"1325 883 OFFCURVE",
"1148 1056 OFFCURVE",
"915 1056 CURVE SMOOTH",
"792 1056 OFFCURVE",
"667 1009 OFFCURVE",
"573 928 CURVE",
"573 1024 LINE"
);
}
);
width = 1450;
},
{
hints = (
{
horizontal = 1;
place = "{900, 156}";
type = Stem;
},
{
place = "{937, 194}";
type = Stem;
},
{
horizontal = 1;
place = "{-550, 174}";
type = Stem;
},
{
horizontal = 1;
place = "{0, 21}";
target = up;
type = BottomGhost;
},
{
place = "{206, 194}";
type = Stem;
},
{
horizontal = 1;
place = "{1024, -20}";
target = down;
type = TopGhost;
}
);
layerId = "b7c3c141-dc0f-46db-926d-e180a8f83e45";
paths = (
{
closed = 1;
nodes = (
"206 1024 LINE",
"206 0 LINE",
"400 0 LINE",
"400 579 LINE SMOOTH",
"400 784 OFFCURVE",
"502 900 OFFCURVE",
"675 900 CURVE SMOOTH",
"840 900 OFFCURVE",
"937 794 OFFCURVE",
"937 603 CURVE SMOOTH",
"937 -184 LINE SMOOTH",
"937 -305 OFFCURVE",
"885 -376 OFFCURVE",
"795 -376 CURVE SMOOTH",
"756 -376 OFFCURVE",
"714 -363 OFFCURVE",
"682 -323 CURVE",
"584 -444 LINE",
"644 -516 OFFCURVE",
"736 -550 OFFCURVE",
"833 -550 CURVE SMOOTH",
"1018 -550 OFFCURVE",
"1131 -427 OFFCURVE",
"1131 -209 CURVE SMOOTH",
"1131 642 LINE SMOOTH",
"1131 900 OFFCURVE",
"980 1056 OFFCURVE",
"743 1056 CURVE SMOOTH",
"583 1056 OFFCURVE",
"462 985 OFFCURVE",
"400 882 CURVE",
"400 1024 LINE"
);
}
);
width = 1311;
},
{
hints = (
{
horizontal = 1;
place = "{1006, 50}";
type = Stem;
},
{
place = "{955, 56}";
type = Stem;
},
{
horizontal = 1;
place = "{-550, 48}";
type = Stem;
},
{
horizontal = 1;
place = "{0, 21}";
target = up;
type = BottomGhost;
},
{
place = "{235, 56}";
type = Stem;
},
{
horizontal = 1;
place = "{1025, -20}";
target = down;
type = TopGhost;
}
);
layerId = "ac360476-f880-49b3-af70-f23fb533da3d";
paths = (
{
closed = 1;
nodes = (
"235 1025 LINE",
"235 0 LINE",
"291 0 LINE",
"291 702 LINE SMOOTH",
"291 890 OFFCURVE",
"453 1006 OFFCURVE",
"626 1006 CURVE SMOOTH",
"841 1006 OFFCURVE",
"955 826 OFFCURVE",
"955 622 CURVE SMOOTH",
"955 -264 LINE SMOOTH",
"955 -421 OFFCURVE",
"885 -502 OFFCURVE",
"781 -502 CURVE SMOOTH",
"732 -502 OFFCURVE",
"678 -484 OFFCURVE",
"641 -432 CURVE",
"605 -458 LINE",
"656 -528 OFFCURVE",
"721 -550 OFFCURVE",
"786 -550 CURVE SMOOTH",
"923 -550 OFFCURVE",
"1011 -452 OFFCURVE",
"1011 -254 CURVE SMOOTH",
"1011 640 LINE SMOOTH",
"1011 880 OFFCURVE",
"859 1056 OFFCURVE",
"624 1056 CURVE SMOOTH",
"469 1056 OFFCURVE",
"335 979 OFFCURVE",
"291 870 CURVE",
"291 1025 LINE"
);
}
);
width = 1226;
}
);
leftMetricsKey = n;
rightMetricsKey = j;
unicode = 014B;
},
{
color = 5;
glyphname = o;
lastChange = "2020-02-27 21:29:52 +0000";
layers = (
{
anchors = (
{
name = bottom;
position = "{683, 0}";
},
{
name = center;
position = "{683, 512}";
},
{
name = ogonek;
position = "{723, 0}";
},
{
name = top;
position = "{683, 1024}";
}
);
hints = (
{
horizontal = 1;
place = "{-32, 352}";
type = Stem;
},
{
horizontal = 1;
place = "{704, 352}";
type = Stem;
},
{
place = "{59, 436}";
type = Stem;
},
{
place = "{871, 436}";
type = Stem;
}
);
layerId = "e62399bb-6e96-4ffb-a9ce-09aa31d52a36";
paths = (
{
closed = 1;
nodes = (
"1035 -32 OFFCURVE",
"1307 192 OFFCURVE",
"1307 512 CURVE SMOOTH",
"1307 832 OFFCURVE",
"1035 1056 OFFCURVE",
"683 1056 CURVE SMOOTH",
"331 1056 OFFCURVE",
"59 832 OFFCURVE",
"59 512 CURVE SMOOTH",
"59 192 OFFCURVE",
"331 -32 OFFCURVE",
"683 -32 CURVE SMOOTH"
);
},
{
closed = 1;
nodes = (
"581 320 OFFCURVE",
"495 398 OFFCURVE",
"495 512 CURVE SMOOTH",
"495 626 OFFCURVE",
"581 704 OFFCURVE",
"683 704 CURVE SMOOTH",
"785 704 OFFCURVE",
"871 626 OFFCURVE",
"871 512 CURVE SMOOTH",
"871 398 OFFCURVE",
"785 320 OFFCURVE",
"683 320 CURVE SMOOTH"
);
}
);
width = 1366;
},
{
anchors = (
{
name = bottom;
position = "{700, 0}";
},
{
name = center;
position = "{700, 512}";
},
{
name = ogonek;
position = "{720, 0}";
},
{
name = top;
position = "{700, 1024}";
}
);
hints = (
{
horizontal = 1;
place = "{-32, 170}";
type = Stem;
},
{
horizontal = 1;
place = "{886, 170}";
type = Stem;
},
{
place = "{123, 202}";
type = Stem;
},
{
place = "{1075, 202}";
type = Stem;
}
);
layerId = "b7c3c141-dc0f-46db-926d-e180a8f83e45";
paths = (
{
closed = 1;
nodes = (
"1026 -32 OFFCURVE",
"1277 191 OFFCURVE",
"1277 512 CURVE SMOOTH",
"1277 833 OFFCURVE",
"1026 1056 OFFCURVE",
"700 1056 CURVE SMOOTH",
"374 1056 OFFCURVE",
"123 833 OFFCURVE",
"123 512 CURVE SMOOTH",
"123 191 OFFCURVE",
"374 -32 OFFCURVE",
"700 -32 CURVE SMOOTH"
);
},
{
closed = 1;
nodes = (
"485 138 OFFCURVE",
"325 294 OFFCURVE",
"325 512 CURVE SMOOTH",
"325 730 OFFCURVE",
"485 886 OFFCURVE",
"700 886 CURVE SMOOTH",
"915 886 OFFCURVE",
"1075 730 OFFCURVE",
"1075 512 CURVE SMOOTH",
"1075 294 OFFCURVE",
"915 138 OFFCURVE",
"700 138 CURVE SMOOTH"
);
}
);
width = 1400;
},
{
anchors = (
{
name = bottom;
position = "{711, 0}";
},
{
name = center;
position = "{711, 512}";
},
{
name = ogonek;
position = "{721, 0}";
},
{
name = top;
position = "{711, 1024}";
}
);
hints = (
{
horizontal = 1;
place = "{-32, 56}";
type = Stem;
},
{
horizontal = 1;
place = "{1000, 56}";
type = Stem;
},
{
place = "{163, 56}";
type = Stem;
},
{
place = "{1203, 56}";
type = Stem;
}
);
layerId = "ac360476-f880-49b3-af70-f23fb533da3d";
paths = (
{
closed = 1;
nodes = (
"1021 -32 OFFCURVE",
"1259 190 OFFCURVE",
"1259 512 CURVE SMOOTH",
"1259 834 OFFCURVE",
"1021 1056 OFFCURVE",
"711 1056 CURVE SMOOTH",
"401 1056 OFFCURVE",
"163 834 OFFCURVE",
"163 512 CURVE SMOOTH",
"163 190 OFFCURVE",
"401 -32 OFFCURVE",
"711 -32 CURVE SMOOTH"
);
},
{
closed = 1;
nodes = (
"425 24 OFFCURVE",
"219 228 OFFCURVE",
"219 512 CURVE SMOOTH",
"219 796 OFFCURVE",
"425 1000 OFFCURVE",
"711 1000 CURVE SMOOTH",
"997 1000 OFFCURVE",
"1203 796 OFFCURVE",
"1203 512 CURVE SMOOTH",
"1203 228 OFFCURVE",
"997 24 OFFCURVE",
"711 24 CURVE SMOOTH"
);
}
);
width = 1422;
}
);
leftKerningGroup = _c;
rightKerningGroup = _c;
unicode = 006F;
},
{
color = 5;
glyphname = oslash;
lastChange = "2020-02-27 21:29:52 +0000";
layers = (
{
components = (
{
alignment = -1;
name = o;
}
);
layerId = "e62399bb-6e96-4ffb-a9ce-09aa31d52a36";
paths = (
{
closed = 1;
nodes = (
"323 -32 LINE",
"1215 1056 LINE",
"1043 1056 LINE",
"151 -32 LINE"
);
}
);
width = 1366;
},
{
components = (
{
alignment = -1;
name = o;
}
);
layerId = "b7c3c141-dc0f-46db-926d-e180a8f83e45";
paths = (
{
closed = 1;
nodes = (
"309 -32 LINE",
"1201 1056 LINE",
"1091 1056 LINE",
"199 -32 LINE"
);
}
);
width = 1400;
},
{
components = (
{
alignment = -1;
name = o;
}
);
layerId = "ac360476-f880-49b3-af70-f23fb533da3d";
paths = (
{
closed = 1;
nodes = (
"301 -32 LINE",
"1193 1056 LINE",
"1121 1056 LINE",
"229 -32 LINE"
);
}
);
width = 1422;
}
);
leftMetricsKey = o;
rightMetricsKey = o;
unicode = 00F8;
},
{
color = 5;
glyphname = oe;
lastChange = "2020-02-27 21:29:52 +0000";
layers = (
{
anchors = (
{
name = bottom;
position = "{1028, 0}";
},
{
name = top;
position = "{1028, 1024}";
}
);
hints = (
{
horizontal = 1;
place = "{-32, 352}";
type = Stem;
},
{
horizontal = 1;
place = "{704, 352}";
type = Stem;
},
{
horizontal = 1;
place = "{-32, 328}";
type = Stem;
},
{
horizontal = 1;
place = "{780, 276}";
type = Stem;
},
{
place = "{59, 436}";
type = Stem;
},
{
place = "{1577, 406}";
type = Stem;
},
{
horizontal = 1;
place = "{454, 216}";
type = Stem;
}
);
layerId = "e62399bb-6e96-4ffb-a9ce-09aa31d52a36";
paths = (
{
closed = 1;
nodes = (
"827 -32 OFFCURVE",
"957 16 OFFCURVE",
"1045 108 CURVE",
"1162 11 OFFCURVE",
"1283 -32 OFFCURVE",
"1441 -32 CURVE SMOOTH",
"1678 -32 OFFCURVE",
"1865 65 OFFCURVE",
"1967 240 CURVE",
"1669 388 LINE",
"1596 317 OFFCURVE",
"1553 296 OFFCURVE",
"1478 296 CURVE SMOOTH",
"1355 296 OFFCURVE",
"1285 353 OFFCURVE",
"1285 454 CURVE",
"1979 454 LINE",
"1983 508 OFFCURVE",
"1983 511 OFFCURVE",
"1983 528 CURVE SMOOTH",
"1983 844 OFFCURVE",
"1764 1056 OFFCURVE",
"1437 1056 CURVE SMOOTH",
"1286 1056 OFFCURVE",
"1160 1011 OFFCURVE",
"1045 916 CURVE",
"952 1009 OFFCURVE",
"823 1056 OFFCURVE",
"662 1056 CURVE SMOOTH",
"309 1056 OFFCURVE",
"59 830 OFFCURVE",
"59 512 CURVE SMOOTH",
"59 193 OFFCURVE",
"309 -32 OFFCURVE",
"663 -32 CURVE SMOOTH"
);
},
{
closed = 1;
nodes = (
"576 320 OFFCURVE",
"495 403 OFFCURVE",
"495 512 CURVE SMOOTH",
"495 621 OFFCURVE",
"576 704 OFFCURVE",
"683 704 CURVE SMOOTH",
"790 704 OFFCURVE",
"871 621 OFFCURVE",
"871 512 CURVE SMOOTH",
"871 403 OFFCURVE",
"790 320 OFFCURVE",
"683 320 CURVE SMOOTH"
);
},
{
closed = 1;
nodes = (
"1297 670 LINE",
"1299 739 OFFCURVE",
"1351 780 OFFCURVE",
"1439 780 CURVE SMOOTH",
"1521 780 OFFCURVE",
"1564 745 OFFCURVE",
"1577 670 CURVE"
);
}
);
width = 2060;
},
{
anchors = (
{
name = bottom;
position = "{1133, 0}";
},
{
name = top;
position = "{1133, 1025}";
}
);
hints = (
{
horizontal = 1;
place = "{-32, 168}";
type = Stem;
},
{
horizontal = 1;
place = "{888, 168}";
type = Stem;
},
{
horizontal = 1;
place = "{-32, 158}";
type = Stem;
},
{
horizontal = 1;
place = "{918, 138}";
type = Stem;
},
{
place = "{123, 200}";
type = Stem;
},
{
place = "{1957, 191}";
type = Stem;
},
{
horizontal = 1;
place = "{490, 114}";
type = Stem;
}
);
layerId = "b7c3c141-dc0f-46db-926d-e180a8f83e45";
paths = (
{
closed = 1;
nodes = (
"906 -32 OFFCURVE",
"1080 71 OFFCURVE",
"1159 240 CURVE",
"1249 69 OFFCURVE",
"1419 -32 OFFCURVE",
"1628 -32 CURVE SMOOTH",
"1840 -32 OFFCURVE",
"2017 61 OFFCURVE",
"2116 223 CURVE",
"1974 297 LINE",
"1893 184 OFFCURVE",
"1782 126 OFFCURVE",
"1643 126 CURVE SMOOTH",
"1419 126 OFFCURVE",
"1265 276 OFFCURVE",
"1265 490 CURVE",
"2147 490 LINE",
"2148 512 OFFCURVE",
"2148 515 OFFCURVE",
"2148 524 CURVE SMOOTH",
"2148 827 OFFCURVE",
"1917 1056 OFFCURVE",
"1615 1056 CURVE SMOOTH",
"1417 1056 OFFCURVE",
"1248 948 OFFCURVE",
"1160 782 CURVE",
"1080 953 OFFCURVE",
"905 1056 OFFCURVE",
"693 1056 CURVE SMOOTH",
"366 1056 OFFCURVE",
"123 832 OFFCURVE",
"123 512 CURVE SMOOTH",
"123 192 OFFCURVE",
"366 -32 OFFCURVE",
"693 -32 CURVE SMOOTH"
);
},
{
closed = 1;
nodes = (
"483 136 OFFCURVE",
"323 294 OFFCURVE",
"323 512 CURVE SMOOTH",
"323 730 OFFCURVE",
"483 888 OFFCURVE",
"701 888 CURVE SMOOTH",
"918 888 OFFCURVE",
"1078 730 OFFCURVE",
"1078 512 CURVE SMOOTH",
"1078 294 OFFCURVE",
"918 136 OFFCURVE",
"701 136 CURVE SMOOTH"
);
},
{
closed = 1;
nodes = (
"1271 604 LINE",
"1286 784 OFFCURVE",
"1431 918 OFFCURVE",
"1615 918 CURVE SMOOTH",
"1797 918 OFFCURVE",
"1938 786 OFFCURVE",
"1957 604 CURVE"
);
}
);
width = 2266;
},
{
anchors = (
{
name = bottom;
position = "{1198, 0}";
},
{
name = top;
position = "{1198, 1026}";
}
);
hints = (
{
horizontal = 1;
place = "{-32, 52}";
type = Stem;
},
{
horizontal = 1;
place = "{1004, 52}";
type = Stem;
},
{
horizontal = 1;
place = "{-32, 52}";
type = Stem;
},
{
horizontal = 1;
place = "{1004, 52}";
type = Stem;
},
{
place = "{163, 52}";
type = Stem;
},
{
place = "{2195, 56}";
type = Stem;
},
{
horizontal = 1;
place = "{512, 50}";
type = Stem;
}
);
layerId = "ac360476-f880-49b3-af70-f23fb533da3d";
paths = (
{
closed = 1;
nodes = (
"954 -32 OFFCURVE",
"1156 106 OFFCURVE",
"1229 322 CURVE",
"1303 105 OFFCURVE",
"1504 -32 OFFCURVE",
"1745 -32 CURVE SMOOTH",
"1941 -32 OFFCURVE",
"2111 58 OFFCURVE",
"2209 212 CURVE",
"2165 240 LINE",
"2079 101 OFFCURVE",
"1925 20 OFFCURVE",
"1745 20 CURVE SMOOTH",
"1458 20 OFFCURVE",
"1251 227 OFFCURVE",
"1251 512 CURVE",
"2251 512 LINE",
"2251 515 OFFCURVE",
"2251 517 OFFCURVE",
"2251 522 CURVE SMOOTH",
"2251 817 OFFCURVE",
"2012 1056 OFFCURVE",
"1725 1056 CURVE SMOOTH",
"1499 1056 OFFCURVE",
"1303 908 OFFCURVE",
"1231 698 CURVE",
"1159 918 OFFCURVE",
"955 1056 OFFCURVE",
"711 1056 CURVE SMOOTH",
"401 1056 OFFCURVE",
"163 833 OFFCURVE",
"163 512 CURVE SMOOTH",
"163 191 OFFCURVE",
"401 -32 OFFCURVE",
"711 -32 CURVE SMOOTH"
);
},
{
closed = 1;
nodes = (
"424 20 OFFCURVE",
"215 226 OFFCURVE",
"215 512 CURVE SMOOTH",
"215 798 OFFCURVE",
"424 1004 OFFCURVE",
"711 1004 CURVE SMOOTH",
"998 1004 OFFCURVE",
"1207 798 OFFCURVE",
"1207 512 CURVE SMOOTH",
"1207 226 OFFCURVE",
"998 20 OFFCURVE",
"711 20 CURVE SMOOTH"
);
},
{
closed = 1;
nodes = (
"1253 562 LINE",
"1277 812 OFFCURVE",
"1480 1004 OFFCURVE",
"1725 1004 CURVE SMOOTH",
"1970 1004 OFFCURVE",
"2171 812 OFFCURVE",
"2195 562 CURVE"
);
}
);
width = 2395;
}
);
leftKerningGroup = _c;
leftMetricsKey = o;
rightKerningGroup = _c;
rightMetricsKey = e;
unicode = 0153;
},
{
color = 5;
glyphname = p;
lastChange = "2020-02-27 21:29:52 +0000";
layers = (
{
anchors = (
{
name = bottom;
position = "{733, 0}";
},
{
name = top;
position = "{733, 1024}";
}
);
layerId = "e62399bb-6e96-4ffb-a9ce-09aa31d52a36";
paths = (
{
closed = 1;
nodes = (
"951 401 OFFCURVE",
"868 320 OFFCURVE",
"757 320 CURVE SMOOTH",
"646 320 OFFCURVE",
"565 401 OFFCURVE",
"565 512 CURVE SMOOTH",
"565 623 OFFCURVE",
"646 704 OFFCURVE",
"757 704 CURVE SMOOTH",
"868 704 OFFCURVE",
"951 623 OFFCURVE",
"951 512 CURVE SMOOTH"
);
},
{
closed = 1;
nodes = (
"1391 819 OFFCURVE",
"1183 1056 OFFCURVE",
"885 1056 CURVE SMOOTH",
"767 1056 OFFCURVE",
"664 1019 OFFCURVE",
"573 944 CURVE",
"573 1024 LINE",
"157 1024 LINE",
"157 -520 LINE",
"573 -520 LINE",
"573 80 LINE",
"664 5 OFFCURVE",
"767 -32 OFFCURVE",
"885 -32 CURVE SMOOTH",
"1183 -32 OFFCURVE",
"1391 209 OFFCURVE",
"1391 514 CURVE SMOOTH"
);
}
);
width = 1465;
},
{
anchors = (
{
name = bottom;
position = "{744, 0}";
},
{
name = top;
position = "{744, 1024}";
}
);
layerId = "b7c3c141-dc0f-46db-926d-e180a8f83e45";
paths = (
{
closed = 1;
nodes = (
"1110 293 OFFCURVE",
"959 136 OFFCURVE",
"751 136 CURVE SMOOTH",
"542 136 OFFCURVE",
"393 293 OFFCURVE",
"393 512 CURVE SMOOTH",
"393 732 OFFCURVE",
"542 888 OFFCURVE",
"751 888 CURVE SMOOTH",
"959 888 OFFCURVE",
"1110 731 OFFCURVE",
"1110 512 CURVE SMOOTH"
);
},
{
closed = 1;
nodes = (
"1312 823 OFFCURVE",
"1097 1056 OFFCURVE",
"803 1056 CURVE SMOOTH",
"634 1056 OFFCURVE",
"489 974 OFFCURVE",
"400 832 CURVE",
"400 1024 LINE",
"206 1024 LINE",
"206 -520 LINE",
"400 -520 LINE",
"400 192 LINE",
"489 50 OFFCURVE",
"634 -32 OFFCURVE",
"803 -32 CURVE SMOOTH",
"1097 -32 OFFCURVE",
"1312 201 OFFCURVE",
"1312 512 CURVE SMOOTH"
);
}
);
width = 1442;
},
{
anchors = (
{
name = bottom;
position = "{749, 0}";
},
{
name = top;
position = "{749, 1024}";
}
);
layerId = "ac360476-f880-49b3-af70-f23fb533da3d";
paths = (
{
closed = 1;
nodes = (
"1209 225 OFFCURVE",
"1016 20 OFFCURVE",
"747 20 CURVE SMOOTH",
"478 20 OFFCURVE",
"285 225 OFFCURVE",
"285 512 CURVE SMOOTH",
"285 800 OFFCURVE",
"478 1004 OFFCURVE",
"747 1004 CURVE SMOOTH",
"1016 1004 OFFCURVE",
"1209 799 OFFCURVE",
"1209 512 CURVE SMOOTH"
);
},
{
closed = 1;
nodes = (
"1263 827 OFFCURVE",
"1043 1056 OFFCURVE",
"751 1056 CURVE SMOOTH",
"547 1056 OFFCURVE",
"375 945 OFFCURVE",
"291 762 CURVE",
"291 1024 LINE",
"235 1024 LINE",
"235 -520 LINE",
"291 -520 LINE",
"291 262 LINE",
"375 79 OFFCURVE",
"547 -32 OFFCURVE",
"751 -32 CURVE SMOOTH",
"1043 -32 OFFCURVE",
"1263 197 OFFCURVE",
"1263 512 CURVE SMOOTH"
);
}
);
width = 1428;
}
);
leftKerningGroup = _m;
leftMetricsKey = b;
rightKerningGroup = _b;
rightMetricsKey = b;
unicode = 0070;
},
{
color = 5;
glyphname = thorn;
lastChange = "2020-02-27 21:29:52 +0000";
layers = (
{
anchors = (
{
name = bottom;
position = "{744, 0}";
},
{
name = top;
position = "{744, 1024}";
}
);
layerId = "e62399bb-6e96-4ffb-a9ce-09aa31d52a36";
paths = (
{
closed = 1;
nodes = (
"565 623 OFFCURVE",
"646 704 OFFCURVE",
"757 704 CURVE SMOOTH",
"868 704 OFFCURVE",
"951 623 OFFCURVE",
"951 512 CURVE SMOOTH",
"951 401 OFFCURVE",
"868 320 OFFCURVE",
"757 320 CURVE SMOOTH",
"646 320 OFFCURVE",
"565 401 OFFCURVE",
"565 512 CURVE SMOOTH"
);
},
{
closed = 1;
nodes = (
"157 1720 LINE",
"157 -520 LINE",
"573 -520 LINE",
"573 80 LINE",
"664 5 OFFCURVE",
"767 -32 OFFCURVE",
"885 -32 CURVE SMOOTH",
"1183 -32 OFFCURVE",
"1391 209 OFFCURVE",
"1391 514 CURVE SMOOTH",
"1391 819 OFFCURVE",
"1183 1056 OFFCURVE",
"885 1056 CURVE SMOOTH",
"767 1056 OFFCURVE",
"664 1019 OFFCURVE",
"573 944 CURVE",
"573 1720 LINE"
);
}
);
width = 1465;
},
{
anchors = (
{
name = bottom;
position = "{726, 0}";
},
{
name = top;
position = "{726, 1025}";
}
);
layerId = "b7c3c141-dc0f-46db-926d-e180a8f83e45";
paths = (
{
closed = 1;
nodes = (
"393 732 OFFCURVE",
"542 888 OFFCURVE",
"751 888 CURVE SMOOTH",
"959 888 OFFCURVE",
"1110 731 OFFCURVE",
"1110 512 CURVE SMOOTH",
"1110 293 OFFCURVE",
"959 136 OFFCURVE",
"751 136 CURVE SMOOTH",
"542 136 OFFCURVE",
"393 293 OFFCURVE",
"393 512 CURVE SMOOTH"
);
},
{
closed = 1;
nodes = (
"206 1720 LINE",
"206 -520 LINE",
"400 -520 LINE",
"400 192 LINE",
"489 50 OFFCURVE",
"634 -32 OFFCURVE",
"803 -32 CURVE SMOOTH",
"1097 -32 OFFCURVE",
"1312 201 OFFCURVE",
"1312 512 CURVE SMOOTH",
"1312 823 OFFCURVE",
"1097 1056 OFFCURVE",
"803 1056 CURVE SMOOTH",
"634 1056 OFFCURVE",
"489 974 OFFCURVE",
"400 832 CURVE",
"400 1720 LINE"
);
}
);
width = 1442;
},
{
anchors = (
{
name = bottom;
position = "{714, 0}";
},
{
name = top;
position = "{714, 1026}";
}
);
layerId = "ac360476-f880-49b3-af70-f23fb533da3d";
paths = (
{
closed = 1;
nodes = (
"285 800 OFFCURVE",
"478 1004 OFFCURVE",
"747 1004 CURVE SMOOTH",
"1016 1004 OFFCURVE",
"1209 799 OFFCURVE",
"1209 512 CURVE SMOOTH",
"1209 225 OFFCURVE",
"1016 20 OFFCURVE",
"747 20 CURVE SMOOTH",
"478 20 OFFCURVE",
"285 225 OFFCURVE",
"285 512 CURVE SMOOTH"
);
},
{
closed = 1;
nodes = (
"235 1720 LINE",
"235 -520 LINE",
"291 -520 LINE",
"291 262 LINE",
"375 79 OFFCURVE",
"547 -32 OFFCURVE",
"751 -32 CURVE SMOOTH",
"1043 -32 OFFCURVE",
"1263 197 OFFCURVE",
"1263 512 CURVE SMOOTH",
"1263 827 OFFCURVE",
"1043 1056 OFFCURVE",
"751 1056 CURVE SMOOTH",
"547 1056 OFFCURVE",
"375 945 OFFCURVE",
"291 762 CURVE",
"291 1720 LINE"
);
}
);
width = 1428;
}
);
leftMetricsKey = b;
rightKerningGroup = _b;
rightMetricsKey = b;
unicode = 00FE;
},
{
color = 5;
glyphname = q;
lastChange = "2020-02-27 21:29:52 +0000";
layers = (
{
anchors = (
{
name = bottom;
position = "{732, 0}";
},
{
name = top;
position = "{732, 1024}";
}
);
hints = (
{
horizontal = 1;
place = "{-32, 352}";
type = Stem;
},
{
horizontal = 1;
place = "{704, 352}";
type = Stem;
},
{
place = "{73, 440}";
type = Stem;
},
{
place = "{891, 416}";
type = Stem;
},
{
horizontal = 1;
place = "{1024, -20}";
target = down;
type = TopGhost;
},
{
horizontal = 1;
place = "{-520, 21}";
target = up;
type = BottomGhost;
}
);
layerId = "e62399bb-6e96-4ffb-a9ce-09aa31d52a36";
paths = (
{
closed = 1;
nodes = (
"513 623 OFFCURVE",
"596 704 OFFCURVE",
"707 704 CURVE SMOOTH",
"818 704 OFFCURVE",
"899 623 OFFCURVE",
"899 512 CURVE SMOOTH",
"899 401 OFFCURVE",
"818 320 OFFCURVE",
"707 320 CURVE SMOOTH",
"596 320 OFFCURVE",
"513 401 OFFCURVE",
"513 512 CURVE SMOOTH"
);
},
{
closed = 1;
nodes = (
"73 209 OFFCURVE",
"281 -32 OFFCURVE",
"579 -32 CURVE SMOOTH",
"697 -32 OFFCURVE",
"800 5 OFFCURVE",
"891 80 CURVE",
"891 -520 LINE",
"1307 -520 LINE",
"1307 1024 LINE",
"891 1024 LINE",
"891 944 LINE",
"800 1019 OFFCURVE",
"697 1056 OFFCURVE",
"579 1056 CURVE SMOOTH",
"281 1056 OFFCURVE",
"73 819 OFFCURVE",
"73 514 CURVE SMOOTH"
);
}
);
width = 1464;
},
{
anchors = (
{
name = bottom;
position = "{721, 0}";
},
{
name = top;
position = "{699, 1024}";
}
);
hints = (
{
horizontal = 1;
place = "{-32, 168}";
type = Stem;
},
{
horizontal = 1;
place = "{888, 168}";
type = Stem;
},
{
place = "{130, 202}";
type = Stem;
},
{
place = "{1042, 194}";
type = Stem;
},
{
horizontal = 1;
place = "{1024, -20}";
target = down;
type = TopGhost;
},
{
horizontal = 1;
place = "{-520, 21}";
target = up;
type = BottomGhost;
}
);
layerId = "b7c3c141-dc0f-46db-926d-e180a8f83e45";
paths = (
{
closed = 1;
nodes = (
"332 731 OFFCURVE",
"483 888 OFFCURVE",
"691 888 CURVE SMOOTH",
"900 888 OFFCURVE",
"1049 732 OFFCURVE",
"1049 512 CURVE SMOOTH",
"1049 293 OFFCURVE",
"900 136 OFFCURVE",
"691 136 CURVE SMOOTH",
"483 136 OFFCURVE",
"332 293 OFFCURVE",
"332 512 CURVE SMOOTH"
);
},
{
closed = 1;
nodes = (
"130 201 OFFCURVE",
"345 -32 OFFCURVE",
"639 -32 CURVE SMOOTH",
"808 -32 OFFCURVE",
"953 50 OFFCURVE",
"1042 192 CURVE",
"1042 -520 LINE",
"1236 -520 LINE",
"1236 1024 LINE",
"1042 1024 LINE",
"1042 832 LINE",
"953 974 OFFCURVE",
"808 1056 OFFCURVE",
"639 1056 CURVE SMOOTH",
"345 1056 OFFCURVE",
"130 823 OFFCURVE",
"130 512 CURVE SMOOTH"
);
}
);
width = 1442;
},
{
anchors = (
{
name = bottom;
position = "{714, 0}";
},
{
name = top;
position = "{679, 1024}";
}
);
hints = (
{
horizontal = 1;
place = "{-32, 52}";
type = Stem;
},
{
horizontal = 1;
place = "{1004, 52}";
type = Stem;
},
{
place = "{165, 54}";
type = Stem;
},
{
place = "{1137, 56}";
type = Stem;
},
{
horizontal = 1;
place = "{1024, -20}";
target = down;
type = TopGhost;
},
{
horizontal = 1;
place = "{-520, 21}";
target = up;
type = BottomGhost;
}
);
layerId = "ac360476-f880-49b3-af70-f23fb533da3d";
paths = (
{
closed = 1;
nodes = (
"219 799 OFFCURVE",
"412 1004 OFFCURVE",
"681 1004 CURVE SMOOTH",
"950 1004 OFFCURVE",
"1143 800 OFFCURVE",
"1143 512 CURVE SMOOTH",
"1143 225 OFFCURVE",
"950 20 OFFCURVE",
"681 20 CURVE SMOOTH",
"412 20 OFFCURVE",
"219 225 OFFCURVE",
"219 512 CURVE SMOOTH"
);
},
{
closed = 1;
nodes = (
"165 197 OFFCURVE",
"385 -32 OFFCURVE",
"677 -32 CURVE SMOOTH",
"881 -32 OFFCURVE",
"1053 79 OFFCURVE",
"1137 262 CURVE",
"1137 -520 LINE",
"1193 -520 LINE",
"1193 1024 LINE",
"1137 1024 LINE",
"1137 762 LINE",
"1053 945 OFFCURVE",
"881 1056 OFFCURVE",
"677 1056 CURVE SMOOTH",
"385 1056 OFFCURVE",
"165 827 OFFCURVE",
"165 512 CURVE SMOOTH"
);
}
);
width = 1428;
}
);
leftKerningGroup = _d;
leftMetricsKey = a;
rightKerningGroup = _A1;
rightMetricsKey = a;
unicode = 0071;
},
{
color = 5;
glyphname = r;
lastChange = "2020-02-27 21:29:52 +0000";
layers = (
{
anchors = (
{
name = bottom;
position = "{573, 0}";
},
{
name = top;
position = "{632, 1024}";
}
);
hints = (
{
horizontal = 1;
place = "{696, 360}";
type = Stem;
},
{
place = "{157, 416}";
type = Stem;
},
{
horizontal = 1;
place = "{0, 21}";
target = up;
type = BottomGhost;
},
{
horizontal = 1;
place = "{1024, -20}";
target = down;
type = TopGhost;
}
);
layerId = "e62399bb-6e96-4ffb-a9ce-09aa31d52a36";
paths = (
{
closed = 1;
nodes = (
"573 0 LINE",
"573 482 LINE SMOOTH",
"573 615 OFFCURVE",
"659 696 OFFCURVE",
"779 696 CURVE SMOOTH",
"845 696 OFFCURVE",
"909 671 OFFCURVE",
"959 634 CURVE",
"1133 984 LINE",
"1075 1026 OFFCURVE",
"988 1056 OFFCURVE",
"903 1056 CURVE SMOOTH",
"778 1056 OFFCURVE",
"658 991 OFFCURVE",
"573 871 CURVE",
"573 1024 LINE",
"157 1024 LINE",
"157 0 LINE"
);
}
);
width = 1108;
},
{
anchors = (
{
name = bottom;
position = "{478, 0}";
},
{
name = top;
position = "{518, 1024}";
}
);
hints = (
{
horizontal = 1;
place = "{887, 169}";
type = Stem;
},
{
place = "{206, 195}";
type = Stem;
},
{
horizontal = 1;
place = "{0, 21}";
target = up;
type = BottomGhost;
},
{
horizontal = 1;
place = "{1024, -20}";
target = down;
type = TopGhost;
}
);
layerId = "b7c3c141-dc0f-46db-926d-e180a8f83e45";
paths = (
{
closed = 1;
nodes = (
"401 0 LINE",
"401 545 LINE SMOOTH",
"401 769 OFFCURVE",
"526 887 OFFCURVE",
"663 887 CURVE SMOOTH",
"712 887 OFFCURVE",
"770 872 OFFCURVE",
"813 849 CURVE",
"893 1014 LINE",
"845 1039 OFFCURVE",
"778 1056 OFFCURVE",
"709 1056 CURVE SMOOTH",
"576 1056 OFFCURVE",
"458 993 OFFCURVE",
"401 844 CURVE",
"401 1024 LINE",
"206 1024 LINE",
"206 0 LINE"
);
}
);
width = 928;
},
{
anchors = (
{
name = bottom;
position = "{416, 0}";
},
{
name = top;
position = "{469, 1024}";
}
);
hints = (
{
horizontal = 1;
place = "{1006, 50}";
type = Stem;
},
{
place = "{235, 56}";
type = Stem;
},
{
horizontal = 1;
place = "{0, 21}";
target = up;
type = BottomGhost;
},
{
horizontal = 1;
place = "{1024, -20}";
target = down;
type = TopGhost;
}
);
layerId = "ac360476-f880-49b3-af70-f23fb533da3d";
paths = (
{
closed = 1;
nodes = (
"291 0 LINE",
"291 734 LINE SMOOTH",
"291 873 OFFCURVE",
"410 1006 OFFCURVE",
"589 1006 CURVE SMOOTH",
"633 1006 OFFCURVE",
"682 998 OFFCURVE",
"719 984 CURVE",
"741 1032 LINE",
"699 1047 OFFCURVE",
"644 1056 OFFCURVE",
"589 1056 CURVE SMOOTH",
"447 1056 OFFCURVE",
"348 994 OFFCURVE",
"291 870 CURVE",
"291 1024 LINE",
"235 1024 LINE",
"235 0 LINE"
);
}
);
width = 832;
}
);
leftKerningGroup = _m;
leftMetricsKey = n;
rightKerningGroup = _r;
unicode = 0072;
},
{
color = 5;
glyphname = s;
lastChange = "2020-02-27 21:29:52 +0000";
layers = (
{
anchors = (
{
name = bottom;
position = "{544, 0}";
},
{
name = top;
position = "{523, 1024}";
}
);
hints = (
{
horizontal = 1;
place = "{778, 276}";
type = Stem;
},
{
horizontal = 1;
place = "{-32, 304}";
type = Stem;
},
{
place = "{524, 438}";
type = Stem;
},
{
place = "{92, 396}";
type = Stem;
}
);
layerId = "e62399bb-6e96-4ffb-a9ce-09aa31d52a36";
paths = (
{
closed = 1;
nodes = (
"786 -32 OFFCURVE",
"962 92 OFFCURVE",
"962 303 CURVE SMOOTH",
"962 459 OFFCURVE",
"866 561 OFFCURVE",
"665 632 CURVE SMOOTH",
"537 677 OFFCURVE",
"488 706 OFFCURVE",
"488 737 CURVE SMOOTH",
"488 760 OFFCURVE",
"515 778 OFFCURVE",
"579 778 CURVE SMOOTH",
"651 778 OFFCURVE",
"737 756 OFFCURVE",
"802 720 CURVE",
"919 967 LINE",
"804 1024 OFFCURVE",
"674 1054 OFFCURVE",
"547 1054 CURVE SMOOTH",
"272 1054 OFFCURVE",
"92 905 OFFCURVE",
"92 712 CURVE SMOOTH",
"92 511 OFFCURVE",
"289 433 OFFCURVE",
"419 386 CURVE SMOOTH",
"501 356 OFFCURVE",
"524 336 OFFCURVE",
"524 312 CURVE SMOOTH",
"524 286 OFFCURVE",
"497 272 OFFCURVE",
"451 272 CURVE SMOOTH",
"377 272 OFFCURVE",
"286 307 OFFCURVE",
"206 366 CURVE",
"56 103 LINE",
"185 12 OFFCURVE",
"317 -32 OFFCURVE",
"492 -32 CURVE SMOOTH"
);
}
);
width = 1046;
},
{
anchors = (
{
name = bottom;
position = "{495, 0}";
},
{
name = top;
position = "{488, 1024}";
}
);
hints = (
{
horizontal = 1;
place = "{918, 137}";
type = Stem;
},
{
horizontal = 1;
place = "{-32, 148}";
type = Stem;
},
{
place = "{678, 199}";
type = Stem;
},
{
place = "{135, 184}";
type = Stem;
}
);
layerId = "b7c3c141-dc0f-46db-926d-e180a8f83e45";
paths = (
{
closed = 1;
nodes = (
"725 -32 OFFCURVE",
"877 77 OFFCURVE",
"877 273 CURVE SMOOTH",
"877 449 OFFCURVE",
"733 534 OFFCURVE",
"537 607 CURVE SMOOTH",
"401 657 OFFCURVE",
"319 693 OFFCURVE",
"319 781 CURVE SMOOTH",
"319 861 OFFCURVE",
"387 918 OFFCURVE",
"500 918 CURVE SMOOTH",
"576 918 OFFCURVE",
"650 892 OFFCURVE",
"710 833 CURVE",
"805 917 LINE",
"727 1006 OFFCURVE",
"616 1055 OFFCURVE",
"488 1055 CURVE SMOOTH",
"277 1055 OFFCURVE",
"135 933 OFFCURVE",
"135 772 CURVE SMOOTH",
"135 598 OFFCURVE",
"299 531 OFFCURVE",
"432 481 CURVE SMOOTH",
"573 428 OFFCURVE",
"678 383 OFFCURVE",
"678 279 CURVE SMOOTH",
"678 169 OFFCURVE",
"584 116 OFFCURVE",
"473 116 CURVE SMOOTH",
"379 116 OFFCURVE",
"283 152 OFFCURVE",
"210 238 CURVE",
"100 157 LINE",
"194 22 OFFCURVE",
"332 -32 OFFCURVE",
"491 -32 CURVE SMOOTH"
);
}
);
width = 1001;
},
{
anchors = (
{
name = bottom;
position = "{490, 0}";
},
{
name = top;
position = "{473, 1024}";
}
);
hints = (
{
horizontal = 1;
place = "{1006, 50}";
type = Stem;
},
{
horizontal = 1;
place = "{-32, 50}";
type = Stem;
},
{
place = "{774, 50}";
type = Stem;
},
{
place = "{184, 52}";
type = Stem;
}
);
layerId = "ac360476-f880-49b3-af70-f23fb533da3d";
paths = (
{
closed = 1;
nodes = (
"687 -32 OFFCURVE",
"824 67 OFFCURVE",
"824 251 CURVE SMOOTH",
"824 443 OFFCURVE",
"672 518 OFFCURVE",
"479 592 CURVE SMOOTH",
"339 646 OFFCURVE",
"236 685 OFFCURVE",
"236 808 CURVE SMOOTH",
"236 925 OFFCURVE",
"329 1006 OFFCURVE",
"473 1006 CURVE SMOOTH",
"585 1006 OFFCURVE",
"664 957 OFFCURVE",
"710 864 CURVE",
"754 885 LINE",
"705 994 OFFCURVE",
"602 1056 OFFCURVE",
"473 1056 CURVE SMOOTH",
"303 1056 OFFCURVE",
"184 950 OFFCURVE",
"184 809 CURVE SMOOTH",
"184 653 OFFCURVE",
"328 591 OFFCURVE",
"462 540 CURVE SMOOTH",
"640 472 OFFCURVE",
"774 410 OFFCURVE",
"774 252 CURVE SMOOTH",
"774 93 OFFCURVE",
"641 18 OFFCURVE",
"490 18 CURVE SMOOTH",
"352 18 OFFCURVE",
"235 76 OFFCURVE",
"174 212 CURVE",
"130 192 LINE",
"201 29 OFFCURVE",
"341 -32 OFFCURVE",
"491 -32 CURVE SMOOTH"
);
}
);
width = 973;
}
);
leftKerningGroup = _s;
rightKerningGroup = _s;
unicode = 0073;
},
{
color = 5;
glyphname = germandbls;
lastChange = "2020-02-27 21:29:52 +0000";
layers = (
{
anchors = (
{
name = bottom;
position = "{703, 0}";
},
{
name = top;
position = "{703, 1024}";
}
);
hints = (
{
horizontal = 1;
place = "{1404, 346}";
type = Stem;
},
{
horizontal = 1;
place = "{756, 312}";
type = Stem;
},
{
horizontal = 1;
place = "{-32, 378}";
type = Stem;
},
{
horizontal = 1;
place = "{628, 314}";
type = Stem;
},
{
place = "{213, 414}";
type = Stem;
},
{
place = "{877, 16}";
type = Stem;
},
{
place = "{1267, 66}";
type = Stem;
},
{
horizontal = 1;
place = "{0, 21}";
target = up;
type = BottomGhost;
}
);
layerId = "e62399bb-6e96-4ffb-a9ce-09aa31d52a36";
paths = (
{
closed = 1;
nodes = (
"737 -32 LINE",
"1090 -24 OFFCURVE",
"1333 201 OFFCURVE",
"1333 520 CURVE SMOOTH",
"1333 704 OFFCURVE",
"1249 837 OFFCURVE",
"1081 920 CURVE",
"1207 998 OFFCURVE",
"1267 1105 OFFCURVE",
"1267 1253 CURVE SMOOTH",
"1267 1537 OFFCURVE",
"1043 1750 OFFCURVE",
"743 1750 CURVE SMOOTH",
"439 1750 OFFCURVE",
"213 1527 OFFCURVE",
"213 1228 CURVE SMOOTH",
"213 942 LINE",
"81 942 LINE",
"81 628 LINE",
"213 628 LINE",
"213 0 LINE",
"627 0 LINE",
"627 1244 LINE SMOOTH",
"627 1348 OFFCURVE",
"666 1404 OFFCURVE",
"738 1404 CURVE SMOOTH",
"820 1404 OFFCURVE",
"877 1338 OFFCURVE",
"877 1243 CURVE SMOOTH",
"877 1140 OFFCURVE",
"820 1068 OFFCURVE",
"737 1068 CURVE",
"736 1068 LINE",
"736 756 LINE",
"737 756 LINE",
"832 756 OFFCURVE",
"893 675 OFFCURVE",
"893 551 CURVE SMOOTH",
"893 429 OFFCURVE",
"830 346 OFFCURVE",
"737 346 CURVE",
"736 346 LINE",
"736 -32 LINE"
);
}
);
width = 1399;
},
{
anchors = (
{
name = bottom;
position = "{681, 0}";
},
{
name = top;
position = "{681, 1025}";
}
);
hints = (
{
horizontal = 1;
place = "{1582, 168}";
type = Stem;
},
{
horizontal = 1;
place = "{838, 155}";
type = Stem;
},
{
horizontal = 1;
place = "{-32, 180}";
type = Stem;
},
{
horizontal = 1;
place = "{707, 156}";
type = Stem;
},
{
place = "{241, 194}";
type = Stem;
},
{
place = "{991, 42}";
type = Stem;
},
{
place = "{1176, 61}";
type = Stem;
},
{
horizontal = 1;
place = "{0, 21}";
target = up;
type = BottomGhost;
}
);
layerId = "b7c3c141-dc0f-46db-926d-e180a8f83e45";
paths = (
{
closed = 1;
nodes = (
"708 -32 LINE",
"1009 -29 OFFCURVE",
"1237 192 OFFCURVE",
"1237 481 CURVE SMOOTH",
"1237 681 OFFCURVE",
"1124 846 OFFCURVE",
"937 920 CURVE",
"1087 989 OFFCURVE",
"1176 1128 OFFCURVE",
"1176 1294 CURVE SMOOTH",
"1176 1550 OFFCURVE",
"972 1750 OFFCURVE",
"710 1750 CURVE SMOOTH",
"446 1750 OFFCURVE",
"241 1546 OFFCURVE",
"241 1285 CURVE SMOOTH",
"241 863 LINE",
"109 863 LINE",
"109 707 LINE",
"241 707 LINE",
"241 0 LINE",
"435 0 LINE",
"435 1291 LINE SMOOTH",
"435 1457 OFFCURVE",
"554 1582 OFFCURVE",
"708 1582 CURVE SMOOTH",
"866 1582 OFFCURVE",
"991 1454 OFFCURVE",
"991 1290 CURVE SMOOTH",
"991 1124 OFFCURVE",
"866 993 OFFCURVE",
"708 993 CURVE SMOOTH",
"573 993 LINE",
"573 838 LINE",
"708 838 LINE SMOOTH",
"890 838 OFFCURVE",
"1033 688 OFFCURVE",
"1033 493 CURVE SMOOTH",
"1033 299 OFFCURVE",
"890 148 OFFCURVE",
"708 148 CURVE SMOOTH",
"573 148 LINE",
"573 -32 LINE"
);
}
);
width = 1358;
},
{
anchors = (
{
name = bottom;
position = "{667, 0}";
},
{
name = top;
position = "{667, 1026}";
}
);
hints = (
{
horizontal = 1;
place = "{1694, 56}";
type = Stem;
},
{
horizontal = 1;
place = "{890, 56}";
type = Stem;
},
{
horizontal = 1;
place = "{-32, 56}";
type = Stem;
},
{
horizontal = 1;
place = "{756, 58}";
type = Stem;
},
{
place = "{259, 56}";
type = Stem;
},
{
place = "{1063, 56}";
type = Stem;
},
{
place = "{1121, 56}";
type = Stem;
},
{
horizontal = 1;
place = "{0, 21}";
target = up;
type = BottomGhost;
}
);
layerId = "ac360476-f880-49b3-af70-f23fb533da3d";
paths = (
{
closed = 1;
nodes = (
"689 -32 LINE SMOOTH",
"959 -32 OFFCURVE",
"1177 186 OFFCURVE",
"1177 456 CURVE SMOOTH",
"1177 666 OFFCURVE",
"1045 852 OFFCURVE",
"847 920 CURVE",
"1011 984 OFFCURVE",
"1119 1142 OFFCURVE",
"1119 1320 CURVE SMOOTH",
"1119 1558 OFFCURVE",
"927 1750 OFFCURVE",
"689 1750 CURVE SMOOTH",
"451 1750 OFFCURVE",
"259 1558 OFFCURVE",
"259 1320 CURVE SMOOTH",
"259 814 LINE",
"127 814 LINE",
"127 756 LINE",
"259 756 LINE",
"259 0 LINE",
"315 0 LINE",
"315 1320 LINE SMOOTH",
"315 1526 OFFCURVE",
"483 1694 OFFCURVE",
"689 1694 CURVE SMOOTH",
"895 1694 OFFCURVE",
"1063 1526 OFFCURVE",
"1063 1320 CURVE SMOOTH",
"1063 1114 OFFCURVE",
"895 946 OFFCURVE",
"689 946 CURVE SMOOTH",
"471 946 LINE",
"471 890 LINE",
"689 890 LINE SMOOTH",
"927 890 OFFCURVE",
"1121 696 OFFCURVE",
"1121 456 CURVE SMOOTH",
"1121 218 OFFCURVE",
"927 24 OFFCURVE",
"689 24 CURVE SMOOTH",
"471 24 LINE",
"471 -32 LINE"
);
}
);
width = 1333;
}
);
rightKerningGroup = _A1;
unicode = 00DF;
},
{
color = 5;
glyphname = t;
lastChange = "2020-02-27 21:29:52 +0000";
layers = (
{
anchors = (
{
name = bottom;
position = "{597, 0}";
},
{
name = center;
position = "{470, 512}";
},
{
name = top;
position = "{503, 1408}";
},
{
name = topright;
position = "{820, 1024}";
}
);
hints = (
{
horizontal = 1;
place = "{708, 316}";
type = Stem;
},
{
place = "{200, 416}";
type = Stem;
},
{
horizontal = 1;
place = "{-32, 372}";
type = Stem;
}
);
layerId = "e62399bb-6e96-4ffb-a9ce-09aa31d52a36";
paths = (
{
closed = 1;
nodes = (
"679 -32 OFFCURVE",
"795 -3 OFFCURVE",
"882 45 CURVE",
"742 357 LINE",
"722 346 OFFCURVE",
"702 340 OFFCURVE",
"681 340 CURVE SMOOTH",
"638 340 OFFCURVE",
"616 367 OFFCURVE",
"616 420 CURVE SMOOTH",
"616 708 LINE",
"820 708 LINE",
"820 1024 LINE",
"616 1024 LINE",
"616 1408 LINE",
"200 1408 LINE",
"200 1024 LINE",
"40 1024 LINE",
"40 708 LINE",
"200 708 LINE",
"200 388 LINE SMOOTH",
"200 124 OFFCURVE",
"340 -32 OFFCURVE",
"577 -32 CURVE SMOOTH"
);
}
);
width = 940;
},
{
anchors = (
{
name = bottom;
position = "{492, 0}";
},
{
name = center;
position = "{391, 513}";
},
{
name = top;
position = "{410, 1407}";
},
{
name = topright;
position = "{722, 1024}";
}
);
hints = (
{
horizontal = 1;
place = "{876, 148}";
type = Stem;
},
{
place = "{223, 195}";
type = Stem;
},
{
horizontal = 1;
place = "{-32, 173}";
type = Stem;
}
);
layerId = "b7c3c141-dc0f-46db-926d-e180a8f83e45";
paths = (
{
closed = 1;
nodes = (
"567 -32 OFFCURVE",
"653 -7 OFFCURVE",
"703 33 CURVE",
"620 165 LINE",
"595 150 OFFCURVE",
"564 141 OFFCURVE",
"534 141 CURVE SMOOTH",
"459 141 OFFCURVE",
"418 196 OFFCURVE",
"418 298 CURVE SMOOTH",
"418 876 LINE",
"664 876 LINE",
"664 1024 LINE",
"418 1024 LINE",
"418 1407 LINE",
"223 1407 LINE",
"223 1024 LINE",
"109 1024 LINE",
"109 876 LINE",
"223 876 LINE",
"223 286 LINE SMOOTH",
"223 85 OFFCURVE",
"321 -32 OFFCURVE",
"489 -32 CURVE SMOOTH"
);
}
);
width = 781;
},
{
anchors = (
{
name = bottom;
position = "{426, 0}";
},
{
name = center;
position = "{341, 513}";
},
{
name = top;
position = "{351, 1406}";
},
{
name = topright;
position = "{661, 1024}";
}
);
hints = (
{
horizontal = 1;
place = "{982, 42}";
type = Stem;
},
{
place = "{238, 56}";
type = Stem;
},
{
horizontal = 1;
place = "{-32, 48}";
type = Stem;
}
);
layerId = "ac360476-f880-49b3-af70-f23fb533da3d";
paths = (
{
closed = 1;
nodes = (
"491 -32 OFFCURVE",
"546 -11 OFFCURVE",
"578 17 CURVE",
"552 50 LINE",
"524 29 OFFCURVE",
"481 16 OFFCURVE",
"441 16 CURVE SMOOTH",
"346 16 OFFCURVE",
"294 89 OFFCURVE",
"294 222 CURVE SMOOTH",
"294 982 LINE",
"566 982 LINE",
"566 1024 LINE",
"294 1024 LINE",
"294 1406 LINE",
"238 1406 LINE",
"238 1024 LINE",
"152 1024 LINE",
"152 982 LINE",
"238 982 LINE",
"238 222 LINE SMOOTH",
"238 60 OFFCURVE",
"309 -32 OFFCURVE",
"432 -32 CURVE SMOOTH"
);
}
);
width = 681;
}
);
leftKerningGroup = _t;
rightKerningGroup = _t;
unicode = 0074;
},
{
color = 5;
glyphname = tbar;
lastChange = "2020-02-27 21:29:52 +0000";
layers = (
{
hints = (
{
horizontal = 1;
place = "{608, 216}";
type = Stem;
},
{
horizontal = 1;
place = "{908, 216}";
type = Stem;
},
{
place = "{200, 416}";
type = Stem;
},
{
horizontal = 1;
place = "{-32, 372}";
type = Stem;
}
);
layerId = "e62399bb-6e96-4ffb-a9ce-09aa31d52a36";
paths = (
{
closed = 1;
nodes = (
"679 -32 OFFCURVE",
"795 -3 OFFCURVE",
"882 45 CURVE",
"742 357 LINE",
"722 346 OFFCURVE",
"702 340 OFFCURVE",
"681 340 CURVE SMOOTH",
"638 340 OFFCURVE",
"616 367 OFFCURVE",
"616 420 CURVE SMOOTH",
"616 608 LINE",
"820 608 LINE",
"820 824 LINE",
"616 824 LINE",
"616 908 LINE",
"820 908 LINE",
"820 1124 LINE",
"616 1124 LINE",
"616 1408 LINE",
"200 1408 LINE",
"200 1124 LINE",
"40 1124 LINE",
"40 908 LINE",
"200 908 LINE",
"200 824 LINE",
"40 824 LINE",
"40 608 LINE",
"200 608 LINE",
"200 388 LINE SMOOTH",
"200 124 OFFCURVE",
"340 -32 OFFCURVE",
"577 -32 CURVE SMOOTH"
);
}
);
width = 940;
},
{
hints = (
{
horizontal = 1;
place = "{715, 109}";
type = Stem;
},
{
horizontal = 1;
place = "{954, 109}";
type = Stem;
},
{
place = "{223, 195}";
type = Stem;
},
{
horizontal = 1;
place = "{-32, 173}";
type = Stem;
}
);
layerId = "b7c3c141-dc0f-46db-926d-e180a8f83e45";
paths = (
{
closed = 1;
nodes = (
"567 -32 OFFCURVE",
"653 -7 OFFCURVE",
"703 33 CURVE",
"620 165 LINE",
"595 150 OFFCURVE",
"564 141 OFFCURVE",
"534 141 CURVE SMOOTH",
"459 141 OFFCURVE",
"418 196 OFFCURVE",
"418 298 CURVE SMOOTH",
"418 715 LINE",
"664 715 LINE",
"664 824 LINE",
"418 824 LINE",
"418 954 LINE",
"664 954 LINE",
"664 1063 LINE",
"418 1063 LINE",
"418 1407 LINE",
"223 1407 LINE",
"223 1063 LINE",
"109 1063 LINE",
"109 954 LINE",
"223 954 LINE",
"223 824 LINE",
"109 824 LINE",
"109 715 LINE",
"223 715 LINE",
"223 286 LINE SMOOTH",
"223 85 OFFCURVE",
"321 -32 OFFCURVE",
"489 -32 CURVE SMOOTH"
);
}
);
width = 781;
},
{
hints = (
{
horizontal = 1;
place = "{782, 42}";
type = Stem;
},
{
horizontal = 1;
place = "{983, 42}";
type = Stem;
},
{
place = "{238, 56}";
type = Stem;
},
{
horizontal = 1;
place = "{-32, 48}";
type = Stem;
}
);
layerId = "ac360476-f880-49b3-af70-f23fb533da3d";
paths = (
{
closed = 1;
nodes = (
"491 -32 OFFCURVE",
"546 -11 OFFCURVE",
"578 17 CURVE",
"552 50 LINE",
"524 29 OFFCURVE",
"481 16 OFFCURVE",
"441 16 CURVE SMOOTH",
"346 16 OFFCURVE",
"294 89 OFFCURVE",
"294 222 CURVE SMOOTH",
"294 782 LINE",
"566 782 LINE",
"566 824 LINE",
"294 824 LINE",
"294 983 LINE",
"566 983 LINE",
"566 1025 LINE",
"294 1025 LINE",
"294 1406 LINE",
"238 1406 LINE",
"238 1025 LINE",
"152 1025 LINE",
"152 983 LINE",
"238 983 LINE",
"238 824 LINE",
"152 824 LINE",
"152 782 LINE",
"238 782 LINE",
"238 222 LINE SMOOTH",
"238 60 OFFCURVE",
"309 -32 OFFCURVE",
"432 -32 CURVE SMOOTH"
);
}
);
width = 681;
}
);
leftMetricsKey = t;
rightMetricsKey = t;
unicode = 0167;
},
{
color = 5;
glyphname = u;
lastChange = "2020-02-27 21:29:52 +0000";
layers = (
{
anchors = (
{
name = bottom;
position = "{720, 0}";
},
{
name = ogonek;
position = "{760, 0}";
},
{
name = top;
position = "{720, 1024}";
}
);
hints = (
{
place = "{128, 416}";
type = Stem;
},
{
place = "{896, 416}";
type = Stem;
},
{
horizontal = 1;
place = "{-32, 336}";
type = Stem;
},
{
horizontal = 1;
place = "{1024, -20}";
target = down;
type = TopGhost;
}
);
layerId = "e62399bb-6e96-4ffb-a9ce-09aa31d52a36";
paths = (
{
closed = 1;
nodes = (
"1137 -32 OFFCURVE",
"1312 132 OFFCURVE",
"1312 474 CURVE SMOOTH",
"1312 1024 LINE",
"896 1024 LINE",
"896 578 LINE SMOOTH",
"896 390 OFFCURVE",
"850 304 OFFCURVE",
"720 304 CURVE SMOOTH",
"590 304 OFFCURVE",
"544 390 OFFCURVE",
"544 578 CURVE SMOOTH",
"544 1024 LINE",
"128 1024 LINE",
"128 474 LINE SMOOTH",
"128 132 OFFCURVE",
"303 -32 OFFCURVE",
"720 -32 CURVE SMOOTH"
);
}
);
width = 1440;
},
{
anchors = (
{
name = bottom;
position = "{646, 0}";
},
{
name = ogonek;
position = "{666, 0}";
},
{
name = top;
position = "{646, 1024}";
}
);
hints = (
{
place = "{185, 194}";
type = Stem;
},
{
place = "{913, 194}";
type = Stem;
},
{
horizontal = 1;
place = "{-32, 161}";
type = Stem;
},
{
horizontal = 1;
place = "{1024, -20}";
target = down;
type = TopGhost;
}
);
layerId = "b7c3c141-dc0f-46db-926d-e180a8f83e45";
paths = (
{
closed = 1;
nodes = (
"952 -32 OFFCURVE",
"1107 140 OFFCURVE",
"1107 479 CURVE SMOOTH",
"1107 1024 LINE",
"913 1024 LINE",
"913 520 LINE SMOOTH",
"913 244 OFFCURVE",
"834 129 OFFCURVE",
"646 129 CURVE SMOOTH",
"458 129 OFFCURVE",
"379 244 OFFCURVE",
"379 520 CURVE SMOOTH",
"379 1024 LINE",
"185 1024 LINE",
"185 479 LINE SMOOTH",
"185 140 OFFCURVE",
"340 -32 OFFCURVE",
"646 -32 CURVE SMOOTH"
);
}
);
width = 1292;
},
{
anchors = (
{
name = bottom;
position = "{599, 0}";
},
{
name = ogonek;
position = "{609, 0}";
},
{
name = top;
position = "{599, 1024}";
}
);
hints = (
{
place = "{219, 56}";
type = Stem;
},
{
place = "{923, 56}";
type = Stem;
},
{
horizontal = 1;
place = "{-32, 52}";
type = Stem;
},
{
horizontal = 1;
place = "{1024, -20}";
target = down;
type = TopGhost;
}
);
layerId = "ac360476-f880-49b3-af70-f23fb533da3d";
paths = (
{
closed = 1;
nodes = (
"867 -32 OFFCURVE",
"979 100 OFFCURVE",
"979 414 CURVE SMOOTH",
"979 1024 LINE",
"923 1024 LINE",
"923 414 LINE SMOOTH",
"923 131 OFFCURVE",
"832 20 OFFCURVE",
"599 20 CURVE SMOOTH",
"366 20 OFFCURVE",
"275 131 OFFCURVE",
"275 414 CURVE SMOOTH",
"275 1024 LINE",
"219 1024 LINE",
"219 414 LINE SMOOTH",
"219 100 OFFCURVE",
"331 -32 OFFCURVE",
"599 -32 CURVE SMOOTH"
);
}
);
width = 1198;
}
);
leftKerningGroup = _u;
rightKerningGroup = _u;
unicode = 0075;
},
{
color = 5;
glyphname = uogonek;
lastChange = "2020-02-27 21:29:52 +0000";
layers = (
{
hints = (
{
place = "{128, 416}";
type = Stem;
},
{
place = "{896, 416}";
type = Stem;
},
{
horizontal = 1;
place = "{1024, -20}";
target = down;
type = TopGhost;
},
{
horizontal = 1;
place = "{-32, 336}";
type = Stem;
}
);
layerId = "e62399bb-6e96-4ffb-a9ce-09aa31d52a36";
rightMetricsKey = "=u";
paths = (
{
closed = 1;
nodes = (
"826 -32 OFFCURVE",
"916 -21 OFFCURVE",
"992 0 CURVE",
"892 0 LINE",
"784 -124 OFFCURVE",
"725 -241 OFFCURVE",
"725 -332 CURVE SMOOTH",
"725 -456 OFFCURVE",
"833 -557 OFFCURVE",
"977 -557 CURVE SMOOTH",
"1084 -557 OFFCURVE",
"1190 -502 OFFCURVE",
"1251 -413 CURVE",
"1085 -289 LINE",
"1069 -318 OFFCURVE",
"1040 -337 OFFCURVE",
"1012 -337 CURVE SMOOTH",
"979 -337 OFFCURVE",
"961 -312 OFFCURVE",
"961 -267 CURVE SMOOTH",
"961 -170 OFFCURVE",
"1047 -5 OFFCURVE",
"1156 79 CURVE SMOOTH",
"1263 163 OFFCURVE",
"1312 293 OFFCURVE",
"1312 474 CURVE SMOOTH",
"1312 1024 LINE",
"896 1024 LINE",
"896 578 LINE SMOOTH",
"896 390 OFFCURVE",
"850 304 OFFCURVE",
"720 304 CURVE SMOOTH",
"590 304 OFFCURVE",
"544 390 OFFCURVE",
"544 578 CURVE SMOOTH",
"544 1024 LINE",
"128 1024 LINE",
"128 474 LINE SMOOTH",
"128 132 OFFCURVE",
"303 -32 OFFCURVE",
"720 -32 CURVE SMOOTH"
);
}
);
width = 1440;
},
{
hints = (
{
place = "{185, 194}";
type = Stem;
},
{
place = "{913, 194}";
type = Stem;
},
{
horizontal = 1;
place = "{1024, -20}";
target = down;
type = TopGhost;
},
{
horizontal = 1;
place = "{-32, 161}";
type = Stem;
}
);
layerId = "b7c3c141-dc0f-46db-926d-e180a8f83e45";
rightMetricsKey = "=u-34";
paths = (
{
closed = 1;
nodes = (
"722 -32 OFFCURVE",
"789 -21 OFFCURVE",
"847 0 CURVE",
"794 0 LINE",
"679 -125 OFFCURVE",
"615 -229 OFFCURVE",
"615 -330 CURVE SMOOTH",
"615 -458 OFFCURVE",
"720 -559 OFFCURVE",
"866 -559 CURVE SMOOTH",
"974 -559 OFFCURVE",
"1080 -504 OFFCURVE",
"1141 -415 CURVE",
"1056 -352 LINE",
"1004 -413 OFFCURVE",
"948 -442 OFFCURVE",
"883 -442 CURVE SMOOTH",
"787 -442 OFFCURVE",
"738 -382 OFFCURVE",
"738 -304 CURVE SMOOTH",
"738 -200 OFFCURVE",
"826 -56 OFFCURVE",
"966 71 CURVE SMOOTH",
"1060 156 OFFCURVE",
"1107 292 OFFCURVE",
"1107 479 CURVE SMOOTH",
"1107 1024 LINE",
"913 1024 LINE",
"913 520 LINE SMOOTH",
"913 244 OFFCURVE",
"834 129 OFFCURVE",
"646 129 CURVE SMOOTH",
"458 129 OFFCURVE",
"379 244 OFFCURVE",
"379 520 CURVE SMOOTH",
"379 1024 LINE",
"185 1024 LINE",
"185 479 LINE SMOOTH",
"185 140 OFFCURVE",
"340 -32 OFFCURVE",
"646 -32 CURVE SMOOTH"
);
}
);
width = 1292;
},
{
hints = (
{
place = "{219, 56}";
type = Stem;
},
{
place = "{923, 56}";
type = Stem;
},
{
horizontal = 1;
place = "{1024, -20}";
target = down;
type = TopGhost;
},
{
horizontal = 1;
place = "{-32, 52}";
type = Stem;
}
);
layerId = "ac360476-f880-49b3-af70-f23fb533da3d";
rightMetricsKey = "=u-128";
paths = (
{
closed = 1;
nodes = (
"674 -32 OFFCURVE",
"737 -22 OFFCURVE",
"788 0 CURVE",
"767 0 LINE",
"648 -125 OFFCURVE",
"581 -242 OFFCURVE",
"581 -335 CURVE SMOOTH",
"581 -458 OFFCURVE",
"684 -559 OFFCURVE",
"831 -559 CURVE SMOOTH",
"940 -559 OFFCURVE",
"1046 -504 OFFCURVE",
"1107 -415 CURVE",
"1073 -391 LINE",
"999 -472 OFFCURVE",
"925 -507 OFFCURVE",
"837 -507 CURVE SMOOTH",
"702 -507 OFFCURVE",
"633 -425 OFFCURVE",
"633 -334 CURVE SMOOTH",
"633 -237 OFFCURVE",
"718 -91 OFFCURVE",
"869 52 CURVE SMOOTH",
"944 124 OFFCURVE",
"979 241 OFFCURVE",
"979 414 CURVE SMOOTH",
"979 1024 LINE",
"923 1024 LINE",
"923 414 LINE SMOOTH",
"923 131 OFFCURVE",
"832 20 OFFCURVE",
"599 20 CURVE SMOOTH",
"366 20 OFFCURVE",
"275 131 OFFCURVE",
"275 414 CURVE SMOOTH",
"275 1024 LINE",
"219 1024 LINE",
"219 414 LINE SMOOTH",
"219 100 OFFCURVE",
"331 -32 OFFCURVE",
"599 -32 CURVE SMOOTH"
);
}
);
width = 1198;
}
);
leftMetricsKey = u;
unicode = 0173;
},
